<?xml version="1.0" encoding="UTF-8" standalone="no"?>
<!DOCTYPE svg PUBLIC "-//W3C//DTD SVG 1.1//EN"
 "http://www.w3.org/Graphics/SVG/1.1/DTD/svg11.dtd">
<!-- Generated by graphviz version 2.28.0 (20110507.0327)
 -->
<!-- Title: G Pages: 1 -->
<svg width="668pt" height="2920pt"
 viewBox="0.00 0.00 668.00 2920.00" xmlns="http://www.w3.org/2000/svg" xmlns:xlink="http://www.w3.org/1999/xlink">
<g id="graph1" class="graph" transform="scale(1 1) rotate(0) translate(4 2916)">
<title>G</title>
<polygon fill="white" stroke="white" points="-4,5 -4,-2916 665,-2916 665,5 -4,5"/>
<g id="graph2" class="cluster"><title>cluster_Core</title>
<polyline fill="none" stroke="gray" points="186,-1680 358,-1680 "/>
<path fill="none" stroke="gray" d="M358,-1680C364,-1680 370,-1686 370,-1692"/>
<polyline fill="none" stroke="gray" points="370,-1692 370,-2686 "/>
<path fill="none" stroke="gray" d="M370,-2686C370,-2692 364,-2698 358,-2698"/>
<polyline fill="none" stroke="gray" points="358,-2698 186,-2698 "/>
<path fill="none" stroke="gray" d="M186,-2698C180,-2698 174,-2692 174,-2686"/>
<polyline fill="none" stroke="gray" points="174,-2686 174,-1692 "/>
<path fill="none" stroke="gray" d="M174,-1692C174,-1686 180,-1680 186,-1680"/>
<text text-anchor="middle" x="272" y="-2685.2" font-family="Times New Roman,serif" font-size="11.00" fill="gray">Core</text>
</g>
<g id="graph3" class="cluster"><title>cluster_Core\IO</title>
<polyline fill="none" stroke="gray" points="224,-2544 320,-2544 "/>
<path fill="none" stroke="gray" d="M320,-2544C326,-2544 332,-2550 332,-2556"/>
<polyline fill="none" stroke="gray" points="332,-2556 332,-2658 "/>
<path fill="none" stroke="gray" d="M332,-2658C332,-2664 326,-2670 320,-2670"/>
<polyline fill="none" stroke="gray" points="320,-2670 224,-2670 "/>
<path fill="none" stroke="gray" d="M224,-2670C218,-2670 212,-2664 212,-2658"/>
<polyline fill="none" stroke="gray" points="212,-2658 212,-2556 "/>
<path fill="none" stroke="gray" d="M212,-2556C212,-2550 218,-2544 224,-2544"/>
<text text-anchor="middle" x="272" y="-2657.2" font-family="Times New Roman,serif" font-size="11.00" fill="gray">IO</text>
</g>
<g id="graph4" class="cluster"><title>cluster_Database</title>
<polyline fill="none" stroke="gray" points="519,-2698 569,-2698 "/>
<path fill="none" stroke="gray" d="M569,-2698C575,-2698 581,-2704 581,-2710"/>
<polyline fill="none" stroke="gray" points="581,-2710 581,-2758 "/>
<path fill="none" stroke="gray" d="M581,-2758C581,-2764 575,-2770 569,-2770"/>
<polyline fill="none" stroke="gray" points="569,-2770 519,-2770 "/>
<path fill="none" stroke="gray" d="M519,-2770C513,-2770 507,-2764 507,-2758"/>
<polyline fill="none" stroke="gray" points="507,-2758 507,-2710 "/>
<path fill="none" stroke="gray" d="M507,-2710C507,-2704 513,-2698 519,-2698"/>
<text text-anchor="middle" x="544" y="-2757.2" font-family="Times New Roman,serif" font-size="11.00" fill="gray">Database</text>
</g>
<g id="graph5" class="cluster"><title>cluster_Library</title>
<polyline fill="none" stroke="gray" points="176,-574 368,-574 "/>
<path fill="none" stroke="gray" d="M368,-574C374,-574 380,-580 380,-586"/>
<polyline fill="none" stroke="gray" points="380,-586 380,-1660 "/>
<path fill="none" stroke="gray" d="M380,-1660C380,-1666 374,-1672 368,-1672"/>
<polyline fill="none" stroke="gray" points="368,-1672 176,-1672 "/>
<path fill="none" stroke="gray" d="M176,-1672C170,-1672 164,-1666 164,-1660"/>
<polyline fill="none" stroke="gray" points="164,-1660 164,-586 "/>
<path fill="none" stroke="gray" d="M164,-586C164,-580 170,-574 176,-574"/>
<text text-anchor="middle" x="272" y="-1659.2" font-family="Times New Roman,serif" font-size="11.00" fill="gray">Library</text>
</g>
<g id="graph6" class="cluster"><title>cluster_Wowlib</title>
<polyline fill="none" stroke="gray" points="519,-2778 569,-2778 "/>
<path fill="none" stroke="gray" d="M569,-2778C575,-2778 581,-2784 581,-2790"/>
<polyline fill="none" stroke="gray" points="581,-2790 581,-2892 "/>
<path fill="none" stroke="gray" d="M581,-2892C581,-2898 575,-2904 569,-2904"/>
<polyline fill="none" stroke="gray" points="569,-2904 519,-2904 "/>
<path fill="none" stroke="gray" d="M519,-2904C513,-2904 507,-2898 507,-2892"/>
<polyline fill="none" stroke="gray" points="507,-2892 507,-2790 "/>
<path fill="none" stroke="gray" d="M507,-2790C507,-2784 513,-2778 519,-2778"/>
<text text-anchor="middle" x="544" y="-2891.2" font-family="Times New Roman,serif" font-size="11.00" fill="gray">Wowlib</text>
</g>
<g id="graph7" class="cluster"><title>cluster_global</title>
<polyline fill="none" stroke="gray" points="210,-8 640,-8 "/>
<path fill="none" stroke="gray" d="M640,-8C646,-8 652,-14 652,-20"/>
<polyline fill="none" stroke="gray" points="652,-20 652,-554 "/>
<path fill="none" stroke="gray" d="M652,-554C652,-560 646,-566 640,-566"/>
<polyline fill="none" stroke="gray" points="640,-566 210,-566 "/>
<path fill="none" stroke="gray" d="M210,-566C204,-566 198,-560 198,-554"/>
<polyline fill="none" stroke="gray" points="198,-554 198,-20 "/>
<path fill="none" stroke="gray" d="M198,-20C198,-14 204,-8 210,-8"/>
<text text-anchor="middle" x="425" y="-553.2" font-family="Times New Roman,serif" font-size="11.00" fill="gray">global</text>
</g>
<!-- \\Core\\IO\\DirectoryInfo -->
<g id="node3" class="node"><title>\\Core\\IO\\DirectoryInfo</title>
<a xlink:href="system.core.io.DirectoryInfo.html" xlink:title="DirectoryInfo" target="_parent">
<polygon fill="none" stroke="black" points="324,-2642 220,-2642 220,-2606 324,-2606 324,-2642"/>
<text text-anchor="middle" x="272" y="-2621.2" font-family="Courier,monospace" font-size="11.00">DirectoryInfo</text>
</a>
</g>
<!-- \\Core\\IO\\FileInfo -->
<g id="node4" class="node"><title>\\Core\\IO\\FileInfo</title>
<a xlink:href="system.core.io.FileInfo.html" xlink:title="FileInfo" target="_parent">
<polygon fill="none" stroke="black" points="307.5,-2588 236.5,-2588 236.5,-2552 307.5,-2552 307.5,-2588"/>
<text text-anchor="middle" x="272" y="-2567.2" font-family="Courier,monospace" font-size="11.00">FileInfo</text>
</a>
</g>
<!-- \\Core\\AutoLoader -->
<g id="node5" class="node"><title>\\Core\\AutoLoader</title>
<a xlink:href="system.core.AutoLoader.html" xlink:title="AutoLoader" target="_parent">
<polygon fill="none" stroke="black" points="314,-2534 230,-2534 230,-2498 314,-2498 314,-2534"/>
<text text-anchor="middle" x="272" y="-2513.2" font-family="Courier,monospace" font-size="11.00">AutoLoader</text>
</a>
</g>
<!-- \\Core\\Benchmark -->
<g id="node6" class="node"><title>\\Core\\Benchmark</title>
<a xlink:href="system.core.Benchmark.html" xlink:title="Benchmark" target="_parent">
<polygon fill="none" stroke="black" points="310.5,-2480 233.5,-2480 233.5,-2444 310.5,-2444 310.5,-2480"/>
<text text-anchor="middle" x="272" y="-2459.2" font-family="Courier,monospace" font-size="11.00">Benchmark</text>
</a>
</g>
<!-- \\Core\\Config -->
<g id="node7" class="node"><title>\\Core\\Config</title>
<a xlink:href="system.core.Config.html" xlink:title="Config" target="_parent">
<polygon fill="none" stroke="black" points="300.5,-2426 243.5,-2426 243.5,-2390 300.5,-2390 300.5,-2426"/>
<text text-anchor="middle" x="272" y="-2405.2" font-family="Courier,monospace" font-size="11.00">Config</text>
</a>
</g>
<!-- \\Core\\Controller -->
<g id="node8" class="node"><title>\\Core\\Controller</title>
<a xlink:href="system.core.Controller.html" xlink:title="Controller" target="_parent">
<polygon fill="none" stroke="black" points="314,-2372 230,-2372 230,-2336 314,-2336 314,-2372"/>
<text text-anchor="middle" x="272" y="-2351.2" font-family="Courier,monospace" font-size="11.00">Controller</text>
</a>
</g>
<!-- \\Core\\Database -->
<g id="node9" class="node"><title>\\Core\\Database</title>
<a xlink:href="system.core.Database.html" xlink:title="Database" target="_parent">
<polygon fill="none" stroke="black" points="307.5,-2318 236.5,-2318 236.5,-2282 307.5,-2282 307.5,-2318"/>
<text text-anchor="middle" x="272" y="-2297.2" font-family="Courier,monospace" font-size="11.00">Database</text>
</a>
</g>
<!-- \\Core\\DatabaseConnectError -->
<g id="node10" class="node"><title>\\Core\\DatabaseConnectError</title>
<a xlink:href="system.core.Database.html" xlink:title="DatabaseConnectError" target="_parent">
<polygon fill="none" stroke="black" points="348,-2264 196,-2264 196,-2228 348,-2228 348,-2264"/>
<text text-anchor="middle" x="272" y="-2243.2" font-family="Courier,monospace" font-size="11.00">DatabaseConnectError</text>
</a>
</g>
<!-- \\Exception -->
<g id="node62" class="node"><title>\\Exception</title>
<ellipse fill="none" stroke="black" cx="50" cy="-1275" rx="50.0912" ry="18"/>
<text text-anchor="middle" x="50" y="-1271.3" font-family="Times New Roman,serif" font-size="14.00" fill="gray">\Exception</text>
</g>
<!-- \\Core\\DatabaseConnectError&#45;&gt;\\Exception -->
<g id="edge10" class="edge"><title>\\Core\\DatabaseConnectError&#45;&gt;\\Exception</title>
<path fill="none" stroke="black" d="M195.741,-2239.25C183.677,-2234.99 172.414,-2228.57 164,-2219 101.787,-2148.26 60.6715,-1453.01 52.4988,-1303.31"/>
<polygon fill="none" stroke="black" points="55.9824,-1302.91 51.9473,-1293.11 48.9926,-1303.28 55.9824,-1302.91"/>
</g>
<!-- \\Core\\ErrorHandler -->
<g id="node11" class="node"><title>\\Core\\ErrorHandler</title>
<a xlink:href="system.core.ErrorHandler.html" xlink:title="ErrorHandler" target="_parent">
<polygon fill="none" stroke="black" points="321,-2210 223,-2210 223,-2174 321,-2174 321,-2210"/>
<text text-anchor="middle" x="272" y="-2189.2" font-family="Courier,monospace" font-size="11.00">ErrorHandler</text>
</a>
</g>
<!-- \\Core\\EventHandler -->
<g id="node12" class="node"><title>\\Core\\EventHandler</title>
<a xlink:href="system.core.EventHandler.html" xlink:title="EventHandler" target="_parent">
<polygon fill="none" stroke="black" points="321,-2156 223,-2156 223,-2120 321,-2120 321,-2156"/>
<text text-anchor="middle" x="272" y="-2135.2" font-family="Courier,monospace" font-size="11.00">EventHandler</text>
</a>
</g>
<!-- \\Core\\InvalidCallableException -->
<g id="node13" class="node"><title>\\Core\\InvalidCallableException</title>
<a xlink:href="system.core.EventHandler.html" xlink:title="InvalidCallableException" target="_parent">
<polygon fill="none" stroke="black" points="361.5,-2102 182.5,-2102 182.5,-2066 361.5,-2066 361.5,-2102"/>
<text text-anchor="middle" x="272" y="-2081.2" font-family="Courier,monospace" font-size="11.00">InvalidCallableException</text>
</a>
</g>
<!-- \\Core\\InvalidCallableException&#45;&gt;\\Exception -->
<g id="edge12" class="edge"><title>\\Core\\InvalidCallableException&#45;&gt;\\Exception</title>
<path fill="none" stroke="black" d="M182.483,-2071.2C175.578,-2067.49 169.259,-2062.83 164,-2057 61.151,-1942.9 51.7713,-1429.88 51.0341,-1303.3"/>
<polygon fill="none" stroke="black" points="54.5339,-1303.22 50.9896,-1293.24 47.5339,-1303.25 54.5339,-1303.22"/>
</g>
<!-- \\Core\\Filesystem -->
<g id="node14" class="node"><title>\\Core\\Filesystem</title>
<a xlink:href="system.core.Filesystem.html" xlink:title="Filesystem" target="_parent">
<polygon fill="none" stroke="black" points="314,-2048 230,-2048 230,-2012 314,-2012 314,-2048"/>
<text text-anchor="middle" x="272" y="-2027.2" font-family="Courier,monospace" font-size="11.00">Filesystem</text>
</a>
</g>
<!-- \\Core\\Module -->
<g id="node15" class="node"><title>\\Core\\Module</title>
<a xlink:href="system.core.Module.html" xlink:title="Module" target="_parent">
<polygon fill="none" stroke="black" points="300.5,-1994 243.5,-1994 243.5,-1958 300.5,-1958 300.5,-1994"/>
<text text-anchor="middle" x="272" y="-1973.2" font-family="Courier,monospace" font-size="11.00">Module</text>
</a>
</g>
<!-- \\Core\\Request -->
<g id="node16" class="node"><title>\\Core\\Request</title>
<a xlink:href="system.core.Request.html" xlink:title="Request" target="_parent">
<polygon fill="none" stroke="black" points="304,-1940 240,-1940 240,-1904 304,-1904 304,-1940"/>
<text text-anchor="middle" x="272" y="-1919.2" font-family="Courier,monospace" font-size="11.00">Request</text>
</a>
</g>
<!-- \\Core\\Response -->
<g id="node17" class="node"><title>\\Core\\Response</title>
<a xlink:href="system.core.Response.html" xlink:title="Response" target="_parent">
<polygon fill="none" stroke="black" points="307.5,-1886 236.5,-1886 236.5,-1850 307.5,-1850 307.5,-1886"/>
<text text-anchor="middle" x="272" y="-1865.2" font-family="Courier,monospace" font-size="11.00">Response</text>
</a>
</g>
<!-- \\Core\\OutputSentException -->
<g id="node18" class="node"><title>\\Core\\OutputSentException</title>
<a xlink:href="system.core.Response.html" xlink:title="OutputSentException" target="_parent">
<polygon fill="none" stroke="black" points="344.5,-1832 199.5,-1832 199.5,-1796 344.5,-1796 344.5,-1832"/>
<text text-anchor="middle" x="272" y="-1811.2" font-family="Courier,monospace" font-size="11.00">OutputSentException</text>
</a>
</g>
<!-- \\Core\\OutputSentException&#45;&gt;\\Exception -->
<g id="edge32" class="edge"><title>\\Core\\OutputSentException&#45;&gt;\\Exception</title>
<path fill="none" stroke="black" d="M199.244,-1807.46C186.098,-1803.28 173.54,-1796.83 164,-1787 95.4795,-1716.4 62.1056,-1399.96 53.3791,-1303.2"/>
<polygon fill="none" stroke="black" points="56.8461,-1302.67 52.4793,-1293.02 49.8733,-1303.29 56.8461,-1302.67"/>
</g>
<!-- \\Core\\Router -->
<g id="node19" class="node"><title>\\Core\\Router</title>
<a xlink:href="system.core.Router.html" xlink:title="Router" target="_parent">
<polygon fill="none" stroke="black" points="300.5,-1778 243.5,-1778 243.5,-1742 300.5,-1742 300.5,-1778"/>
<text text-anchor="middle" x="272" y="-1757.2" font-family="Courier,monospace" font-size="11.00">Router</text>
</a>
</g>
<!-- \\Core\\XssFilter -->
<g id="node20" class="node"><title>\\Core\\XssFilter</title>
<a xlink:href="system.core.XssFilter.html" xlink:title="XssFilter" target="_parent">
<polygon fill="none" stroke="black" points="310.5,-1724 233.5,-1724 233.5,-1688 310.5,-1688 310.5,-1724"/>
<text text-anchor="middle" x="272" y="-1703.2" font-family="Courier,monospace" font-size="11.00">XssFilter</text>
</a>
</g>
<!-- \\Database\\Driver -->
<g id="node22" class="node"><title>\\Database\\Driver</title>
<a xlink:href="system.core.database.Driver.html" xlink:title="Driver" target="_parent">
<polygon fill="none" stroke="black" points="572.5,-2742 515.5,-2742 515.5,-2706 572.5,-2706 572.5,-2742"/>
<text text-anchor="middle" x="544" y="-2721.2" font-family="Courier,monospace" font-size="11.00">Driver</text>
</a>
</g>
<!-- \\PDO -->
<g id="node60" class="node"><title>\\PDO</title>
<ellipse fill="none" stroke="black" cx="272" cy="-2724" rx="31.6951" ry="18"/>
<text text-anchor="middle" x="272" y="-2720.3" font-family="Times New Roman,serif" font-size="14.00" fill="gray">\PDO</text>
</g>
<!-- \\Database\\Driver&#45;&gt;\\PDO -->
<g id="edge8" class="edge"><title>\\Database\\Driver&#45;&gt;\\PDO</title>
<path fill="none" stroke="black" d="M515.374,-2724C467.772,-2724 370.048,-2724 314.324,-2724"/>
<polygon fill="none" stroke="black" points="314.098,-2720.5 304.098,-2724 314.097,-2727.5 314.098,-2720.5"/>
</g>
<!-- \\Library\\Auth -->
<g id="node24" class="node"><title>\\Library\\Auth</title>
<a xlink:href="system.library.Auth.html" xlink:title="Auth" target="_parent">
<polygon fill="none" stroke="black" points="299,-1644 245,-1644 245,-1608 299,-1608 299,-1644"/>
<text text-anchor="middle" x="272" y="-1623.2" font-family="Courier,monospace" font-size="11.00">Auth</text>
</a>
</g>
<!-- \\Library\\InvalidUsernameException -->
<g id="node25" class="node"><title>\\Library\\InvalidUsernameException</title>
<a xlink:href="system.library.Auth.html" xlink:title="InvalidUsernameException" target="_parent">
<polygon fill="none" stroke="black" points="361.5,-1590 182.5,-1590 182.5,-1554 361.5,-1554 361.5,-1590"/>
<text text-anchor="middle" x="272" y="-1569.2" font-family="Courier,monospace" font-size="11.00">InvalidUsernameException</text>
</a>
</g>
<!-- \\Library\\InvalidUsernameException&#45;&gt;\\Exception -->
<g id="edge34" class="edge"><title>\\Library\\InvalidUsernameException&#45;&gt;\\Exception</title>
<path fill="none" stroke="black" d="M182.376,-1556.94C175.754,-1553.68 169.517,-1549.75 164,-1545 89.0873,-1480.51 62.7756,-1358.12 54.459,-1303.07"/>
<polygon fill="none" stroke="black" points="57.8993,-1302.4 53.0266,-1292.99 50.969,-1303.39 57.8993,-1302.4"/>
</g>
<!-- \\Library\\InvalidPasswordException -->
<g id="node26" class="node"><title>\\Library\\InvalidPasswordException</title>
<a xlink:href="system.library.Auth.html" xlink:title="InvalidPasswordException" target="_parent">
<polygon fill="none" stroke="black" points="361.5,-1536 182.5,-1536 182.5,-1500 361.5,-1500 361.5,-1536"/>
<text text-anchor="middle" x="272" y="-1515.2" font-family="Courier,monospace" font-size="11.00">InvalidPasswordException</text>
</a>
</g>
<!-- \\Library\\InvalidPasswordException&#45;&gt;\\Exception -->
<g id="edge36" class="edge"><title>\\Library\\InvalidPasswordException&#45;&gt;\\Exception</title>
<path fill="none" stroke="black" d="M182.277,-1502.17C175.757,-1499.08 169.565,-1495.39 164,-1491 101.889,-1442 70.233,-1349.38 57.6735,-1302.98"/>
<polygon fill="none" stroke="black" points="60.9872,-1301.81 55.0808,-1293.02 54.2129,-1303.58 60.9872,-1301.81"/>
</g>
<!-- \\Library\\InvalidEmailException -->
<g id="node27" class="node"><title>\\Library\\InvalidEmailException</title>
<a xlink:href="system.library.Auth.html" xlink:title="InvalidEmailException" target="_parent">
<polygon fill="none" stroke="black" points="351,-1482 193,-1482 193,-1446 351,-1446 351,-1482"/>
<text text-anchor="middle" x="272" y="-1461.2" font-family="Courier,monospace" font-size="11.00">InvalidEmailException</text>
</a>
</g>
<!-- \\Library\\InvalidEmailException&#45;&gt;\\Exception -->
<g id="edge38" class="edge"><title>\\Library\\InvalidEmailException&#45;&gt;\\Exception</title>
<path fill="none" stroke="black" d="M192.729,-1451.28C182.554,-1447.65 172.67,-1442.99 164,-1437 114.224,-1402.62 79.3895,-1338.69 62.5411,-1302.27"/>
<polygon fill="none" stroke="black" points="65.5632,-1300.45 58.2685,-1292.77 59.1795,-1303.33 65.5632,-1300.45"/>
</g>
<!-- \\Library\\InvalidCredentialsException -->
<g id="node28" class="node"><title>\\Library\\InvalidCredentialsException</title>
<a xlink:href="system.library.Auth.html" xlink:title="InvalidCredentialsException" target="_parent">
<polygon fill="none" stroke="black" points="371.5,-1428 172.5,-1428 172.5,-1392 371.5,-1392 371.5,-1428"/>
<text text-anchor="middle" x="272" y="-1407.2" font-family="Courier,monospace" font-size="11.00">InvalidCredentialsException</text>
</a>
</g>
<!-- \\Library\\InvalidCredentialsException&#45;&gt;\\Exception -->
<g id="edge40" class="edge"><title>\\Library\\InvalidCredentialsException&#45;&gt;\\Exception</title>
<path fill="none" stroke="black" d="M183.403,-1391.95C176.67,-1389.35 170.12,-1386.38 164,-1383 126.018,-1362 91.393,-1325.09 70.7528,-1300.35"/>
<polygon fill="none" stroke="black" points="73.3442,-1297.99 64.3046,-1292.46 67.9252,-1302.42 73.3442,-1297.99"/>
</g>
<!-- \\Library\\AccountExistsException -->
<g id="node29" class="node"><title>\\Library\\AccountExistsException</title>
<a xlink:href="system.library.Auth.html" xlink:title="AccountExistsException" target="_parent">
<polygon fill="none" stroke="black" points="354.5,-1374 189.5,-1374 189.5,-1338 354.5,-1338 354.5,-1374"/>
<text text-anchor="middle" x="272" y="-1353.2" font-family="Courier,monospace" font-size="11.00">AccountExistsException</text>
</a>
</g>
<!-- \\Library\\AccountExistsException&#45;&gt;\\Exception -->
<g id="edge42" class="edge"><title>\\Library\\AccountExistsException&#45;&gt;\\Exception</title>
<path fill="none" stroke="black" d="M191.866,-1337.92C182.391,-1335.21 172.92,-1332.22 164,-1329 137.516,-1319.44 108.91,-1305.73 87.1068,-1294.52"/>
<polygon fill="none" stroke="black" points="88.6913,-1291.4 78.2048,-1289.89 85.4599,-1297.61 88.6913,-1291.4"/>
</g>
<!-- \\Library\\AccountBannedException -->
<g id="node30" class="node"><title>\\Library\\AccountBannedException</title>
<a xlink:href="system.library.Auth.html" xlink:title="AccountBannedException" target="_parent">
<polygon fill="none" stroke="black" points="354.5,-1320 189.5,-1320 189.5,-1284 354.5,-1284 354.5,-1320"/>
<text text-anchor="middle" x="272" y="-1299.2" font-family="Courier,monospace" font-size="11.00">AccountBannedException</text>
</a>
</g>
<!-- \\Library\\AccountBannedException&#45;&gt;\\Exception -->
<g id="edge44" class="edge"><title>\\Library\\AccountBannedException&#45;&gt;\\Exception</title>
<path fill="none" stroke="black" d="M189.393,-1291.98C162.201,-1288.65 132.525,-1285.01 107.651,-1281.95"/>
<polygon fill="none" stroke="black" points="108.014,-1278.47 97.6621,-1280.73 107.161,-1285.42 108.014,-1278.47"/>
</g>
<!-- \\Library\\IpBannedException -->
<g id="node31" class="node"><title>\\Library\\IpBannedException</title>
<a xlink:href="system.library.Auth.html" xlink:title="IpBannedException" target="_parent">
<polygon fill="none" stroke="black" points="337.5,-1266 206.5,-1266 206.5,-1230 337.5,-1230 337.5,-1266"/>
<text text-anchor="middle" x="272" y="-1245.2" font-family="Courier,monospace" font-size="11.00">IpBannedException</text>
</a>
</g>
<!-- \\Library\\IpBannedException&#45;&gt;\\Exception -->
<g id="edge46" class="edge"><title>\\Library\\IpBannedException&#45;&gt;\\Exception</title>
<path fill="none" stroke="black" d="M206.479,-1255.92C175.154,-1259.76 137.855,-1264.34 107.644,-1268.05"/>
<polygon fill="none" stroke="black" points="107.188,-1264.58 97.6884,-1269.27 108.04,-1271.53 107.188,-1264.58"/>
</g>
<!-- \\Library\\Cache -->
<g id="node32" class="node"><title>\\Library\\Cache</title>
<a xlink:href="system.library.Cache.html" xlink:title="Cache" target="_parent">
<polygon fill="none" stroke="black" points="299,-1212 245,-1212 245,-1176 299,-1176 299,-1212"/>
<text text-anchor="middle" x="272" y="-1191.2" font-family="Courier,monospace" font-size="11.00">Cache</text>
</a>
</g>
<!-- \\Library\\Mime -->
<g id="node33" class="node"><title>\\Library\\Mime</title>
<a xlink:href="system.library.Mime.html" xlink:title="Mime" target="_parent">
<polygon fill="none" stroke="black" points="299,-1158 245,-1158 245,-1122 299,-1122 299,-1158"/>
<text text-anchor="middle" x="272" y="-1137.2" font-family="Courier,monospace" font-size="11.00">Mime</text>
</a>
</g>
<!-- \\Library\\Parser -->
<g id="node34" class="node"><title>\\Library\\Parser</title>
<a xlink:href="system.library.Parser.html" xlink:title="Parser" target="_parent">
<polygon fill="none" stroke="black" points="300.5,-1104 243.5,-1104 243.5,-1068 300.5,-1068 300.5,-1104"/>
<text text-anchor="middle" x="272" y="-1083.2" font-family="Courier,monospace" font-size="11.00">Parser</text>
</a>
</g>
<!-- \\Library\\Template -->
<g id="node35" class="node"><title>\\Library\\Template</title>
<a xlink:href="system.library.Template.html" xlink:title="Template" target="_parent">
<polygon fill="none" stroke="black" points="307.5,-1050 236.5,-1050 236.5,-1014 307.5,-1014 307.5,-1050"/>
<text text-anchor="middle" x="272" y="-1029.2" font-family="Courier,monospace" font-size="11.00">Template</text>
</a>
</g>
<!-- \\Library\\ThemeNotSetException -->
<g id="node36" class="node"><title>\\Library\\ThemeNotSetException</title>
<a xlink:href="system.library.Template.html" xlink:title="ThemeNotSetException" target="_parent">
<polygon fill="none" stroke="black" points="348,-996 196,-996 196,-960 348,-960 348,-996"/>
<text text-anchor="middle" x="272" y="-975.2" font-family="Courier,monospace" font-size="11.00">ThemeNotSetException</text>
</a>
</g>
<!-- \\Library\\ThemeNotSetException&#45;&gt;\\Exception -->
<g id="edge48" class="edge"><title>\\Library\\ThemeNotSetException&#45;&gt;\\Exception</title>
<path fill="none" stroke="black" d="M195.848,-987.472C184.272,-991.491 173.147,-997.125 164,-1005 89.0873,-1069.49 62.7756,-1191.88 54.459,-1246.93"/>
<polygon fill="none" stroke="black" points="50.969,-1246.61 53.0266,-1257.01 57.8993,-1247.6 50.969,-1246.61"/>
</g>
<!-- \\Library\\InvalidThemePathException -->
<g id="node37" class="node"><title>\\Library\\InvalidThemePathException</title>
<a xlink:href="system.library.Template.html" xlink:title="InvalidThemePathException" target="_parent">
<polygon fill="none" stroke="black" points="364.5,-942 179.5,-942 179.5,-906 364.5,-906 364.5,-942"/>
<text text-anchor="middle" x="272" y="-921.2" font-family="Courier,monospace" font-size="11.00">InvalidThemePathException</text>
</a>
</g>
<!-- \\Library\\InvalidThemePathException&#45;&gt;\\Exception -->
<g id="edge50" class="edge"><title>\\Library\\InvalidThemePathException&#45;&gt;\\Exception</title>
<path fill="none" stroke="black" d="M179.492,-940.052C173.903,-943.114 168.664,-946.731 164,-951 76.1402,-1031.42 56.5918,-1183.85 52.2435,-1246.76"/>
<polygon fill="none" stroke="black" points="48.7497,-1246.55 51.6311,-1256.74 55.7366,-1246.98 48.7497,-1246.55"/>
</g>
<!-- \\Library\\InvalidPageContents -->
<g id="node38" class="node"><title>\\Library\\InvalidPageContents</title>
<a xlink:href="system.library.Template.html" xlink:title="InvalidPageContents" target="_parent">
<polygon fill="none" stroke="black" points="344.5,-888 199.5,-888 199.5,-852 344.5,-852 344.5,-888"/>
<text text-anchor="middle" x="272" y="-867.2" font-family="Courier,monospace" font-size="11.00">InvalidPageContents</text>
</a>
</g>
<!-- \\Library\\InvalidPageContents&#45;&gt;\\Exception -->
<g id="edge52" class="edge"><title>\\Library\\InvalidPageContents&#45;&gt;\\Exception</title>
<path fill="none" stroke="black" d="M199.242,-877.27C186.253,-881.414 173.755,-887.658 164,-897 63.0399,-993.68 51.2358,-1176.44 50.6005,-1246.59"/>
<polygon fill="none" stroke="black" points="47.1001,-1246.85 50.5824,-1256.86 54.1001,-1246.86 47.1001,-1246.85"/>
</g>
<!-- \\Library\\MissingThemeConfigException -->
<g id="node39" class="node"><title>\\Library\\MissingThemeConfigException</title>
<a xlink:href="system.library.Template.html" xlink:title="MissingThemeConfigException" target="_parent">
<polygon fill="none" stroke="black" points="371.5,-834 172.5,-834 172.5,-798 371.5,-798 371.5,-834"/>
<text text-anchor="middle" x="272" y="-813.2" font-family="Courier,monospace" font-size="11.00">MissingThemeConfigException</text>
</a>
</g>
<!-- \\Library\\MissingThemeConfigException&#45;&gt;\\Exception -->
<g id="edge54" class="edge"><title>\\Library\\MissingThemeConfigException&#45;&gt;\\Exception</title>
<path fill="none" stroke="black" d="M175.171,-834.041C171.159,-836.657 167.401,-839.628 164,-843 105.528,-900.967 66.2918,-1160.16 54.6264,-1246.74"/>
<polygon fill="none" stroke="black" points="51.1278,-1246.5 53.2816,-1256.87 58.067,-1247.42 51.1278,-1246.5"/>
</g>
<!-- \\Library\\View -->
<g id="node40" class="node"><title>\\Library\\View</title>
<a xlink:href="system.library.View.html" xlink:title="View" target="_parent">
<polygon fill="none" stroke="black" points="299,-780 245,-780 245,-744 299,-744 299,-780"/>
<text text-anchor="middle" x="272" y="-759.2" font-family="Courier,monospace" font-size="11.00">View</text>
</a>
</g>
<!-- \\Library\\ViewNotFoundException -->
<g id="node41" class="node"><title>\\Library\\ViewNotFoundException</title>
<a xlink:href="system.library.View.html" xlink:title="ViewNotFoundException" target="_parent">
<polygon fill="none" stroke="black" points="351,-726 193,-726 193,-690 351,-690 351,-726"/>
<text text-anchor="middle" x="272" y="-705.2" font-family="Courier,monospace" font-size="11.00">ViewNotFoundException</text>
</a>
</g>
<!-- \\Library\\ViewNotFoundException&#45;&gt;\\Exception -->
<g id="edge56" class="edge"><title>\\Library\\ViewNotFoundException&#45;&gt;\\Exception</title>
<path fill="none" stroke="black" d="M192.877,-716.662C182.067,-720.818 171.96,-726.707 164,-735 91.997,-810.009 60.848,-1146.19 53.046,-1246.59"/>
<polygon fill="none" stroke="black" points="49.5333,-1246.63 52.266,-1256.87 56.5132,-1247.16 49.5333,-1246.63"/>
</g>
<!-- \\Library\\InvalidViewContents -->
<g id="node42" class="node"><title>\\Library\\InvalidViewContents</title>
<a xlink:href="system.library.View.html" xlink:title="InvalidViewContents" target="_parent">
<polygon fill="none" stroke="black" points="344.5,-672 199.5,-672 199.5,-636 344.5,-636 344.5,-672"/>
<text text-anchor="middle" x="272" y="-651.2" font-family="Courier,monospace" font-size="11.00">InvalidViewContents</text>
</a>
</g>
<!-- \\Library\\InvalidViewContents&#45;&gt;\\Exception -->
<g id="edge58" class="edge"><title>\\Library\\InvalidViewContents&#45;&gt;\\Exception</title>
<path fill="none" stroke="black" d="M199.294,-660.237C186.064,-664.434 173.461,-670.962 164,-681 85.1609,-764.649 58.5142,-1139.88 52.4585,-1246.6"/>
<polygon fill="none" stroke="black" points="48.9467,-1246.72 51.8915,-1256.9 55.9361,-1247.11 48.9467,-1246.72"/>
</g>
<!-- \\Library\\ZipArchive -->
<g id="node43" class="node"><title>\\Library\\ZipArchive</title>
<a xlink:href="system.library.ZipArchive.html" xlink:title="ZipArchive" target="_parent">
<polygon fill="none" stroke="black" points="314,-618 230,-618 230,-582 314,-582 314,-618"/>
<text text-anchor="middle" x="272" y="-597.2" font-family="Courier,monospace" font-size="11.00">ZipArchive</text>
</a>
</g>
<!-- \\Wowlib\\Driver -->
<g id="node45" class="node"><title>\\Wowlib\\Driver</title>
<a xlink:href="system.wowlib.drivers.Driver.html" xlink:title="Driver" target="_parent">
<polygon fill="none" stroke="black" points="572.5,-2876 515.5,-2876 515.5,-2840 572.5,-2840 572.5,-2876"/>
<text text-anchor="middle" x="544" y="-2855.2" font-family="Courier,monospace" font-size="11.00">Driver</text>
</a>
</g>
<!-- \\Wowlib\\Wowlib -->
<g id="node46" class="node"><title>\\Wowlib\\Wowlib</title>
<a xlink:href="system.wowlib.Wowlib.html" xlink:title="Wowlib" target="_parent">
<polygon fill="none" stroke="black" points="572.5,-2822 515.5,-2822 515.5,-2786 572.5,-2786 572.5,-2822"/>
<text text-anchor="middle" x="544" y="-2801.2" font-family="Courier,monospace" font-size="11.00">Wowlib</text>
</a>
</g>
<!-- \\ArgumentException -->
<g id="node48" class="node"><title>\\ArgumentException</title>
<a xlink:href="system.core.exceptions.ArgumentException.html" xlink:title="ArgumentException" target="_parent">
<polygon fill="none" stroke="black" points="609.5,-376 478.5,-376 478.5,-340 609.5,-340 609.5,-376"/>
<text text-anchor="middle" x="544" y="-355.2" font-family="Courier,monospace" font-size="11.00">ArgumentException</text>
</a>
</g>
<!-- \\ArgumentException&#45;&gt;\\Exception -->
<g id="edge14" class="edge"><title>\\ArgumentException&#45;&gt;\\Exception</title>
<path fill="none" stroke="black" d="M478.458,-340.795C466.96,-337.617 455.109,-334.268 444,-331 367.539,-308.51 332.632,-224.123 273,-277"/>
</g>
<!-- \\ControllerNotFoundException -->
<g id="node49" class="node"><title>\\ControllerNotFoundException</title>
<a xlink:href="system.core.exceptions.ControllerNotFoundException.html" xlink:title="ControllerNotFoundException" target="_parent">
<polygon fill="none" stroke="black" points="643.5,-538 444.5,-538 444.5,-502 643.5,-502 643.5,-538"/>
<text text-anchor="middle" x="544" y="-517.2" font-family="Courier,monospace" font-size="11.00">ControllerNotFoundException</text>
</a>
</g>
<!-- \\NotFoundException -->
<g id="node55" class="node"><title>\\NotFoundException</title>
<a xlink:href="system.core.exceptions.NotFoundException.html" xlink:title="NotFoundException" target="_parent">
<polygon fill="none" stroke="black" points="337.5,-511 206.5,-511 206.5,-475 337.5,-475 337.5,-511"/>
<text text-anchor="middle" x="272" y="-490.2" font-family="Courier,monospace" font-size="11.00">NotFoundException</text>
</a>
</g>
<!-- \\ControllerNotFoundException&#45;&gt;\\NotFoundException -->
<g id="edge16" class="edge"><title>\\ControllerNotFoundException&#45;&gt;\\NotFoundException</title>
<path fill="none" stroke="black" d="M444.378,-510.138C412.576,-506.958 377.863,-503.486 348.047,-500.505"/>
<polygon fill="none" stroke="black" points="348.016,-496.984 337.717,-499.472 347.319,-503.949 348.016,-496.984"/>
</g>
<!-- \\DirectoryNotFoundException -->
<g id="node50" class="node"><title>\\DirectoryNotFoundException</title>
<a xlink:href="system.core.exceptions.DirectoryNotFoundException.html" xlink:title="DirectoryNotFoundException" target="_parent">
<polygon fill="none" stroke="black" points="640,-322 448,-322 448,-286 640,-286 640,-322"/>
<text text-anchor="middle" x="544" y="-301.2" font-family="Courier,monospace" font-size="11.00">DirectoryNotFoundException</text>
</a>
</g>
<!-- \\DirectoryNotFoundException&#45;&gt;\\Exception -->
<g id="edge18" class="edge"><title>\\DirectoryNotFoundException&#45;&gt;\\Exception</title>
<path fill="none" stroke="black" d="M474.008,-285.965C403.957,-269.549 301.815,-251.449 273,-277"/>
</g>
<!-- \\FileNotFoundException -->
<g id="node51" class="node"><title>\\FileNotFoundException</title>
<a xlink:href="system.core.exceptions.FileNotFoundException.html" xlink:title="FileNotFoundException" target="_parent">
<polygon fill="none" stroke="black" points="623,-268 465,-268 465,-232 623,-232 623,-268"/>
<text text-anchor="middle" x="544" y="-247.2" font-family="Courier,monospace" font-size="11.00">FileNotFoundException</text>
</a>
</g>
<!-- \\FileNotFoundException&#45;&gt;\\Exception -->
<g id="edge20" class="edge"><title>\\FileNotFoundException&#45;&gt;\\Exception</title>
<path fill="none" stroke="black" d="M464.793,-235.396C405.044,-229.003 324.461,-231.368 273,-277"/>
</g>
<!-- \\IOException -->
<g id="node52" class="node"><title>\\IOException</title>
<a xlink:href="system.core.exceptions.IOException.html" xlink:title="IOException" target="_parent">
<polygon fill="none" stroke="black" points="589.5,-214 498.5,-214 498.5,-178 589.5,-178 589.5,-214"/>
<text text-anchor="middle" x="544" y="-193.2" font-family="Courier,monospace" font-size="11.00">IOException</text>
</a>
</g>
<!-- \\IOException&#45;&gt;\\Exception -->
<g id="edge22" class="edge"><title>\\IOException&#45;&gt;\\Exception</title>
<path fill="none" stroke="black" d="M498.259,-198.13C439.721,-203.192 337.08,-220.18 273,-277"/>
</g>
<!-- \\MethodNotFoundException -->
<g id="node53" class="node"><title>\\MethodNotFoundException</title>
<a xlink:href="system.core.exceptions.MethodNotFoundException.html" xlink:title="MethodNotFoundException" target="_parent">
<polygon fill="none" stroke="black" points="630,-484 458,-484 458,-448 630,-448 630,-484"/>
<text text-anchor="middle" x="544" y="-463.2" font-family="Courier,monospace" font-size="11.00">MethodNotFoundException</text>
</a>
</g>
<!-- \\MethodNotFoundException&#45;&gt;\\NotFoundException -->
<g id="edge24" class="edge"><title>\\MethodNotFoundException&#45;&gt;\\NotFoundException</title>
<path fill="none" stroke="black" d="M457.941,-474.506C422.64,-478.036 382.035,-482.096 347.882,-485.512"/>
<polygon fill="none" stroke="black" points="347.105,-482.072 337.503,-486.55 347.801,-489.037 347.105,-482.072"/>
</g>
<!-- \\ModuleNotFoundException -->
<g id="node54" class="node"><title>\\ModuleNotFoundException</title>
<a xlink:href="system.core.exceptions.ModuleNotFoundException.html" xlink:title="ModuleNotFoundException" target="_parent">
<polygon fill="none" stroke="black" points="630,-430 458,-430 458,-394 630,-394 630,-430"/>
<text text-anchor="middle" x="544" y="-409.2" font-family="Courier,monospace" font-size="11.00">ModuleNotFoundException</text>
</a>
</g>
<!-- \\ModuleNotFoundException&#45;&gt;\\NotFoundException -->
<g id="edge26" class="edge"><title>\\ModuleNotFoundException&#45;&gt;\\NotFoundException</title>
<path fill="none" stroke="black" d="M470.284,-430.055C461.345,-432.794 452.404,-435.789 444,-439 414.293,-450.35 410.053,-460.598 380,-471 369.709,-474.562 358.651,-477.633 347.688,-480.254"/>
<polygon fill="none" stroke="black" points="346.645,-476.902 337.672,-482.535 348.199,-483.727 346.645,-476.902"/>
</g>
<!-- \\NotFoundException&#45;&gt;\\Exception -->
<g id="edge28" class="edge"><title>\\NotFoundException&#45;&gt;\\Exception</title>
<path fill="none" stroke="black" d="M232.233,-511.014C208.669,-524.029 180.107,-543.903 164,-570 91.8626,-686.877 59.9411,-1129.68 52.665,-1246.57"/>
<polygon fill="none" stroke="black" points="49.1539,-1246.64 52.0373,-1256.84 56.1408,-1247.07 49.1539,-1246.64"/>
</g>
<!-- \\SecurityException -->
<g id="node56" class="node"><title>\\SecurityException</title>
<a xlink:href="system.core.exceptions.SecurityException.html" xlink:title="SecurityException" target="_parent">
<polygon fill="none" stroke="black" points="609.5,-160 478.5,-160 478.5,-124 609.5,-124 609.5,-160"/>
<text text-anchor="middle" x="544" y="-139.2" font-family="Courier,monospace" font-size="11.00">SecurityException</text>
</a>
</g>
<!-- \\SecurityException&#45;&gt;\\Exception -->
<g id="edge30" class="edge"><title>\\SecurityException&#45;&gt;\\Exception</title>
<path fill="none" stroke="black" d="M478.394,-156.633C466.732,-160.11 454.843,-164.226 444,-169 361.733,-205.225 340.256,-217.363 273,-277"/>
<path fill="none" stroke="black" d="M271,-277C198.777,-341.042 195.002,-374.587 164,-466 64.5828,-759.148 52.5493,-1140.53 51.1617,-1246.57"/>
<polygon fill="none" stroke="black" points="47.6597,-1246.74 51.0509,-1256.78 54.6593,-1246.82 47.6597,-1246.74"/>
</g>
<!-- \\Plexis -->
<g id="node57" class="node"><title>\\Plexis</title>
<a xlink:href="system.Plexis.html" xlink:title="Plexis" target="_parent">
<polygon fill="none" stroke="black" points="572.5,-106 515.5,-106 515.5,-70 572.5,-70 572.5,-106"/>
<text text-anchor="middle" x="544" y="-85.2" font-family="Courier,monospace" font-size="11.00">Plexis</text>
</a>
</g>
<!-- \\System -->
<g id="node58" class="node"><title>\\System</title>
<a xlink:href="system.System.html" xlink:title="System" target="_parent">
<polygon fill="none" stroke="black" points="572.5,-52 515.5,-52 515.5,-16 572.5,-16 572.5,-52"/>
<text text-anchor="middle" x="544" y="-31.2" font-family="Courier,monospace" font-size="11.00">System</text>
</a>
</g>
</g>
</svg>
