<?xml version="1.0" encoding="UTF-8" standalone="no"?>
<!DOCTYPE svg PUBLIC "-//W3C//DTD SVG 1.1//EN"
 "http://www.w3.org/Graphics/SVG/1.1/DTD/svg11.dtd">
<!-- Generated by graphviz version 2.28.0 (20110507.0327)
 -->
<!-- Title: G Pages: 1 -->
<svg width="668pt" height="3054pt"
 viewBox="0.00 0.00 668.00 3054.00" xmlns="http://www.w3.org/2000/svg" xmlns:xlink="http://www.w3.org/1999/xlink">
<g id="graph1" class="graph" transform="scale(1 1) rotate(0) translate(4 3050)">
<title>G</title>
<polygon fill="white" stroke="white" points="-4,5 -4,-3050 665,-3050 665,5 -4,5"/>
<g id="graph2" class="cluster"><title>cluster_Core</title>
<polyline fill="none" stroke="gray" points="186,-1734 358,-1734 "/>
<path fill="none" stroke="gray" d="M358,-1734C364,-1734 370,-1740 370,-1746"/>
<polyline fill="none" stroke="gray" points="370,-1746 370,-2820 "/>
<path fill="none" stroke="gray" d="M370,-2820C370,-2826 364,-2832 358,-2832"/>
<polyline fill="none" stroke="gray" points="358,-2832 186,-2832 "/>
<path fill="none" stroke="gray" d="M186,-2832C180,-2832 174,-2826 174,-2820"/>
<polyline fill="none" stroke="gray" points="174,-2820 174,-1746 "/>
<path fill="none" stroke="gray" d="M174,-1746C174,-1740 180,-1734 186,-1734"/>
<text text-anchor="middle" x="272" y="-2819.2" font-family="Times New Roman,serif" font-size="11.00" fill="gray">Core</text>
</g>
<g id="graph3" class="cluster"><title>cluster_Core\IO</title>
<polyline fill="none" stroke="gray" points="224,-2678 320,-2678 "/>
<path fill="none" stroke="gray" d="M320,-2678C326,-2678 332,-2684 332,-2690"/>
<polyline fill="none" stroke="gray" points="332,-2690 332,-2792 "/>
<path fill="none" stroke="gray" d="M332,-2792C332,-2798 326,-2804 320,-2804"/>
<polyline fill="none" stroke="gray" points="320,-2804 224,-2804 "/>
<path fill="none" stroke="gray" d="M224,-2804C218,-2804 212,-2798 212,-2792"/>
<polyline fill="none" stroke="gray" points="212,-2792 212,-2690 "/>
<path fill="none" stroke="gray" d="M212,-2690C212,-2684 218,-2678 224,-2678"/>
<text text-anchor="middle" x="272" y="-2791.2" font-family="Times New Roman,serif" font-size="11.00" fill="gray">IO</text>
</g>
<g id="graph4" class="cluster"><title>cluster_Core\Router</title>
<polyline fill="none" stroke="gray" points="217,-2598 327,-2598 "/>
<path fill="none" stroke="gray" d="M327,-2598C333,-2598 339,-2604 339,-2610"/>
<polyline fill="none" stroke="gray" points="339,-2610 339,-2658 "/>
<path fill="none" stroke="gray" d="M339,-2658C339,-2664 333,-2670 327,-2670"/>
<polyline fill="none" stroke="gray" points="327,-2670 217,-2670 "/>
<path fill="none" stroke="gray" d="M217,-2670C211,-2670 205,-2664 205,-2658"/>
<polyline fill="none" stroke="gray" points="205,-2658 205,-2610 "/>
<path fill="none" stroke="gray" d="M205,-2610C205,-2604 211,-2598 217,-2598"/>
<text text-anchor="middle" x="272" y="-2657.2" font-family="Times New Roman,serif" font-size="11.00" fill="gray">Router</text>
</g>
<g id="graph5" class="cluster"><title>cluster_Database</title>
<polyline fill="none" stroke="gray" points="519,-2832 569,-2832 "/>
<path fill="none" stroke="gray" d="M569,-2832C575,-2832 581,-2838 581,-2844"/>
<polyline fill="none" stroke="gray" points="581,-2844 581,-2892 "/>
<path fill="none" stroke="gray" d="M581,-2892C581,-2898 575,-2904 569,-2904"/>
<polyline fill="none" stroke="gray" points="569,-2904 519,-2904 "/>
<path fill="none" stroke="gray" d="M519,-2904C513,-2904 507,-2898 507,-2892"/>
<polyline fill="none" stroke="gray" points="507,-2892 507,-2844 "/>
<path fill="none" stroke="gray" d="M507,-2844C507,-2838 513,-2832 519,-2832"/>
<text text-anchor="middle" x="544" y="-2891.2" font-family="Times New Roman,serif" font-size="11.00" fill="gray">Database</text>
</g>
<g id="graph6" class="cluster"><title>cluster_Library</title>
<polyline fill="none" stroke="gray" points="176,-628 368,-628 "/>
<path fill="none" stroke="gray" d="M368,-628C374,-628 380,-634 380,-640"/>
<polyline fill="none" stroke="gray" points="380,-640 380,-1714 "/>
<path fill="none" stroke="gray" d="M380,-1714C380,-1720 374,-1726 368,-1726"/>
<polyline fill="none" stroke="gray" points="368,-1726 176,-1726 "/>
<path fill="none" stroke="gray" d="M176,-1726C170,-1726 164,-1720 164,-1714"/>
<polyline fill="none" stroke="gray" points="164,-1714 164,-640 "/>
<path fill="none" stroke="gray" d="M164,-640C164,-634 170,-628 176,-628"/>
<text text-anchor="middle" x="272" y="-1713.2" font-family="Times New Roman,serif" font-size="11.00" fill="gray">Library</text>
</g>
<g id="graph7" class="cluster"><title>cluster_Wowlib</title>
<polyline fill="none" stroke="gray" points="519,-2912 569,-2912 "/>
<path fill="none" stroke="gray" d="M569,-2912C575,-2912 581,-2918 581,-2924"/>
<polyline fill="none" stroke="gray" points="581,-2924 581,-3026 "/>
<path fill="none" stroke="gray" d="M581,-3026C581,-3032 575,-3038 569,-3038"/>
<polyline fill="none" stroke="gray" points="569,-3038 519,-3038 "/>
<path fill="none" stroke="gray" d="M519,-3038C513,-3038 507,-3032 507,-3026"/>
<polyline fill="none" stroke="gray" points="507,-3026 507,-2924 "/>
<path fill="none" stroke="gray" d="M507,-2924C507,-2918 513,-2912 519,-2912"/>
<text text-anchor="middle" x="544" y="-3025.2" font-family="Times New Roman,serif" font-size="11.00" fill="gray">Wowlib</text>
</g>
<g id="graph8" class="cluster"><title>cluster_global</title>
<polyline fill="none" stroke="gray" points="210,-8 640,-8 "/>
<path fill="none" stroke="gray" d="M640,-8C646,-8 652,-14 652,-20"/>
<polyline fill="none" stroke="gray" points="652,-20 652,-608 "/>
<path fill="none" stroke="gray" d="M652,-608C652,-614 646,-620 640,-620"/>
<polyline fill="none" stroke="gray" points="640,-620 210,-620 "/>
<path fill="none" stroke="gray" d="M210,-620C204,-620 198,-614 198,-608"/>
<polyline fill="none" stroke="gray" points="198,-608 198,-20 "/>
<path fill="none" stroke="gray" d="M198,-20C198,-14 204,-8 210,-8"/>
<text text-anchor="middle" x="425" y="-607.2" font-family="Times New Roman,serif" font-size="11.00" fill="gray">global</text>
</g>
<!-- \\Core\\IO\\DirectoryInfo -->
<g id="node3" class="node"><title>\\Core\\IO\\DirectoryInfo</title>
<a xlink:href="system.core.io.DirectoryInfo.html" xlink:title="DirectoryInfo" target="_parent">
<polygon fill="none" stroke="black" points="324,-2776 220,-2776 220,-2740 324,-2740 324,-2776"/>
<text text-anchor="middle" x="272" y="-2755.2" font-family="Courier,monospace" font-size="11.00">DirectoryInfo</text>
</a>
</g>
<!-- \\Core\\IO\\FileInfo -->
<g id="node4" class="node"><title>\\Core\\IO\\FileInfo</title>
<a xlink:href="system.core.io.FileInfo.html" xlink:title="FileInfo" target="_parent">
<polygon fill="none" stroke="black" points="307.5,-2722 236.5,-2722 236.5,-2686 307.5,-2686 307.5,-2722"/>
<text text-anchor="middle" x="272" y="-2701.2" font-family="Courier,monospace" font-size="11.00">FileInfo</text>
</a>
</g>
<!-- \\Core\\Router\\RouteCollection -->
<g id="node6" class="node"><title>\\Core\\Router\\RouteCollection</title>
<a xlink:href="system.core.router.RouteCollection.html" xlink:title="RouteCollection" target="_parent">
<polygon fill="none" stroke="black" points="331,-2642 213,-2642 213,-2606 331,-2606 331,-2642"/>
<text text-anchor="middle" x="272" y="-2621.2" font-family="Courier,monospace" font-size="11.00">RouteCollection</text>
</a>
</g>
<!-- \\Core\\AutoLoader -->
<g id="node7" class="node"><title>\\Core\\AutoLoader</title>
<a xlink:href="system.core.AutoLoader.html" xlink:title="AutoLoader" target="_parent">
<polygon fill="none" stroke="black" points="314,-2588 230,-2588 230,-2552 314,-2552 314,-2588"/>
<text text-anchor="middle" x="272" y="-2567.2" font-family="Courier,monospace" font-size="11.00">AutoLoader</text>
</a>
</g>
<!-- \\Core\\Benchmark -->
<g id="node8" class="node"><title>\\Core\\Benchmark</title>
<a xlink:href="system.core.Benchmark.html" xlink:title="Benchmark" target="_parent">
<polygon fill="none" stroke="black" points="310.5,-2534 233.5,-2534 233.5,-2498 310.5,-2498 310.5,-2534"/>
<text text-anchor="middle" x="272" y="-2513.2" font-family="Courier,monospace" font-size="11.00">Benchmark</text>
</a>
</g>
<!-- \\Core\\Config -->
<g id="node9" class="node"><title>\\Core\\Config</title>
<a xlink:href="system.core.Config.html" xlink:title="Config" target="_parent">
<polygon fill="none" stroke="black" points="300.5,-2480 243.5,-2480 243.5,-2444 300.5,-2444 300.5,-2480"/>
<text text-anchor="middle" x="272" y="-2459.2" font-family="Courier,monospace" font-size="11.00">Config</text>
</a>
</g>
<!-- \\Core\\Controller -->
<g id="node10" class="node"><title>\\Core\\Controller</title>
<a xlink:href="system.core.Controller.html" xlink:title="Controller" target="_parent">
<polygon fill="none" stroke="black" points="314,-2426 230,-2426 230,-2390 314,-2390 314,-2426"/>
<text text-anchor="middle" x="272" y="-2405.2" font-family="Courier,monospace" font-size="11.00">Controller</text>
</a>
</g>
<!-- \\Core\\Database -->
<g id="node11" class="node"><title>\\Core\\Database</title>
<a xlink:href="system.core.Database.html" xlink:title="Database" target="_parent">
<polygon fill="none" stroke="black" points="307.5,-2372 236.5,-2372 236.5,-2336 307.5,-2336 307.5,-2372"/>
<text text-anchor="middle" x="272" y="-2351.2" font-family="Courier,monospace" font-size="11.00">Database</text>
</a>
</g>
<!-- \\Core\\DatabaseConnectError -->
<g id="node12" class="node"><title>\\Core\\DatabaseConnectError</title>
<a xlink:href="system.core.Database.html" xlink:title="DatabaseConnectError" target="_parent">
<polygon fill="none" stroke="black" points="348,-2318 196,-2318 196,-2282 348,-2282 348,-2318"/>
<text text-anchor="middle" x="272" y="-2297.2" font-family="Courier,monospace" font-size="11.00">DatabaseConnectError</text>
</a>
</g>
<!-- \\Exception -->
<g id="node65" class="node"><title>\\Exception</title>
<ellipse fill="none" stroke="black" cx="50" cy="-1329" rx="50.0912" ry="18"/>
<text text-anchor="middle" x="50" y="-1325.3" font-family="Times New Roman,serif" font-size="14.00" fill="gray">\Exception</text>
</g>
<!-- \\Core\\DatabaseConnectError&#45;&gt;\\Exception -->
<g id="edge11" class="edge"><title>\\Core\\DatabaseConnectError&#45;&gt;\\Exception</title>
<path fill="none" stroke="black" d="M195.741,-2293.25C183.677,-2288.99 172.414,-2282.57 164,-2273 101.787,-2202.26 60.6715,-1507.01 52.4988,-1357.31"/>
<polygon fill="none" stroke="black" points="55.9824,-1356.91 51.9473,-1347.11 48.9926,-1357.28 55.9824,-1356.91"/>
</g>
<!-- \\Core\\ErrorHandler -->
<g id="node13" class="node"><title>\\Core\\ErrorHandler</title>
<a xlink:href="system.core.ErrorHandler.html" xlink:title="ErrorHandler" target="_parent">
<polygon fill="none" stroke="black" points="321,-2264 223,-2264 223,-2228 321,-2228 321,-2264"/>
<text text-anchor="middle" x="272" y="-2243.2" font-family="Courier,monospace" font-size="11.00">ErrorHandler</text>
</a>
</g>
<!-- \\Core\\EventHandler -->
<g id="node14" class="node"><title>\\Core\\EventHandler</title>
<a xlink:href="system.core.EventHandler.html" xlink:title="EventHandler" target="_parent">
<polygon fill="none" stroke="black" points="321,-2210 223,-2210 223,-2174 321,-2174 321,-2210"/>
<text text-anchor="middle" x="272" y="-2189.2" font-family="Courier,monospace" font-size="11.00">EventHandler</text>
</a>
</g>
<!-- \\Core\\InvalidCallableException -->
<g id="node15" class="node"><title>\\Core\\InvalidCallableException</title>
<a xlink:href="system.core.EventHandler.html" xlink:title="InvalidCallableException" target="_parent">
<polygon fill="none" stroke="black" points="361.5,-2156 182.5,-2156 182.5,-2120 361.5,-2120 361.5,-2156"/>
<text text-anchor="middle" x="272" y="-2135.2" font-family="Courier,monospace" font-size="11.00">InvalidCallableException</text>
</a>
</g>
<!-- \\Core\\InvalidCallableException&#45;&gt;\\Exception -->
<g id="edge13" class="edge"><title>\\Core\\InvalidCallableException&#45;&gt;\\Exception</title>
<path fill="none" stroke="black" d="M182.483,-2125.2C175.578,-2121.49 169.259,-2116.83 164,-2111 61.151,-1996.9 51.7713,-1483.88 51.0341,-1357.3"/>
<polygon fill="none" stroke="black" points="54.5339,-1357.22 50.9896,-1347.24 47.5339,-1357.25 54.5339,-1357.22"/>
</g>
<!-- \\Core\\Filesystem -->
<g id="node16" class="node"><title>\\Core\\Filesystem</title>
<a xlink:href="system.core.Filesystem.html" xlink:title="Filesystem" target="_parent">
<polygon fill="none" stroke="black" points="314,-2102 230,-2102 230,-2066 314,-2066 314,-2102"/>
<text text-anchor="middle" x="272" y="-2081.2" font-family="Courier,monospace" font-size="11.00">Filesystem</text>
</a>
</g>
<!-- \\Core\\Module -->
<g id="node17" class="node"><title>\\Core\\Module</title>
<a xlink:href="system.core.Module.html" xlink:title="Module" target="_parent">
<polygon fill="none" stroke="black" points="300.5,-2048 243.5,-2048 243.5,-2012 300.5,-2012 300.5,-2048"/>
<text text-anchor="middle" x="272" y="-2027.2" font-family="Courier,monospace" font-size="11.00">Module</text>
</a>
</g>
<!-- \\Core\\Request -->
<g id="node18" class="node"><title>\\Core\\Request</title>
<a xlink:href="system.core.Request.html" xlink:title="Request" target="_parent">
<polygon fill="none" stroke="black" points="304,-1994 240,-1994 240,-1958 304,-1958 304,-1994"/>
<text text-anchor="middle" x="272" y="-1973.2" font-family="Courier,monospace" font-size="11.00">Request</text>
</a>
</g>
<!-- \\Core\\Response -->
<g id="node19" class="node"><title>\\Core\\Response</title>
<a xlink:href="system.core.Response.html" xlink:title="Response" target="_parent">
<polygon fill="none" stroke="black" points="307.5,-1940 236.5,-1940 236.5,-1904 307.5,-1904 307.5,-1940"/>
<text text-anchor="middle" x="272" y="-1919.2" font-family="Courier,monospace" font-size="11.00">Response</text>
</a>
</g>
<!-- \\Core\\OutputSentException -->
<g id="node20" class="node"><title>\\Core\\OutputSentException</title>
<a xlink:href="system.core.Response.html" xlink:title="OutputSentException" target="_parent">
<polygon fill="none" stroke="black" points="344.5,-1886 199.5,-1886 199.5,-1850 344.5,-1850 344.5,-1886"/>
<text text-anchor="middle" x="272" y="-1865.2" font-family="Courier,monospace" font-size="11.00">OutputSentException</text>
</a>
</g>
<!-- \\Core\\OutputSentException&#45;&gt;\\Exception -->
<g id="edge35" class="edge"><title>\\Core\\OutputSentException&#45;&gt;\\Exception</title>
<path fill="none" stroke="black" d="M199.244,-1861.46C186.098,-1857.28 173.54,-1850.83 164,-1841 95.4795,-1770.4 62.1056,-1453.96 53.3791,-1357.2"/>
<polygon fill="none" stroke="black" points="56.8461,-1356.67 52.4793,-1347.02 49.8733,-1357.29 56.8461,-1356.67"/>
</g>
<!-- \\Core\\Router -->
<g id="node21" class="node"><title>\\Core\\Router</title>
<a xlink:href="system.core.Router.html" xlink:title="Router" target="_parent">
<polygon fill="none" stroke="black" points="300.5,-1832 243.5,-1832 243.5,-1796 300.5,-1796 300.5,-1832"/>
<text text-anchor="middle" x="272" y="-1811.2" font-family="Courier,monospace" font-size="11.00">Router</text>
</a>
</g>
<!-- \\Core\\XssFilter -->
<g id="node22" class="node"><title>\\Core\\XssFilter</title>
<a xlink:href="system.core.XssFilter.html" xlink:title="XssFilter" target="_parent">
<polygon fill="none" stroke="black" points="310.5,-1778 233.5,-1778 233.5,-1742 310.5,-1742 310.5,-1778"/>
<text text-anchor="middle" x="272" y="-1757.2" font-family="Courier,monospace" font-size="11.00">XssFilter</text>
</a>
</g>
<!-- \\Database\\Driver -->
<g id="node24" class="node"><title>\\Database\\Driver</title>
<a xlink:href="system.core.database.Driver.html" xlink:title="Driver" target="_parent">
<polygon fill="none" stroke="black" points="572.5,-2876 515.5,-2876 515.5,-2840 572.5,-2840 572.5,-2876"/>
<text text-anchor="middle" x="544" y="-2855.2" font-family="Courier,monospace" font-size="11.00">Driver</text>
</a>
</g>
<!-- \\PDO -->
<g id="node63" class="node"><title>\\PDO</title>
<ellipse fill="none" stroke="black" cx="272" cy="-2858" rx="31.6951" ry="18"/>
<text text-anchor="middle" x="272" y="-2854.3" font-family="Times New Roman,serif" font-size="14.00" fill="gray">\PDO</text>
</g>
<!-- \\Database\\Driver&#45;&gt;\\PDO -->
<g id="edge9" class="edge"><title>\\Database\\Driver&#45;&gt;\\PDO</title>
<path fill="none" stroke="black" d="M515.374,-2858C467.772,-2858 370.048,-2858 314.324,-2858"/>
<polygon fill="none" stroke="black" points="314.098,-2854.5 304.098,-2858 314.097,-2861.5 314.098,-2854.5"/>
</g>
<!-- \\Library\\Auth -->
<g id="node26" class="node"><title>\\Library\\Auth</title>
<a xlink:href="system.library.Auth.html" xlink:title="Auth" target="_parent">
<polygon fill="none" stroke="black" points="299,-1698 245,-1698 245,-1662 299,-1662 299,-1698"/>
<text text-anchor="middle" x="272" y="-1677.2" font-family="Courier,monospace" font-size="11.00">Auth</text>
</a>
</g>
<!-- \\Library\\InvalidUsernameException -->
<g id="node27" class="node"><title>\\Library\\InvalidUsernameException</title>
<a xlink:href="system.library.Auth.html" xlink:title="InvalidUsernameException" target="_parent">
<polygon fill="none" stroke="black" points="361.5,-1644 182.5,-1644 182.5,-1608 361.5,-1608 361.5,-1644"/>
<text text-anchor="middle" x="272" y="-1623.2" font-family="Courier,monospace" font-size="11.00">InvalidUsernameException</text>
</a>
</g>
<!-- \\Library\\InvalidUsernameException&#45;&gt;\\Exception -->
<g id="edge37" class="edge"><title>\\Library\\InvalidUsernameException&#45;&gt;\\Exception</title>
<path fill="none" stroke="black" d="M182.376,-1610.94C175.754,-1607.68 169.517,-1603.75 164,-1599 89.0873,-1534.51 62.7756,-1412.12 54.459,-1357.07"/>
<polygon fill="none" stroke="black" points="57.8993,-1356.4 53.0266,-1346.99 50.969,-1357.39 57.8993,-1356.4"/>
</g>
<!-- \\Library\\InvalidPasswordException -->
<g id="node28" class="node"><title>\\Library\\InvalidPasswordException</title>
<a xlink:href="system.library.Auth.html" xlink:title="InvalidPasswordException" target="_parent">
<polygon fill="none" stroke="black" points="361.5,-1590 182.5,-1590 182.5,-1554 361.5,-1554 361.5,-1590"/>
<text text-anchor="middle" x="272" y="-1569.2" font-family="Courier,monospace" font-size="11.00">InvalidPasswordException</text>
</a>
</g>
<!-- \\Library\\InvalidPasswordException&#45;&gt;\\Exception -->
<g id="edge39" class="edge"><title>\\Library\\InvalidPasswordException&#45;&gt;\\Exception</title>
<path fill="none" stroke="black" d="M182.277,-1556.17C175.757,-1553.08 169.565,-1549.39 164,-1545 101.889,-1496 70.233,-1403.38 57.6735,-1356.98"/>
<polygon fill="none" stroke="black" points="60.9872,-1355.81 55.0808,-1347.02 54.2129,-1357.58 60.9872,-1355.81"/>
</g>
<!-- \\Library\\InvalidEmailException -->
<g id="node29" class="node"><title>\\Library\\InvalidEmailException</title>
<a xlink:href="system.library.Auth.html" xlink:title="InvalidEmailException" target="_parent">
<polygon fill="none" stroke="black" points="351,-1536 193,-1536 193,-1500 351,-1500 351,-1536"/>
<text text-anchor="middle" x="272" y="-1515.2" font-family="Courier,monospace" font-size="11.00">InvalidEmailException</text>
</a>
</g>
<!-- \\Library\\InvalidEmailException&#45;&gt;\\Exception -->
<g id="edge41" class="edge"><title>\\Library\\InvalidEmailException&#45;&gt;\\Exception</title>
<path fill="none" stroke="black" d="M192.729,-1505.28C182.554,-1501.65 172.67,-1496.99 164,-1491 114.224,-1456.62 79.3895,-1392.69 62.5411,-1356.27"/>
<polygon fill="none" stroke="black" points="65.5632,-1354.45 58.2685,-1346.77 59.1795,-1357.33 65.5632,-1354.45"/>
</g>
<!-- \\Library\\InvalidCredentialsException -->
<g id="node30" class="node"><title>\\Library\\InvalidCredentialsException</title>
<a xlink:href="system.library.Auth.html" xlink:title="InvalidCredentialsException" target="_parent">
<polygon fill="none" stroke="black" points="371.5,-1482 172.5,-1482 172.5,-1446 371.5,-1446 371.5,-1482"/>
<text text-anchor="middle" x="272" y="-1461.2" font-family="Courier,monospace" font-size="11.00">InvalidCredentialsException</text>
</a>
</g>
<!-- \\Library\\InvalidCredentialsException&#45;&gt;\\Exception -->
<g id="edge43" class="edge"><title>\\Library\\InvalidCredentialsException&#45;&gt;\\Exception</title>
<path fill="none" stroke="black" d="M183.403,-1445.95C176.67,-1443.35 170.12,-1440.38 164,-1437 126.018,-1416 91.393,-1379.09 70.7528,-1354.35"/>
<polygon fill="none" stroke="black" points="73.3442,-1351.99 64.3046,-1346.46 67.9252,-1356.42 73.3442,-1351.99"/>
</g>
<!-- \\Library\\AccountExistsException -->
<g id="node31" class="node"><title>\\Library\\AccountExistsException</title>
<a xlink:href="system.library.Auth.html" xlink:title="AccountExistsException" target="_parent">
<polygon fill="none" stroke="black" points="354.5,-1428 189.5,-1428 189.5,-1392 354.5,-1392 354.5,-1428"/>
<text text-anchor="middle" x="272" y="-1407.2" font-family="Courier,monospace" font-size="11.00">AccountExistsException</text>
</a>
</g>
<!-- \\Library\\AccountExistsException&#45;&gt;\\Exception -->
<g id="edge45" class="edge"><title>\\Library\\AccountExistsException&#45;&gt;\\Exception</title>
<path fill="none" stroke="black" d="M191.866,-1391.92C182.391,-1389.21 172.92,-1386.22 164,-1383 137.516,-1373.44 108.91,-1359.73 87.1068,-1348.52"/>
<polygon fill="none" stroke="black" points="88.6913,-1345.4 78.2048,-1343.89 85.4599,-1351.61 88.6913,-1345.4"/>
</g>
<!-- \\Library\\AccountBannedException -->
<g id="node32" class="node"><title>\\Library\\AccountBannedException</title>
<a xlink:href="system.library.Auth.html" xlink:title="AccountBannedException" target="_parent">
<polygon fill="none" stroke="black" points="354.5,-1374 189.5,-1374 189.5,-1338 354.5,-1338 354.5,-1374"/>
<text text-anchor="middle" x="272" y="-1353.2" font-family="Courier,monospace" font-size="11.00">AccountBannedException</text>
</a>
</g>
<!-- \\Library\\AccountBannedException&#45;&gt;\\Exception -->
<g id="edge47" class="edge"><title>\\Library\\AccountBannedException&#45;&gt;\\Exception</title>
<path fill="none" stroke="black" d="M189.393,-1345.98C162.201,-1342.65 132.525,-1339.01 107.651,-1335.95"/>
<polygon fill="none" stroke="black" points="108.014,-1332.47 97.6621,-1334.73 107.161,-1339.42 108.014,-1332.47"/>
</g>
<!-- \\Library\\IpBannedException -->
<g id="node33" class="node"><title>\\Library\\IpBannedException</title>
<a xlink:href="system.library.Auth.html" xlink:title="IpBannedException" target="_parent">
<polygon fill="none" stroke="black" points="337.5,-1320 206.5,-1320 206.5,-1284 337.5,-1284 337.5,-1320"/>
<text text-anchor="middle" x="272" y="-1299.2" font-family="Courier,monospace" font-size="11.00">IpBannedException</text>
</a>
</g>
<!-- \\Library\\IpBannedException&#45;&gt;\\Exception -->
<g id="edge49" class="edge"><title>\\Library\\IpBannedException&#45;&gt;\\Exception</title>
<path fill="none" stroke="black" d="M206.479,-1309.92C175.154,-1313.76 137.855,-1318.34 107.644,-1322.05"/>
<polygon fill="none" stroke="black" points="107.188,-1318.58 97.6884,-1323.27 108.04,-1325.53 107.188,-1318.58"/>
</g>
<!-- \\Library\\Cache -->
<g id="node34" class="node"><title>\\Library\\Cache</title>
<a xlink:href="system.library.Cache.html" xlink:title="Cache" target="_parent">
<polygon fill="none" stroke="black" points="299,-1266 245,-1266 245,-1230 299,-1230 299,-1266"/>
<text text-anchor="middle" x="272" y="-1245.2" font-family="Courier,monospace" font-size="11.00">Cache</text>
</a>
</g>
<!-- \\Library\\Mime -->
<g id="node35" class="node"><title>\\Library\\Mime</title>
<a xlink:href="system.library.Mime.html" xlink:title="Mime" target="_parent">
<polygon fill="none" stroke="black" points="299,-1212 245,-1212 245,-1176 299,-1176 299,-1212"/>
<text text-anchor="middle" x="272" y="-1191.2" font-family="Courier,monospace" font-size="11.00">Mime</text>
</a>
</g>
<!-- \\Library\\Parser -->
<g id="node36" class="node"><title>\\Library\\Parser</title>
<a xlink:href="system.library.Parser.html" xlink:title="Parser" target="_parent">
<polygon fill="none" stroke="black" points="300.5,-1158 243.5,-1158 243.5,-1122 300.5,-1122 300.5,-1158"/>
<text text-anchor="middle" x="272" y="-1137.2" font-family="Courier,monospace" font-size="11.00">Parser</text>
</a>
</g>
<!-- \\Library\\Template -->
<g id="node37" class="node"><title>\\Library\\Template</title>
<a xlink:href="system.library.Template.html" xlink:title="Template" target="_parent">
<polygon fill="none" stroke="black" points="307.5,-1104 236.5,-1104 236.5,-1068 307.5,-1068 307.5,-1104"/>
<text text-anchor="middle" x="272" y="-1083.2" font-family="Courier,monospace" font-size="11.00">Template</text>
</a>
</g>
<!-- \\Library\\ThemeNotSetException -->
<g id="node38" class="node"><title>\\Library\\ThemeNotSetException</title>
<a xlink:href="system.library.Template.html" xlink:title="ThemeNotSetException" target="_parent">
<polygon fill="none" stroke="black" points="348,-1050 196,-1050 196,-1014 348,-1014 348,-1050"/>
<text text-anchor="middle" x="272" y="-1029.2" font-family="Courier,monospace" font-size="11.00">ThemeNotSetException</text>
</a>
</g>
<!-- \\Library\\ThemeNotSetException&#45;&gt;\\Exception -->
<g id="edge51" class="edge"><title>\\Library\\ThemeNotSetException&#45;&gt;\\Exception</title>
<path fill="none" stroke="black" d="M195.848,-1041.47C184.272,-1045.49 173.147,-1051.13 164,-1059 89.0873,-1123.49 62.7756,-1245.88 54.459,-1300.93"/>
<polygon fill="none" stroke="black" points="50.969,-1300.61 53.0266,-1311.01 57.8993,-1301.6 50.969,-1300.61"/>
</g>
<!-- \\Library\\InvalidThemePathException -->
<g id="node39" class="node"><title>\\Library\\InvalidThemePathException</title>
<a xlink:href="system.library.Template.html" xlink:title="InvalidThemePathException" target="_parent">
<polygon fill="none" stroke="black" points="364.5,-996 179.5,-996 179.5,-960 364.5,-960 364.5,-996"/>
<text text-anchor="middle" x="272" y="-975.2" font-family="Courier,monospace" font-size="11.00">InvalidThemePathException</text>
</a>
</g>
<!-- \\Library\\InvalidThemePathException&#45;&gt;\\Exception -->
<g id="edge53" class="edge"><title>\\Library\\InvalidThemePathException&#45;&gt;\\Exception</title>
<path fill="none" stroke="black" d="M179.492,-994.052C173.903,-997.114 168.664,-1000.73 164,-1005 76.1402,-1085.42 56.5918,-1237.85 52.2435,-1300.76"/>
<polygon fill="none" stroke="black" points="48.7497,-1300.55 51.6311,-1310.74 55.7366,-1300.98 48.7497,-1300.55"/>
</g>
<!-- \\Library\\InvalidPageContents -->
<g id="node40" class="node"><title>\\Library\\InvalidPageContents</title>
<a xlink:href="system.library.Template.html" xlink:title="InvalidPageContents" target="_parent">
<polygon fill="none" stroke="black" points="344.5,-942 199.5,-942 199.5,-906 344.5,-906 344.5,-942"/>
<text text-anchor="middle" x="272" y="-921.2" font-family="Courier,monospace" font-size="11.00">InvalidPageContents</text>
</a>
</g>
<!-- \\Library\\InvalidPageContents&#45;&gt;\\Exception -->
<g id="edge55" class="edge"><title>\\Library\\InvalidPageContents&#45;&gt;\\Exception</title>
<path fill="none" stroke="black" d="M199.242,-931.27C186.253,-935.414 173.755,-941.658 164,-951 63.0399,-1047.68 51.2358,-1230.44 50.6005,-1300.59"/>
<polygon fill="none" stroke="black" points="47.1001,-1300.85 50.5824,-1310.86 54.1001,-1300.86 47.1001,-1300.85"/>
</g>
<!-- \\Library\\MissingThemeConfigException -->
<g id="node41" class="node"><title>\\Library\\MissingThemeConfigException</title>
<a xlink:href="system.library.Template.html" xlink:title="MissingThemeConfigException" target="_parent">
<polygon fill="none" stroke="black" points="371.5,-888 172.5,-888 172.5,-852 371.5,-852 371.5,-888"/>
<text text-anchor="middle" x="272" y="-867.2" font-family="Courier,monospace" font-size="11.00">MissingThemeConfigException</text>
</a>
</g>
<!-- \\Library\\MissingThemeConfigException&#45;&gt;\\Exception -->
<g id="edge57" class="edge"><title>\\Library\\MissingThemeConfigException&#45;&gt;\\Exception</title>
<path fill="none" stroke="black" d="M175.171,-888.041C171.159,-890.657 167.401,-893.628 164,-897 105.528,-954.967 66.2918,-1214.16 54.6264,-1300.74"/>
<polygon fill="none" stroke="black" points="51.1278,-1300.5 53.2816,-1310.87 58.067,-1301.42 51.1278,-1300.5"/>
</g>
<!-- \\Library\\View -->
<g id="node42" class="node"><title>\\Library\\View</title>
<a xlink:href="system.library.View.html" xlink:title="View" target="_parent">
<polygon fill="none" stroke="black" points="299,-834 245,-834 245,-798 299,-798 299,-834"/>
<text text-anchor="middle" x="272" y="-813.2" font-family="Courier,monospace" font-size="11.00">View</text>
</a>
</g>
<!-- \\Library\\ViewNotFoundException -->
<g id="node43" class="node"><title>\\Library\\ViewNotFoundException</title>
<a xlink:href="system.library.View.html" xlink:title="ViewNotFoundException" target="_parent">
<polygon fill="none" stroke="black" points="351,-780 193,-780 193,-744 351,-744 351,-780"/>
<text text-anchor="middle" x="272" y="-759.2" font-family="Courier,monospace" font-size="11.00">ViewNotFoundException</text>
</a>
</g>
<!-- \\Library\\ViewNotFoundException&#45;&gt;\\Exception -->
<g id="edge59" class="edge"><title>\\Library\\ViewNotFoundException&#45;&gt;\\Exception</title>
<path fill="none" stroke="black" d="M192.877,-770.662C182.067,-774.818 171.96,-780.707 164,-789 91.997,-864.009 60.848,-1200.19 53.046,-1300.59"/>
<polygon fill="none" stroke="black" points="49.5333,-1300.63 52.266,-1310.87 56.5132,-1301.16 49.5333,-1300.63"/>
</g>
<!-- \\Library\\InvalidViewContents -->
<g id="node44" class="node"><title>\\Library\\InvalidViewContents</title>
<a xlink:href="system.library.View.html" xlink:title="InvalidViewContents" target="_parent">
<polygon fill="none" stroke="black" points="344.5,-726 199.5,-726 199.5,-690 344.5,-690 344.5,-726"/>
<text text-anchor="middle" x="272" y="-705.2" font-family="Courier,monospace" font-size="11.00">InvalidViewContents</text>
</a>
</g>
<!-- \\Library\\InvalidViewContents&#45;&gt;\\Exception -->
<g id="edge61" class="edge"><title>\\Library\\InvalidViewContents&#45;&gt;\\Exception</title>
<path fill="none" stroke="black" d="M199.294,-714.237C186.064,-718.434 173.461,-724.962 164,-735 85.1609,-818.649 58.5142,-1193.88 52.4585,-1300.6"/>
<polygon fill="none" stroke="black" points="48.9467,-1300.72 51.8915,-1310.9 55.9361,-1301.11 48.9467,-1300.72"/>
</g>
<!-- \\Library\\ZipArchive -->
<g id="node45" class="node"><title>\\Library\\ZipArchive</title>
<a xlink:href="system.library.ZipArchive.html" xlink:title="ZipArchive" target="_parent">
<polygon fill="none" stroke="black" points="314,-672 230,-672 230,-636 314,-636 314,-672"/>
<text text-anchor="middle" x="272" y="-651.2" font-family="Courier,monospace" font-size="11.00">ZipArchive</text>
</a>
</g>
<!-- \\Wowlib\\Driver -->
<g id="node47" class="node"><title>\\Wowlib\\Driver</title>
<a xlink:href="system.wowlib.drivers.Driver.html" xlink:title="Driver" target="_parent">
<polygon fill="none" stroke="black" points="572.5,-3010 515.5,-3010 515.5,-2974 572.5,-2974 572.5,-3010"/>
<text text-anchor="middle" x="544" y="-2989.2" font-family="Courier,monospace" font-size="11.00">Driver</text>
</a>
</g>
<!-- \\Wowlib\\Wowlib -->
<g id="node48" class="node"><title>\\Wowlib\\Wowlib</title>
<a xlink:href="system.wowlib.Wowlib.html" xlink:title="Wowlib" target="_parent">
<polygon fill="none" stroke="black" points="572.5,-2956 515.5,-2956 515.5,-2920 572.5,-2920 572.5,-2956"/>
<text text-anchor="middle" x="544" y="-2935.2" font-family="Courier,monospace" font-size="11.00">Wowlib</text>
</a>
</g>
<!-- \\ArgumentException -->
<g id="node50" class="node"><title>\\ArgumentException</title>
<a xlink:href="system.core.exceptions.ArgumentException.html" xlink:title="ArgumentException" target="_parent">
<polygon fill="none" stroke="black" points="609.5,-430 478.5,-430 478.5,-394 609.5,-394 609.5,-430"/>
<text text-anchor="middle" x="544" y="-409.2" font-family="Courier,monospace" font-size="11.00">ArgumentException</text>
</a>
</g>
<!-- \\ArgumentException&#45;&gt;\\Exception -->
<g id="edge15" class="edge"><title>\\ArgumentException&#45;&gt;\\Exception</title>
<path fill="none" stroke="black" d="M478.307,-396.124C466.769,-392.793 454.944,-389.049 444,-385 365.128,-355.823 335.765,-248.031 273,-304"/>
</g>
<!-- \\ControllerNotFoundException -->
<g id="node51" class="node"><title>\\ControllerNotFoundException</title>
<a xlink:href="system.core.exceptions.ControllerNotFoundException.html" xlink:title="ControllerNotFoundException" target="_parent">
<polygon fill="none" stroke="black" points="643.5,-592 444.5,-592 444.5,-556 643.5,-556 643.5,-592"/>
<text text-anchor="middle" x="544" y="-571.2" font-family="Courier,monospace" font-size="11.00">ControllerNotFoundException</text>
</a>
</g>
<!-- \\NotFoundException -->
<g id="node58" class="node"><title>\\NotFoundException</title>
<a xlink:href="system.core.exceptions.NotFoundException.html" xlink:title="NotFoundException" target="_parent">
<polygon fill="none" stroke="black" points="337.5,-565 206.5,-565 206.5,-529 337.5,-529 337.5,-565"/>
<text text-anchor="middle" x="272" y="-544.2" font-family="Courier,monospace" font-size="11.00">NotFoundException</text>
</a>
</g>
<!-- \\ControllerNotFoundException&#45;&gt;\\NotFoundException -->
<g id="edge17" class="edge"><title>\\ControllerNotFoundException&#45;&gt;\\NotFoundException</title>
<path fill="none" stroke="black" d="M444.378,-564.138C412.576,-560.958 377.863,-557.486 348.047,-554.505"/>
<polygon fill="none" stroke="black" points="348.016,-550.984 337.717,-553.472 347.319,-557.949 348.016,-550.984"/>
</g>
<!-- \\DirectoryNotFoundException -->
<g id="node52" class="node"><title>\\DirectoryNotFoundException</title>
<a xlink:href="system.core.exceptions.DirectoryNotFoundException.html" xlink:title="DirectoryNotFoundException" target="_parent">
<polygon fill="none" stroke="black" points="640,-376 448,-376 448,-340 640,-340 640,-376"/>
<text text-anchor="middle" x="544" y="-355.2" font-family="Courier,monospace" font-size="11.00">DirectoryNotFoundException</text>
</a>
</g>
<!-- \\DirectoryNotFoundException&#45;&gt;\\Exception -->
<g id="edge19" class="edge"><title>\\DirectoryNotFoundException&#45;&gt;\\Exception</title>
<path fill="none" stroke="black" d="M468.045,-339.976C390.729,-321.841 280.37,-297.428 273,-304"/>
</g>
<!-- \\FileNotFoundException -->
<g id="node53" class="node"><title>\\FileNotFoundException</title>
<a xlink:href="system.core.exceptions.FileNotFoundException.html" xlink:title="FileNotFoundException" target="_parent">
<polygon fill="none" stroke="black" points="623,-322 465,-322 465,-286 623,-286 623,-322"/>
<text text-anchor="middle" x="544" y="-301.2" font-family="Courier,monospace" font-size="11.00">FileNotFoundException</text>
</a>
</g>
<!-- \\FileNotFoundException&#45;&gt;\\Exception -->
<g id="edge21" class="edge"><title>\\FileNotFoundException&#45;&gt;\\Exception</title>
<path fill="none" stroke="black" d="M464.75,-292.937C395.186,-285.024 300.376,-279.588 273,-304"/>
</g>
<!-- \\InvalidArgumentException -->
<g id="node54" class="node"><title>\\InvalidArgumentException</title>
<a xlink:href="system.core.exceptions.InvalidArgumentException.html" xlink:title="InvalidArgumentException" target="_parent">
<polygon fill="none" stroke="black" points="633.5,-268 454.5,-268 454.5,-232 633.5,-232 633.5,-268"/>
<text text-anchor="middle" x="544" y="-247.2" font-family="Courier,monospace" font-size="11.00">InvalidArgumentException</text>
</a>
</g>
<!-- \\InvalidArgumentException&#45;&gt;\\Exception -->
<g id="edge23" class="edge"><title>\\InvalidArgumentException&#45;&gt;\\Exception</title>
<path fill="none" stroke="black" d="M454.218,-245.891C396.038,-247.968 321.969,-260.334 273,-304"/>
</g>
<!-- \\IOException -->
<g id="node55" class="node"><title>\\IOException</title>
<a xlink:href="system.core.exceptions.IOException.html" xlink:title="IOException" target="_parent">
<polygon fill="none" stroke="black" points="589.5,-214 498.5,-214 498.5,-178 589.5,-178 589.5,-214"/>
<text text-anchor="middle" x="544" y="-193.2" font-family="Courier,monospace" font-size="11.00">IOException</text>
</a>
</g>
<!-- \\IOException&#45;&gt;\\Exception -->
<g id="edge25" class="edge"><title>\\IOException&#45;&gt;\\Exception</title>
<path fill="none" stroke="black" d="M498.321,-204.041C440.317,-216.487 338.753,-245.367 273,-304"/>
</g>
<!-- \\MethodNotFoundException -->
<g id="node56" class="node"><title>\\MethodNotFoundException</title>
<a xlink:href="system.core.exceptions.MethodNotFoundException.html" xlink:title="MethodNotFoundException" target="_parent">
<polygon fill="none" stroke="black" points="630,-538 458,-538 458,-502 630,-502 630,-538"/>
<text text-anchor="middle" x="544" y="-517.2" font-family="Courier,monospace" font-size="11.00">MethodNotFoundException</text>
</a>
</g>
<!-- \\MethodNotFoundException&#45;&gt;\\NotFoundException -->
<g id="edge27" class="edge"><title>\\MethodNotFoundException&#45;&gt;\\NotFoundException</title>
<path fill="none" stroke="black" d="M457.941,-528.506C422.64,-532.036 382.035,-536.096 347.882,-539.512"/>
<polygon fill="none" stroke="black" points="347.105,-536.072 337.503,-540.55 347.801,-543.037 347.105,-536.072"/>
</g>
<!-- \\ModuleNotFoundException -->
<g id="node57" class="node"><title>\\ModuleNotFoundException</title>
<a xlink:href="system.core.exceptions.ModuleNotFoundException.html" xlink:title="ModuleNotFoundException" target="_parent">
<polygon fill="none" stroke="black" points="630,-484 458,-484 458,-448 630,-448 630,-484"/>
<text text-anchor="middle" x="544" y="-463.2" font-family="Courier,monospace" font-size="11.00">ModuleNotFoundException</text>
</a>
</g>
<!-- \\ModuleNotFoundException&#45;&gt;\\NotFoundException -->
<g id="edge29" class="edge"><title>\\ModuleNotFoundException&#45;&gt;\\NotFoundException</title>
<path fill="none" stroke="black" d="M470.284,-484.055C461.345,-486.794 452.404,-489.789 444,-493 414.293,-504.35 410.053,-514.598 380,-525 369.709,-528.562 358.651,-531.633 347.688,-534.254"/>
<polygon fill="none" stroke="black" points="346.645,-530.902 337.672,-536.535 348.199,-537.727 346.645,-530.902"/>
</g>
<!-- \\NotFoundException&#45;&gt;\\Exception -->
<g id="edge31" class="edge"><title>\\NotFoundException&#45;&gt;\\Exception</title>
<path fill="none" stroke="black" d="M232.233,-565.014C208.669,-578.029 180.107,-597.903 164,-624 91.8626,-740.877 59.9411,-1183.68 52.665,-1300.57"/>
<polygon fill="none" stroke="black" points="49.1539,-1300.64 52.0373,-1310.84 56.1408,-1301.07 49.1539,-1300.64"/>
</g>
<!-- \\SecurityException -->
<g id="node59" class="node"><title>\\SecurityException</title>
<a xlink:href="system.core.exceptions.SecurityException.html" xlink:title="SecurityException" target="_parent">
<polygon fill="none" stroke="black" points="609.5,-160 478.5,-160 478.5,-124 609.5,-124 609.5,-160"/>
<text text-anchor="middle" x="544" y="-139.2" font-family="Courier,monospace" font-size="11.00">SecurityException</text>
</a>
</g>
<!-- \\SecurityException&#45;&gt;\\Exception -->
<g id="edge33" class="edge"><title>\\SecurityException&#45;&gt;\\Exception</title>
<path fill="none" stroke="black" d="M478.482,-155.548C466.693,-159.146 454.736,-163.583 444,-169 357.55,-212.617 345.27,-239.556 273,-304"/>
<path fill="none" stroke="black" d="M271,-304C191.04,-375.302 195.594,-417.631 164,-520 72.7122,-815.78 54.9453,-1195.31 51.6913,-1300.74"/>
<polygon fill="none" stroke="black" points="48.1884,-1300.79 51.3977,-1310.89 55.1855,-1301 48.1884,-1300.79"/>
</g>
<!-- \\Plexis -->
<g id="node60" class="node"><title>\\Plexis</title>
<a xlink:href="system.Plexis.html" xlink:title="Plexis" target="_parent">
<polygon fill="none" stroke="black" points="572.5,-106 515.5,-106 515.5,-70 572.5,-70 572.5,-106"/>
<text text-anchor="middle" x="544" y="-85.2" font-family="Courier,monospace" font-size="11.00">Plexis</text>
</a>
</g>
<!-- \\System -->
<g id="node61" class="node"><title>\\System</title>
<a xlink:href="system.System.html" xlink:title="System" target="_parent">
<polygon fill="none" stroke="black" points="572.5,-52 515.5,-52 515.5,-16 572.5,-16 572.5,-52"/>
<text text-anchor="middle" x="544" y="-31.2" font-family="Courier,monospace" font-size="11.00">System</text>
</a>
</g>
</g>
</svg>
