<?xml version="1.0" encoding="UTF-8" standalone="no"?>
<!DOCTYPE svg PUBLIC "-//W3C//DTD SVG 1.1//EN"
 "http://www.w3.org/Graphics/SVG/1.1/DTD/svg11.dtd">
<!-- Generated by graphviz version 2.28.0 (20110507.0327)
 -->
<!-- Title: G Pages: 1 -->
<svg width="396pt" height="3278pt"
 viewBox="0.00 0.00 396.00 3278.00" xmlns="http://www.w3.org/2000/svg" xmlns:xlink="http://www.w3.org/1999/xlink">
<g id="graph1" class="graph" transform="scale(1 1) rotate(0) translate(4 3274)">
<title>G</title>
<polygon fill="white" stroke="white" points="-4,5 -4,-3274 393,-3274 393,5 -4,5"/>
<g id="graph2" class="cluster"><title>cluster_Core</title>
<polyline fill="none" stroke="gray" points="186,-1896 358,-1896 "/>
<path fill="none" stroke="gray" d="M358,-1896C364,-1896 370,-1902 370,-1908"/>
<polyline fill="none" stroke="gray" points="370,-1908 370,-3036 "/>
<path fill="none" stroke="gray" d="M370,-3036C370,-3042 364,-3048 358,-3048"/>
<polyline fill="none" stroke="gray" points="358,-3048 186,-3048 "/>
<path fill="none" stroke="gray" d="M186,-3048C180,-3048 174,-3042 174,-3036"/>
<polyline fill="none" stroke="gray" points="174,-3036 174,-1908 "/>
<path fill="none" stroke="gray" d="M174,-1908C174,-1902 180,-1896 186,-1896"/>
<text text-anchor="middle" x="272" y="-3035.2" font-family="Times New Roman,serif" font-size="11.00" fill="gray">Core</text>
</g>
<g id="graph3" class="cluster"><title>cluster_Core\IO</title>
<polyline fill="none" stroke="gray" points="224,-2894 320,-2894 "/>
<path fill="none" stroke="gray" d="M320,-2894C326,-2894 332,-2900 332,-2906"/>
<polyline fill="none" stroke="gray" points="332,-2906 332,-3008 "/>
<path fill="none" stroke="gray" d="M332,-3008C332,-3014 326,-3020 320,-3020"/>
<polyline fill="none" stroke="gray" points="320,-3020 224,-3020 "/>
<path fill="none" stroke="gray" d="M224,-3020C218,-3020 212,-3014 212,-3008"/>
<polyline fill="none" stroke="gray" points="212,-3008 212,-2906 "/>
<path fill="none" stroke="gray" d="M212,-2906C212,-2900 218,-2894 224,-2894"/>
<text text-anchor="middle" x="272" y="-3007.2" font-family="Times New Roman,serif" font-size="11.00" fill="gray">IO</text>
</g>
<g id="graph4" class="cluster"><title>cluster_Core\Router</title>
<polyline fill="none" stroke="gray" points="217,-2760 327,-2760 "/>
<path fill="none" stroke="gray" d="M327,-2760C333,-2760 339,-2766 339,-2772"/>
<polyline fill="none" stroke="gray" points="339,-2772 339,-2874 "/>
<path fill="none" stroke="gray" d="M339,-2874C339,-2880 333,-2886 327,-2886"/>
<polyline fill="none" stroke="gray" points="327,-2886 217,-2886 "/>
<path fill="none" stroke="gray" d="M217,-2886C211,-2886 205,-2880 205,-2874"/>
<polyline fill="none" stroke="gray" points="205,-2874 205,-2772 "/>
<path fill="none" stroke="gray" d="M205,-2772C205,-2766 211,-2760 217,-2760"/>
<text text-anchor="middle" x="272" y="-2873.2" font-family="Times New Roman,serif" font-size="11.00" fill="gray">Router</text>
</g>
<g id="graph5" class="cluster"><title>cluster_Database</title>
<polyline fill="none" stroke="gray" points="247,-3056 297,-3056 "/>
<path fill="none" stroke="gray" d="M297,-3056C303,-3056 309,-3062 309,-3068"/>
<polyline fill="none" stroke="gray" points="309,-3068 309,-3116 "/>
<path fill="none" stroke="gray" d="M309,-3116C309,-3122 303,-3128 297,-3128"/>
<polyline fill="none" stroke="gray" points="297,-3128 247,-3128 "/>
<path fill="none" stroke="gray" d="M247,-3128C241,-3128 235,-3122 235,-3116"/>
<polyline fill="none" stroke="gray" points="235,-3116 235,-3068 "/>
<path fill="none" stroke="gray" d="M235,-3068C235,-3062 241,-3056 247,-3056"/>
<text text-anchor="middle" x="272" y="-3115.2" font-family="Times New Roman,serif" font-size="11.00" fill="gray">Database</text>
</g>
<g id="graph6" class="cluster"><title>cluster_Library</title>
<polyline fill="none" stroke="gray" points="176,-574 368,-574 "/>
<path fill="none" stroke="gray" d="M368,-574C374,-574 380,-580 380,-586"/>
<polyline fill="none" stroke="gray" points="380,-586 380,-1876 "/>
<path fill="none" stroke="gray" d="M380,-1876C380,-1882 374,-1888 368,-1888"/>
<polyline fill="none" stroke="gray" points="368,-1888 176,-1888 "/>
<path fill="none" stroke="gray" d="M176,-1888C170,-1888 164,-1882 164,-1876"/>
<polyline fill="none" stroke="gray" points="164,-1876 164,-586 "/>
<path fill="none" stroke="gray" d="M164,-586C164,-580 170,-574 176,-574"/>
<text text-anchor="middle" x="272" y="-1875.2" font-family="Times New Roman,serif" font-size="11.00" fill="gray">Library</text>
</g>
<g id="graph7" class="cluster"><title>cluster_Wowlib</title>
<polyline fill="none" stroke="gray" points="247,-3136 297,-3136 "/>
<path fill="none" stroke="gray" d="M297,-3136C303,-3136 309,-3142 309,-3148"/>
<polyline fill="none" stroke="gray" points="309,-3148 309,-3250 "/>
<path fill="none" stroke="gray" d="M309,-3250C309,-3256 303,-3262 297,-3262"/>
<polyline fill="none" stroke="gray" points="297,-3262 247,-3262 "/>
<path fill="none" stroke="gray" d="M247,-3262C241,-3262 235,-3256 235,-3250"/>
<polyline fill="none" stroke="gray" points="235,-3250 235,-3148 "/>
<path fill="none" stroke="gray" d="M235,-3148C235,-3142 241,-3136 247,-3136"/>
<text text-anchor="middle" x="272" y="-3249.2" font-family="Times New Roman,serif" font-size="11.00" fill="gray">Wowlib</text>
</g>
<g id="graph8" class="cluster"><title>cluster_global</title>
<polyline fill="none" stroke="gray" points="176,-8 368,-8 "/>
<path fill="none" stroke="gray" d="M368,-8C374,-8 380,-14 380,-20"/>
<polyline fill="none" stroke="gray" points="380,-20 380,-554 "/>
<path fill="none" stroke="gray" d="M380,-554C380,-560 374,-566 368,-566"/>
<polyline fill="none" stroke="gray" points="368,-566 176,-566 "/>
<path fill="none" stroke="gray" d="M176,-566C170,-566 164,-560 164,-554"/>
<polyline fill="none" stroke="gray" points="164,-554 164,-20 "/>
<path fill="none" stroke="gray" d="M164,-20C164,-14 170,-8 176,-8"/>
<text text-anchor="middle" x="272" y="-553.2" font-family="Times New Roman,serif" font-size="11.00" fill="gray">global</text>
</g>
<!-- \\Core\\IO\\DirectoryInfo -->
<g id="node3" class="node"><title>\\Core\\IO\\DirectoryInfo</title>
<a xlink:href="system.core.io.DirectoryInfo.html" xlink:title="DirectoryInfo" target="_parent">
<polygon fill="none" stroke="black" points="324,-2992 220,-2992 220,-2956 324,-2956 324,-2992"/>
<text text-anchor="middle" x="272" y="-2971.2" font-family="Courier,monospace" font-size="11.00">DirectoryInfo</text>
</a>
</g>
<!-- \\Core\\IO\\FileInfo -->
<g id="node4" class="node"><title>\\Core\\IO\\FileInfo</title>
<a xlink:href="system.core.io.FileInfo.html" xlink:title="FileInfo" target="_parent">
<polygon fill="none" stroke="black" points="307.5,-2938 236.5,-2938 236.5,-2902 307.5,-2902 307.5,-2938"/>
<text text-anchor="middle" x="272" y="-2917.2" font-family="Courier,monospace" font-size="11.00">FileInfo</text>
</a>
</g>
<!-- \\Core\\Router\\Route -->
<g id="node6" class="node"><title>\\Core\\Router\\Route</title>
<a xlink:href="system.core.router.Route.html" xlink:title="Route" target="_parent">
<polygon fill="none" stroke="black" points="299,-2858 245,-2858 245,-2822 299,-2822 299,-2858"/>
<text text-anchor="middle" x="272" y="-2837.2" font-family="Courier,monospace" font-size="11.00">Route</text>
</a>
</g>
<!-- \\Core\\Router\\RouteCollection -->
<g id="node7" class="node"><title>\\Core\\Router\\RouteCollection</title>
<a xlink:href="system.core.router.RouteCollection.html" xlink:title="RouteCollection" target="_parent">
<polygon fill="none" stroke="black" points="331,-2804 213,-2804 213,-2768 331,-2768 331,-2804"/>
<text text-anchor="middle" x="272" y="-2783.2" font-family="Courier,monospace" font-size="11.00">RouteCollection</text>
</a>
</g>
<!-- \\Core\\AutoLoader -->
<g id="node8" class="node"><title>\\Core\\AutoLoader</title>
<a xlink:href="system.core.AutoLoader.html" xlink:title="AutoLoader" target="_parent">
<polygon fill="none" stroke="black" points="314,-2750 230,-2750 230,-2714 314,-2714 314,-2750"/>
<text text-anchor="middle" x="272" y="-2729.2" font-family="Courier,monospace" font-size="11.00">AutoLoader</text>
</a>
</g>
<!-- \\Core\\Benchmark -->
<g id="node9" class="node"><title>\\Core\\Benchmark</title>
<a xlink:href="system.core.Benchmark.html" xlink:title="Benchmark" target="_parent">
<polygon fill="none" stroke="black" points="310.5,-2696 233.5,-2696 233.5,-2660 310.5,-2660 310.5,-2696"/>
<text text-anchor="middle" x="272" y="-2675.2" font-family="Courier,monospace" font-size="11.00">Benchmark</text>
</a>
</g>
<!-- \\Core\\Config -->
<g id="node10" class="node"><title>\\Core\\Config</title>
<a xlink:href="system.core.Config.html" xlink:title="Config" target="_parent">
<polygon fill="none" stroke="black" points="300.5,-2642 243.5,-2642 243.5,-2606 300.5,-2606 300.5,-2642"/>
<text text-anchor="middle" x="272" y="-2621.2" font-family="Courier,monospace" font-size="11.00">Config</text>
</a>
</g>
<!-- \\Core\\Controller -->
<g id="node11" class="node"><title>\\Core\\Controller</title>
<a xlink:href="system.core.Controller.html" xlink:title="Controller" target="_parent">
<polygon fill="none" stroke="black" points="314,-2588 230,-2588 230,-2552 314,-2552 314,-2588"/>
<text text-anchor="middle" x="272" y="-2567.2" font-family="Courier,monospace" font-size="11.00">Controller</text>
</a>
</g>
<!-- \\Core\\Database -->
<g id="node12" class="node"><title>\\Core\\Database</title>
<a xlink:href="system.core.Database.html" xlink:title="Database" target="_parent">
<polygon fill="none" stroke="black" points="307.5,-2534 236.5,-2534 236.5,-2498 307.5,-2498 307.5,-2534"/>
<text text-anchor="middle" x="272" y="-2513.2" font-family="Courier,monospace" font-size="11.00">Database</text>
</a>
</g>
<!-- \\Core\\DatabaseConnectError -->
<g id="node13" class="node"><title>\\Core\\DatabaseConnectError</title>
<a xlink:href="system.core.Database.html" xlink:title="DatabaseConnectError" target="_parent">
<polygon fill="none" stroke="black" points="348,-2480 196,-2480 196,-2444 348,-2444 348,-2480"/>
<text text-anchor="middle" x="272" y="-2459.2" font-family="Courier,monospace" font-size="11.00">DatabaseConnectError</text>
</a>
</g>
<!-- \\Exception -->
<g id="node68" class="node"><title>\\Exception</title>
<ellipse fill="none" stroke="black" cx="50" cy="-897" rx="50.0912" ry="18"/>
<text text-anchor="middle" x="50" y="-893.3" font-family="Times New Roman,serif" font-size="14.00" fill="gray">\Exception</text>
</g>
<!-- \\Core\\DatabaseConnectError&#45;&gt;\\Exception -->
<g id="edge11" class="edge"><title>\\Core\\DatabaseConnectError&#45;&gt;\\Exception</title>
<path fill="none" stroke="black" d="M195.92,-2455.75C183.686,-2451.46 172.316,-2444.9 164,-2435 63.0916,-2314.83 52.2351,-1124.88 51.1223,-925.325"/>
<polygon fill="none" stroke="black" points="54.6211,-925.064 51.0691,-915.083 47.6212,-925.101 54.6211,-925.064"/>
</g>
<!-- \\Core\\ErrorHandler -->
<g id="node14" class="node"><title>\\Core\\ErrorHandler</title>
<a xlink:href="system.core.ErrorHandler.html" xlink:title="ErrorHandler" target="_parent">
<polygon fill="none" stroke="black" points="321,-2426 223,-2426 223,-2390 321,-2390 321,-2426"/>
<text text-anchor="middle" x="272" y="-2405.2" font-family="Courier,monospace" font-size="11.00">ErrorHandler</text>
</a>
</g>
<!-- \\Core\\EventHandler -->
<g id="node15" class="node"><title>\\Core\\EventHandler</title>
<a xlink:href="system.core.EventHandler.html" xlink:title="EventHandler" target="_parent">
<polygon fill="none" stroke="black" points="321,-2372 223,-2372 223,-2336 321,-2336 321,-2372"/>
<text text-anchor="middle" x="272" y="-2351.2" font-family="Courier,monospace" font-size="11.00">EventHandler</text>
</a>
</g>
<!-- \\Core\\InvalidCallableException -->
<g id="node16" class="node"><title>\\Core\\InvalidCallableException</title>
<a xlink:href="system.core.EventHandler.html" xlink:title="InvalidCallableException" target="_parent">
<polygon fill="none" stroke="black" points="361.5,-2318 182.5,-2318 182.5,-2282 361.5,-2282 361.5,-2318"/>
<text text-anchor="middle" x="272" y="-2297.2" font-family="Courier,monospace" font-size="11.00">InvalidCallableException</text>
</a>
</g>
<!-- \\Core\\InvalidCallableException&#45;&gt;\\Exception -->
<g id="edge13" class="edge"><title>\\Core\\InvalidCallableException&#45;&gt;\\Exception</title>
<path fill="none" stroke="black" d="M182.348,-2287.68C175.424,-2283.88 169.139,-2279.07 164,-2273 73.7159,-2166.41 54.1592,-1113.04 51.3834,-925.488"/>
<polygon fill="none" stroke="black" points="54.8807,-925.273 51.237,-915.325 47.8815,-925.374 54.8807,-925.273"/>
</g>
<!-- \\Core\\Filesystem -->
<g id="node17" class="node"><title>\\Core\\Filesystem</title>
<a xlink:href="system.core.Filesystem.html" xlink:title="Filesystem" target="_parent">
<polygon fill="none" stroke="black" points="314,-2264 230,-2264 230,-2228 314,-2228 314,-2264"/>
<text text-anchor="middle" x="272" y="-2243.2" font-family="Courier,monospace" font-size="11.00">Filesystem</text>
</a>
</g>
<!-- \\Core\\Module -->
<g id="node18" class="node"><title>\\Core\\Module</title>
<a xlink:href="system.core.Module.html" xlink:title="Module" target="_parent">
<polygon fill="none" stroke="black" points="300.5,-2210 243.5,-2210 243.5,-2174 300.5,-2174 300.5,-2210"/>
<text text-anchor="middle" x="272" y="-2189.2" font-family="Courier,monospace" font-size="11.00">Module</text>
</a>
</g>
<!-- \\Core\\Request -->
<g id="node19" class="node"><title>\\Core\\Request</title>
<a xlink:href="system.core.Request.html" xlink:title="Request" target="_parent">
<polygon fill="none" stroke="black" points="304,-2156 240,-2156 240,-2120 304,-2120 304,-2156"/>
<text text-anchor="middle" x="272" y="-2135.2" font-family="Courier,monospace" font-size="11.00">Request</text>
</a>
</g>
<!-- \\Core\\Response -->
<g id="node20" class="node"><title>\\Core\\Response</title>
<a xlink:href="system.core.Response.html" xlink:title="Response" target="_parent">
<polygon fill="none" stroke="black" points="307.5,-2102 236.5,-2102 236.5,-2066 307.5,-2066 307.5,-2102"/>
<text text-anchor="middle" x="272" y="-2081.2" font-family="Courier,monospace" font-size="11.00">Response</text>
</a>
</g>
<!-- \\Core\\OutputSentException -->
<g id="node21" class="node"><title>\\Core\\OutputSentException</title>
<a xlink:href="system.core.Response.html" xlink:title="OutputSentException" target="_parent">
<polygon fill="none" stroke="black" points="344.5,-2048 199.5,-2048 199.5,-2012 344.5,-2012 344.5,-2048"/>
<text text-anchor="middle" x="272" y="-2027.2" font-family="Courier,monospace" font-size="11.00">OutputSentException</text>
</a>
</g>
<!-- \\Core\\OutputSentException&#45;&gt;\\Exception -->
<g id="edge31" class="edge"><title>\\Core\\OutputSentException&#45;&gt;\\Exception</title>
<path fill="none" stroke="black" d="M199.435,-2024.64C185.949,-2020.42 173.208,-2013.65 164,-2003 91.2857,-1918.87 57.9147,-1089.92 51.9788,-925.327"/>
<polygon fill="none" stroke="black" points="55.4667,-924.92 51.613,-915.051 48.4711,-925.169 55.4667,-924.92"/>
</g>
<!-- \\Core\\Router -->
<g id="node22" class="node"><title>\\Core\\Router</title>
<a xlink:href="system.core.Router.html" xlink:title="Router" target="_parent">
<polygon fill="none" stroke="black" points="300.5,-1994 243.5,-1994 243.5,-1958 300.5,-1958 300.5,-1994"/>
<text text-anchor="middle" x="272" y="-1973.2" font-family="Courier,monospace" font-size="11.00">Router</text>
</a>
</g>
<!-- \\Core\\XssFilter -->
<g id="node23" class="node"><title>\\Core\\XssFilter</title>
<a xlink:href="system.core.XssFilter.html" xlink:title="XssFilter" target="_parent">
<polygon fill="none" stroke="black" points="310.5,-1940 233.5,-1940 233.5,-1904 310.5,-1904 310.5,-1940"/>
<text text-anchor="middle" x="272" y="-1919.2" font-family="Courier,monospace" font-size="11.00">XssFilter</text>
</a>
</g>
<!-- \\Database\\Driver -->
<g id="node25" class="node"><title>\\Database\\Driver</title>
<a xlink:href="system.core.database.Driver.html" xlink:title="Driver" target="_parent">
<polygon fill="none" stroke="black" points="300.5,-3100 243.5,-3100 243.5,-3064 300.5,-3064 300.5,-3100"/>
<text text-anchor="middle" x="272" y="-3079.2" font-family="Courier,monospace" font-size="11.00">Driver</text>
</a>
</g>
<!-- \\PDO -->
<g id="node66" class="node"><title>\\PDO</title>
<ellipse fill="none" stroke="black" cx="50" cy="-3082" rx="31.6951" ry="18"/>
<text text-anchor="middle" x="50" y="-3078.3" font-family="Times New Roman,serif" font-size="14.00" fill="gray">\PDO</text>
</g>
<!-- \\Database\\Driver&#45;&gt;\\PDO -->
<g id="edge9" class="edge"><title>\\Database\\Driver&#45;&gt;\\PDO</title>
<path fill="none" stroke="black" d="M243.137,-3082C205.03,-3082 136.369,-3082 92.2793,-3082"/>
<polygon fill="none" stroke="black" points="92.1777,-3078.5 82.1777,-3082 92.1777,-3085.5 92.1777,-3078.5"/>
</g>
<!-- \\Library\\Auth -->
<g id="node27" class="node"><title>\\Library\\Auth</title>
<a xlink:href="system.library.Auth.html" xlink:title="Auth" target="_parent">
<polygon fill="none" stroke="black" points="299,-1860 245,-1860 245,-1824 299,-1824 299,-1860"/>
<text text-anchor="middle" x="272" y="-1839.2" font-family="Courier,monospace" font-size="11.00">Auth</text>
</a>
</g>
<!-- \\Library\\InvalidUsernameException -->
<g id="node28" class="node"><title>\\Library\\InvalidUsernameException</title>
<a xlink:href="system.library.Auth.html" xlink:title="InvalidUsernameException" target="_parent">
<polygon fill="none" stroke="black" points="361.5,-1806 182.5,-1806 182.5,-1770 361.5,-1770 361.5,-1806"/>
<text text-anchor="middle" x="272" y="-1785.2" font-family="Courier,monospace" font-size="11.00">InvalidUsernameException</text>
</a>
</g>
<!-- \\Library\\InvalidUsernameException&#45;&gt;\\Exception -->
<g id="edge33" class="edge"><title>\\Library\\InvalidUsernameException&#45;&gt;\\Exception</title>
<path fill="none" stroke="black" d="M182.4,-1775.28C175.512,-1771.55 169.22,-1766.87 164,-1761 50.7018,-1633.59 49.3156,-1060.68 50.6018,-925.598"/>
<polygon fill="none" stroke="black" points="54.1051,-925.301 50.7141,-915.263 47.1055,-925.225 54.1051,-925.301"/>
</g>
<!-- \\Library\\InvalidPasswordException -->
<g id="node29" class="node"><title>\\Library\\InvalidPasswordException</title>
<a xlink:href="system.library.Auth.html" xlink:title="InvalidPasswordException" target="_parent">
<polygon fill="none" stroke="black" points="361.5,-1752 182.5,-1752 182.5,-1716 361.5,-1716 361.5,-1752"/>
<text text-anchor="middle" x="272" y="-1731.2" font-family="Courier,monospace" font-size="11.00">InvalidPasswordException</text>
</a>
</g>
<!-- \\Library\\InvalidPasswordException&#45;&gt;\\Exception -->
<g id="edge35" class="edge"><title>\\Library\\InvalidPasswordException&#45;&gt;\\Exception</title>
<path fill="none" stroke="black" d="M182.453,-1721.23C175.554,-1717.51 169.245,-1712.85 164,-1707 57.6016,-1588.37 50.9113,-1055.07 50.8779,-925.457"/>
<polygon fill="none" stroke="black" points="54.3782,-925.177 50.8897,-915.173 47.3782,-925.169 54.3782,-925.177"/>
</g>
<!-- \\Library\\InvalidEmailException -->
<g id="node30" class="node"><title>\\Library\\InvalidEmailException</title>
<a xlink:href="system.library.Auth.html" xlink:title="InvalidEmailException" target="_parent">
<polygon fill="none" stroke="black" points="351,-1698 193,-1698 193,-1662 351,-1662 351,-1698"/>
<text text-anchor="middle" x="272" y="-1677.2" font-family="Courier,monospace" font-size="11.00">InvalidEmailException</text>
</a>
</g>
<!-- \\Library\\InvalidEmailException&#45;&gt;\\Exception -->
<g id="edge37" class="edge"><title>\\Library\\InvalidEmailException&#45;&gt;\\Exception</title>
<path fill="none" stroke="black" d="M192.987,-1671.95C182.028,-1667.73 171.846,-1661.66 164,-1653 64.5477,-1543.2 52.617,-1049.91 51.192,-925.542"/>
<polygon fill="none" stroke="black" points="54.6896,-925.274 51.0896,-915.31 47.69,-925.345 54.6896,-925.274"/>
</g>
<!-- \\Library\\InvalidCredentialsException -->
<g id="node31" class="node"><title>\\Library\\InvalidCredentialsException</title>
<a xlink:href="system.library.Auth.html" xlink:title="InvalidCredentialsException" target="_parent">
<polygon fill="none" stroke="black" points="371.5,-1644 172.5,-1644 172.5,-1608 371.5,-1608 371.5,-1644"/>
<text text-anchor="middle" x="272" y="-1623.2" font-family="Courier,monospace" font-size="11.00">InvalidCredentialsException</text>
</a>
</g>
<!-- \\Library\\InvalidCredentialsException&#45;&gt;\\Exception -->
<g id="edge39" class="edge"><title>\\Library\\InvalidCredentialsException&#45;&gt;\\Exception</title>
<path fill="none" stroke="black" d="M173.833,-1607.69C170.282,-1605.13 166.976,-1602.25 164,-1599 71.4164,-1497.93 54.427,-1043.97 51.5498,-925.404"/>
<polygon fill="none" stroke="black" points="55.0466,-925.219 51.3197,-915.301 48.0484,-925.378 55.0466,-925.219"/>
</g>
<!-- \\Library\\AccountExistsException -->
<g id="node32" class="node"><title>\\Library\\AccountExistsException</title>
<a xlink:href="system.library.Auth.html" xlink:title="AccountExistsException" target="_parent">
<polygon fill="none" stroke="black" points="354.5,-1590 189.5,-1590 189.5,-1554 354.5,-1554 354.5,-1590"/>
<text text-anchor="middle" x="272" y="-1569.2" font-family="Courier,monospace" font-size="11.00">AccountExistsException</text>
</a>
</g>
<!-- \\Library\\AccountExistsException&#45;&gt;\\Exception -->
<g id="edge41" class="edge"><title>\\Library\\AccountExistsException&#45;&gt;\\Exception</title>
<path fill="none" stroke="black" d="M189.42,-1562.26C179.868,-1558.17 171.038,-1552.58 164,-1545 78.2926,-1452.65 56.3826,-1038.09 51.9661,-925.369"/>
<polygon fill="none" stroke="black" points="55.4547,-924.997 51.5814,-915.136 48.4596,-925.26 55.4547,-924.997"/>
</g>
<!-- \\Library\\AccountBannedException -->
<g id="node33" class="node"><title>\\Library\\AccountBannedException</title>
<a xlink:href="system.library.Auth.html" xlink:title="AccountBannedException" target="_parent">
<polygon fill="none" stroke="black" points="354.5,-1536 189.5,-1536 189.5,-1500 354.5,-1500 354.5,-1536"/>
<text text-anchor="middle" x="272" y="-1515.2" font-family="Courier,monospace" font-size="11.00">AccountBannedException</text>
</a>
</g>
<!-- \\Library\\AccountBannedException&#45;&gt;\\Exception -->
<g id="edge43" class="edge"><title>\\Library\\AccountBannedException&#45;&gt;\\Exception</title>
<path fill="none" stroke="black" d="M189.263,-1508.05C179.795,-1503.98 171.03,-1498.46 164,-1491 85.1609,-1407.35 58.5142,-1032.12 52.4585,-925.396"/>
<polygon fill="none" stroke="black" points="55.9361,-924.892 51.8915,-915.1 48.9467,-925.277 55.9361,-924.892"/>
</g>
<!-- \\Library\\IpBannedException -->
<g id="node34" class="node"><title>\\Library\\IpBannedException</title>
<a xlink:href="system.library.Auth.html" xlink:title="IpBannedException" target="_parent">
<polygon fill="none" stroke="black" points="337.5,-1482 206.5,-1482 206.5,-1446 337.5,-1446 337.5,-1482"/>
<text text-anchor="middle" x="272" y="-1461.2" font-family="Courier,monospace" font-size="11.00">IpBannedException</text>
</a>
</g>
<!-- \\Library\\IpBannedException&#45;&gt;\\Exception -->
<g id="edge45" class="edge"><title>\\Library\\IpBannedException&#45;&gt;\\Exception</title>
<path fill="none" stroke="black" d="M206.372,-1459.61C190.679,-1455.59 175.211,-1448.68 164,-1437 91.997,-1361.99 60.848,-1025.81 53.046,-925.405"/>
<polygon fill="none" stroke="black" points="56.5132,-924.84 52.266,-915.133 49.5333,-925.37 56.5132,-924.84"/>
</g>
<!-- \\Library\\Breadcrumb -->
<g id="node35" class="node"><title>\\Library\\Breadcrumb</title>
<a xlink:href="system.library.Breadcrumb.html" xlink:title="Breadcrumb" target="_parent">
<polygon fill="none" stroke="black" points="314,-1428 230,-1428 230,-1392 314,-1392 314,-1428"/>
<text text-anchor="middle" x="272" y="-1407.2" font-family="Courier,monospace" font-size="11.00">Breadcrumb</text>
</a>
</g>
<!-- \\Library\\Cache -->
<g id="node36" class="node"><title>\\Library\\Cache</title>
<a xlink:href="system.library.Cache.html" xlink:title="Cache" target="_parent">
<polygon fill="none" stroke="black" points="299,-1374 245,-1374 245,-1338 299,-1338 299,-1374"/>
<text text-anchor="middle" x="272" y="-1353.2" font-family="Courier,monospace" font-size="11.00">Cache</text>
</a>
</g>
<!-- \\Library\\DataTables -->
<g id="node37" class="node"><title>\\Library\\DataTables</title>
<a xlink:href="system.library.DataTables.html" xlink:title="DataTables" target="_parent">
<polygon fill="none" stroke="black" points="314,-1320 230,-1320 230,-1284 314,-1284 314,-1320"/>
<text text-anchor="middle" x="272" y="-1299.2" font-family="Courier,monospace" font-size="11.00">DataTables</text>
</a>
</g>
<!-- \\Library\\DataTablesArray -->
<g id="node38" class="node"><title>\\Library\\DataTablesArray</title>
<a xlink:href="system.library.DataTablesArray.html" xlink:title="DataTablesArray" target="_parent">
<polygon fill="none" stroke="black" points="331,-1266 213,-1266 213,-1230 331,-1230 331,-1266"/>
<text text-anchor="middle" x="272" y="-1245.2" font-family="Courier,monospace" font-size="11.00">DataTablesArray</text>
</a>
</g>
<!-- \\Library\\Gravatar -->
<g id="node39" class="node"><title>\\Library\\Gravatar</title>
<a xlink:href="system.library.Gravatar.html" xlink:title="Gravatar" target="_parent">
<polygon fill="none" stroke="black" points="307.5,-1212 236.5,-1212 236.5,-1176 307.5,-1176 307.5,-1212"/>
<text text-anchor="middle" x="272" y="-1191.2" font-family="Courier,monospace" font-size="11.00">Gravatar</text>
</a>
</g>
<!-- \\Library\\Mime -->
<g id="node40" class="node"><title>\\Library\\Mime</title>
<a xlink:href="system.library.Mime.html" xlink:title="Mime" target="_parent">
<polygon fill="none" stroke="black" points="299,-1158 245,-1158 245,-1122 299,-1122 299,-1158"/>
<text text-anchor="middle" x="272" y="-1137.2" font-family="Courier,monospace" font-size="11.00">Mime</text>
</a>
</g>
<!-- \\Library\\Parser -->
<g id="node41" class="node"><title>\\Library\\Parser</title>
<a xlink:href="system.library.Parser.html" xlink:title="Parser" target="_parent">
<polygon fill="none" stroke="black" points="300.5,-1104 243.5,-1104 243.5,-1068 300.5,-1068 300.5,-1104"/>
<text text-anchor="middle" x="272" y="-1083.2" font-family="Courier,monospace" font-size="11.00">Parser</text>
</a>
</g>
<!-- \\Library\\Template -->
<g id="node42" class="node"><title>\\Library\\Template</title>
<a xlink:href="system.library.Template.html" xlink:title="Template" target="_parent">
<polygon fill="none" stroke="black" points="307.5,-1050 236.5,-1050 236.5,-1014 307.5,-1014 307.5,-1050"/>
<text text-anchor="middle" x="272" y="-1029.2" font-family="Courier,monospace" font-size="11.00">Template</text>
</a>
</g>
<!-- \\Library\\ThemeNotSetException -->
<g id="node43" class="node"><title>\\Library\\ThemeNotSetException</title>
<a xlink:href="system.library.Template.html" xlink:title="ThemeNotSetException" target="_parent">
<polygon fill="none" stroke="black" points="348,-996 196,-996 196,-960 348,-960 348,-996"/>
<text text-anchor="middle" x="272" y="-975.2" font-family="Courier,monospace" font-size="11.00">ThemeNotSetException</text>
</a>
</g>
<!-- \\Library\\ThemeNotSetException&#45;&gt;\\Exception -->
<g id="edge47" class="edge"><title>\\Library\\ThemeNotSetException&#45;&gt;\\Exception</title>
<path fill="none" stroke="black" d="M195.885,-961.062C185.081,-958.045 174.181,-954.676 164,-951 137.516,-941.438 108.91,-927.732 87.1068,-916.521"/>
<polygon fill="none" stroke="black" points="88.6913,-913.4 78.2048,-911.889 85.4599,-919.61 88.6913,-913.4"/>
</g>
<!-- \\Library\\InvalidThemePathException -->
<g id="node44" class="node"><title>\\Library\\InvalidThemePathException</title>
<a xlink:href="system.library.Template.html" xlink:title="InvalidThemePathException" target="_parent">
<polygon fill="none" stroke="black" points="364.5,-942 179.5,-942 179.5,-906 364.5,-906 364.5,-942"/>
<text text-anchor="middle" x="272" y="-921.2" font-family="Courier,monospace" font-size="11.00">InvalidThemePathException</text>
</a>
</g>
<!-- \\Library\\InvalidThemePathException&#45;&gt;\\Exception -->
<g id="edge49" class="edge"><title>\\Library\\InvalidThemePathException&#45;&gt;\\Exception</title>
<path fill="none" stroke="black" d="M179.293,-912.745C154.967,-909.76 129.413,-906.623 107.571,-903.943"/>
<polygon fill="none" stroke="black" points="107.845,-900.45 97.493,-902.706 106.992,-907.398 107.845,-900.45"/>
</g>
<!-- \\Library\\InvalidPageContents -->
<g id="node45" class="node"><title>\\Library\\InvalidPageContents</title>
<a xlink:href="system.library.Template.html" xlink:title="InvalidPageContents" target="_parent">
<polygon fill="none" stroke="black" points="344.5,-888 199.5,-888 199.5,-852 344.5,-852 344.5,-888"/>
<text text-anchor="middle" x="272" y="-867.2" font-family="Courier,monospace" font-size="11.00">InvalidPageContents</text>
</a>
</g>
<!-- \\Library\\InvalidPageContents&#45;&gt;\\Exception -->
<g id="edge51" class="edge"><title>\\Library\\InvalidPageContents&#45;&gt;\\Exception</title>
<path fill="none" stroke="black" d="M199.268,-878.803C169.562,-882.449 135.603,-886.617 107.686,-890.043"/>
<polygon fill="none" stroke="black" points="107.192,-886.577 97.6931,-891.269 108.045,-893.525 107.192,-886.577"/>
</g>
<!-- \\Library\\MissingThemeConfigException -->
<g id="node46" class="node"><title>\\Library\\MissingThemeConfigException</title>
<a xlink:href="system.library.Template.html" xlink:title="MissingThemeConfigException" target="_parent">
<polygon fill="none" stroke="black" points="371.5,-834 172.5,-834 172.5,-798 371.5,-798 371.5,-834"/>
<text text-anchor="middle" x="272" y="-813.2" font-family="Courier,monospace" font-size="11.00">MissingThemeConfigException</text>
</a>
</g>
<!-- \\Library\\MissingThemeConfigException&#45;&gt;\\Exception -->
<g id="edge53" class="edge"><title>\\Library\\MissingThemeConfigException&#45;&gt;\\Exception</title>
<path fill="none" stroke="black" d="M191.866,-834.075C182.391,-836.795 172.92,-839.779 164,-843 137.516,-852.562 108.91,-866.268 87.1068,-877.479"/>
<polygon fill="none" stroke="black" points="85.4599,-874.39 78.2048,-882.111 88.6913,-880.6 85.4599,-874.39"/>
</g>
<!-- \\Library\\View -->
<g id="node47" class="node"><title>\\Library\\View</title>
<a xlink:href="system.library.View.html" xlink:title="View" target="_parent">
<polygon fill="none" stroke="black" points="299,-780 245,-780 245,-744 299,-744 299,-780"/>
<text text-anchor="middle" x="272" y="-759.2" font-family="Courier,monospace" font-size="11.00">View</text>
</a>
</g>
<!-- \\Library\\ViewNotFoundException -->
<g id="node48" class="node"><title>\\Library\\ViewNotFoundException</title>
<a xlink:href="system.library.View.html" xlink:title="ViewNotFoundException" target="_parent">
<polygon fill="none" stroke="black" points="351,-726 193,-726 193,-690 351,-690 351,-726"/>
<text text-anchor="middle" x="272" y="-705.2" font-family="Courier,monospace" font-size="11.00">ViewNotFoundException</text>
</a>
</g>
<!-- \\Library\\ViewNotFoundException&#45;&gt;\\Exception -->
<g id="edge55" class="edge"><title>\\Library\\ViewNotFoundException&#45;&gt;\\Exception</title>
<path fill="none" stroke="black" d="M192.729,-720.722C182.554,-724.35 172.67,-729.012 164,-735 114.224,-769.38 79.3895,-833.307 62.5411,-869.732"/>
<polygon fill="none" stroke="black" points="59.1795,-868.674 58.2685,-879.229 65.5632,-871.546 59.1795,-868.674"/>
</g>
<!-- \\Library\\InvalidViewContents -->
<g id="node49" class="node"><title>\\Library\\InvalidViewContents</title>
<a xlink:href="system.library.View.html" xlink:title="InvalidViewContents" target="_parent">
<polygon fill="none" stroke="black" points="344.5,-672 199.5,-672 199.5,-636 344.5,-636 344.5,-672"/>
<text text-anchor="middle" x="272" y="-651.2" font-family="Courier,monospace" font-size="11.00">InvalidViewContents</text>
</a>
</g>
<!-- \\Library\\InvalidViewContents&#45;&gt;\\Exception -->
<g id="edge57" class="edge"><title>\\Library\\InvalidViewContents&#45;&gt;\\Exception</title>
<path fill="none" stroke="black" d="M199.464,-663.153C186.753,-667.159 174.303,-672.871 164,-681 101.889,-730.005 70.233,-822.619 57.6735,-869.021"/>
<polygon fill="none" stroke="black" points="54.2129,-868.422 55.0808,-878.981 60.9872,-870.186 54.2129,-868.422"/>
</g>
<!-- \\Library\\ZipArchive -->
<g id="node50" class="node"><title>\\Library\\ZipArchive</title>
<a xlink:href="system.library.ZipArchive.html" xlink:title="ZipArchive" target="_parent">
<polygon fill="none" stroke="black" points="314,-618 230,-618 230,-582 314,-582 314,-618"/>
<text text-anchor="middle" x="272" y="-597.2" font-family="Courier,monospace" font-size="11.00">ZipArchive</text>
</a>
</g>
<!-- \\Wowlib\\Driver -->
<g id="node52" class="node"><title>\\Wowlib\\Driver</title>
<a xlink:href="system.wowlib.drivers.Driver.html" xlink:title="Driver" target="_parent">
<polygon fill="none" stroke="black" points="300.5,-3234 243.5,-3234 243.5,-3198 300.5,-3198 300.5,-3234"/>
<text text-anchor="middle" x="272" y="-3213.2" font-family="Courier,monospace" font-size="11.00">Driver</text>
</a>
</g>
<!-- \\Wowlib\\Wowlib -->
<g id="node53" class="node"><title>\\Wowlib\\Wowlib</title>
<a xlink:href="system.wowlib.Wowlib.html" xlink:title="Wowlib" target="_parent">
<polygon fill="none" stroke="black" points="300.5,-3180 243.5,-3180 243.5,-3144 300.5,-3144 300.5,-3180"/>
<text text-anchor="middle" x="272" y="-3159.2" font-family="Courier,monospace" font-size="11.00">Wowlib</text>
</a>
</g>
<!-- \\ArgumentException -->
<g id="node55" class="node"><title>\\ArgumentException</title>
<a xlink:href="system.core.exceptions.ArgumentException.html" xlink:title="ArgumentException" target="_parent">
<polygon fill="none" stroke="black" points="337.5,-538 206.5,-538 206.5,-502 337.5,-502 337.5,-538"/>
<text text-anchor="middle" x="272" y="-517.2" font-family="Courier,monospace" font-size="11.00">ArgumentException</text>
</a>
</g>
<!-- \\ArgumentException&#45;&gt;\\Exception -->
<g id="edge15" class="edge"><title>\\ArgumentException&#45;&gt;\\Exception</title>
<path fill="none" stroke="black" d="M211.068,-538.011C193.994,-545.583 176.625,-555.983 164,-570 83.9864,-658.837 60.0842,-807.218 53.4093,-868.84"/>
<polygon fill="none" stroke="black" points="49.9089,-868.668 52.3849,-878.97 56.8734,-869.373 49.9089,-868.668"/>
</g>
<!-- \\ControllerNotFoundException -->
<g id="node56" class="node"><title>\\ControllerNotFoundException</title>
<a xlink:href="system.core.exceptions.ControllerNotFoundException.html" xlink:title="ControllerNotFoundException" target="_parent">
<polygon fill="none" stroke="black" points="371.5,-484 172.5,-484 172.5,-448 371.5,-448 371.5,-484"/>
<text text-anchor="middle" x="272" y="-463.2" font-family="Courier,monospace" font-size="11.00">ControllerNotFoundException</text>
</a>
</g>
<!-- \\ControllerNotFoundException&#45;&gt;\\Exception -->
<g id="edge17" class="edge"><title>\\ControllerNotFoundException&#45;&gt;\\Exception</title>
<path fill="none" stroke="black" d="M175.24,-484.111C171.21,-486.709 167.43,-489.657 164,-493 109.041,-546.572 67.9843,-785.766 55.1902,-868.63"/>
<polygon fill="none" stroke="black" points="51.7179,-868.184 53.6719,-878.597 58.6381,-869.238 51.7179,-868.184"/>
</g>
<!-- \\DirectoryNotFoundException -->
<g id="node57" class="node"><title>\\DirectoryNotFoundException</title>
<a xlink:href="system.core.exceptions.DirectoryNotFoundException.html" xlink:title="DirectoryNotFoundException" target="_parent">
<polygon fill="none" stroke="black" points="368,-430 176,-430 176,-394 368,-394 368,-430"/>
<text text-anchor="middle" x="272" y="-409.2" font-family="Courier,monospace" font-size="11.00">DirectoryNotFoundException</text>
</a>
</g>
<!-- \\DirectoryNotFoundException&#45;&gt;\\Exception -->
<g id="edge19" class="edge"><title>\\DirectoryNotFoundException&#45;&gt;\\Exception</title>
<path fill="none" stroke="black" d="M175.594,-429.669C171.416,-432.376 167.513,-435.468 164,-439 102.255,-501.072 64.8252,-778.935 54.1649,-868.838"/>
<polygon fill="none" stroke="black" points="50.6801,-868.504 52.9977,-878.842 57.633,-869.315 50.6801,-868.504"/>
</g>
<!-- \\FileNotFoundException -->
<g id="node58" class="node"><title>\\FileNotFoundException</title>
<a xlink:href="system.core.exceptions.FileNotFoundException.html" xlink:title="FileNotFoundException" target="_parent">
<polygon fill="none" stroke="black" points="351,-376 193,-376 193,-340 351,-340 351,-376"/>
<text text-anchor="middle" x="272" y="-355.2" font-family="Courier,monospace" font-size="11.00">FileNotFoundException</text>
</a>
</g>
<!-- \\FileNotFoundException&#45;&gt;\\Exception -->
<g id="edge21" class="edge"><title>\\FileNotFoundException&#45;&gt;\\Exception</title>
<path fill="none" stroke="black" d="M192.956,-366.739C182.136,-370.885 172.006,-376.751 164,-385 95.4795,-455.604 62.1056,-772.041 53.3791,-868.801"/>
<polygon fill="none" stroke="black" points="49.8733,-868.713 52.4793,-878.982 56.8461,-869.329 49.8733,-868.713"/>
</g>
<!-- \\IOException -->
<g id="node59" class="node"><title>\\IOException</title>
<a xlink:href="system.core.exceptions.IOException.html" xlink:title="IOException" target="_parent">
<polygon fill="none" stroke="black" points="317.5,-322 226.5,-322 226.5,-286 317.5,-286 317.5,-322"/>
<text text-anchor="middle" x="272" y="-301.2" font-family="Courier,monospace" font-size="11.00">IOException</text>
</a>
</g>
<!-- \\IOException&#45;&gt;\\Exception -->
<g id="edge23" class="edge"><title>\\IOException&#45;&gt;\\Exception</title>
<path fill="none" stroke="black" d="M226.444,-304.592C204.754,-307.252 179.976,-314.202 164,-331 88.7094,-410.162 59.6962,-765.113 52.7495,-868.598"/>
<polygon fill="none" stroke="black" points="49.237,-868.676 52.0768,-878.883 56.2221,-869.133 49.237,-868.676"/>
</g>
<!-- \\MethodNotFoundException -->
<g id="node60" class="node"><title>\\MethodNotFoundException</title>
<a xlink:href="system.core.exceptions.MethodNotFoundException.html" xlink:title="MethodNotFoundException" target="_parent">
<polygon fill="none" stroke="black" points="358,-268 186,-268 186,-232 358,-232 358,-268"/>
<text text-anchor="middle" x="272" y="-247.2" font-family="Courier,monospace" font-size="11.00">MethodNotFoundException</text>
</a>
</g>
<!-- \\MethodNotFoundException&#45;&gt;\\Exception -->
<g id="edge25" class="edge"><title>\\MethodNotFoundException&#45;&gt;\\Exception</title>
<path fill="none" stroke="black" d="M185.794,-261.454C177.65,-265.352 170.151,-270.423 164,-277 81.9014,-364.783 57.4909,-758.548 52.2194,-868.439"/>
<polygon fill="none" stroke="black" points="48.7091,-868.582 51.7424,-878.733 55.7016,-868.906 48.7091,-868.582"/>
</g>
<!-- \\ModuleNotFoundException -->
<g id="node61" class="node"><title>\\ModuleNotFoundException</title>
<a xlink:href="system.core.exceptions.ModuleNotFoundException.html" xlink:title="ModuleNotFoundException" target="_parent">
<polygon fill="none" stroke="black" points="358,-214 186,-214 186,-178 358,-178 358,-214"/>
<text text-anchor="middle" x="272" y="-193.2" font-family="Courier,monospace" font-size="11.00">ModuleNotFoundException</text>
</a>
</g>
<!-- \\ModuleNotFoundException&#45;&gt;\\Exception -->
<g id="edge27" class="edge"><title>\\ModuleNotFoundException&#45;&gt;\\Exception</title>
<path fill="none" stroke="black" d="M185.96,-207.242C177.732,-211.172 170.169,-216.31 164,-223 74.983,-319.542 55.4215,-753.064 51.7574,-868.62"/>
<polygon fill="none" stroke="black" points="48.2539,-868.687 51.4507,-878.788 55.2507,-868.898 48.2539,-868.687"/>
</g>
<!-- \\SecurityException -->
<g id="node62" class="node"><title>\\SecurityException</title>
<a xlink:href="system.core.exceptions.SecurityException.html" xlink:title="SecurityException" target="_parent">
<polygon fill="none" stroke="black" points="337.5,-160 206.5,-160 206.5,-124 337.5,-124 337.5,-160"/>
<text text-anchor="middle" x="272" y="-139.2" font-family="Courier,monospace" font-size="11.00">SecurityException</text>
</a>
</g>
<!-- \\SecurityException&#45;&gt;\\Exception -->
<g id="edge29" class="edge"><title>\\SecurityException&#45;&gt;\\Exception</title>
<path fill="none" stroke="black" d="M206.234,-145.932C190.447,-149.94 174.966,-156.961 164,-169 68.1577,-274.217 53.5545,-746.688 51.3746,-868.353"/>
<polygon fill="none" stroke="black" points="47.8695,-868.644 51.2047,-878.7 54.8685,-868.759 47.8695,-868.644"/>
</g>
<!-- \\Plexis -->
<g id="node63" class="node"><title>\\Plexis</title>
<a xlink:href="system.Plexis.html" xlink:title="Plexis" target="_parent">
<polygon fill="none" stroke="black" points="300.5,-106 243.5,-106 243.5,-70 300.5,-70 300.5,-106"/>
<text text-anchor="middle" x="272" y="-85.2" font-family="Courier,monospace" font-size="11.00">Plexis</text>
</a>
</g>
<!-- \\System -->
<g id="node64" class="node"><title>\\System</title>
<a xlink:href="system.System.html" xlink:title="System" target="_parent">
<polygon fill="none" stroke="black" points="300.5,-52 243.5,-52 243.5,-16 300.5,-16 300.5,-52"/>
<text text-anchor="middle" x="272" y="-31.2" font-family="Courier,monospace" font-size="11.00">System</text>
</a>
</g>
</g>
</svg>
