<?xml version="1.0" encoding="UTF-8" standalone="no"?>
<!DOCTYPE svg PUBLIC "-//W3C//DTD SVG 1.1//EN"
 "http://www.w3.org/Graphics/SVG/1.1/DTD/svg11.dtd">
<!-- Generated by graphviz version 2.28.0 (20110507.0327)
 -->
<!-- Title: G Pages: 1 -->
<svg width="396pt" height="3062pt"
 viewBox="0.00 0.00 396.00 3062.00" xmlns="http://www.w3.org/2000/svg" xmlns:xlink="http://www.w3.org/1999/xlink">
<g id="graph1" class="graph" transform="scale(1 1) rotate(0) translate(4 3058)">
<title>G</title>
<polygon fill="white" stroke="white" points="-4,5 -4,-3058 393,-3058 393,5 -4,5"/>
<g id="graph2" class="cluster"><title>cluster_Core</title>
<polyline fill="none" stroke="gray" points="186,-1734 358,-1734 "/>
<path fill="none" stroke="gray" d="M358,-1734C364,-1734 370,-1740 370,-1746"/>
<polyline fill="none" stroke="gray" points="370,-1746 370,-2820 "/>
<path fill="none" stroke="gray" d="M370,-2820C370,-2826 364,-2832 358,-2832"/>
<polyline fill="none" stroke="gray" points="358,-2832 186,-2832 "/>
<path fill="none" stroke="gray" d="M186,-2832C180,-2832 174,-2826 174,-2820"/>
<polyline fill="none" stroke="gray" points="174,-2820 174,-1746 "/>
<path fill="none" stroke="gray" d="M174,-1746C174,-1740 180,-1734 186,-1734"/>
<text text-anchor="middle" x="272" y="-2819.2" font-family="Times New Roman,serif" font-size="11.00" fill="gray">Core</text>
</g>
<g id="graph3" class="cluster"><title>cluster_Core\IO</title>
<polyline fill="none" stroke="gray" points="224,-2678 320,-2678 "/>
<path fill="none" stroke="gray" d="M320,-2678C326,-2678 332,-2684 332,-2690"/>
<polyline fill="none" stroke="gray" points="332,-2690 332,-2792 "/>
<path fill="none" stroke="gray" d="M332,-2792C332,-2798 326,-2804 320,-2804"/>
<polyline fill="none" stroke="gray" points="320,-2804 224,-2804 "/>
<path fill="none" stroke="gray" d="M224,-2804C218,-2804 212,-2798 212,-2792"/>
<polyline fill="none" stroke="gray" points="212,-2792 212,-2690 "/>
<path fill="none" stroke="gray" d="M212,-2690C212,-2684 218,-2678 224,-2678"/>
<text text-anchor="middle" x="272" y="-2791.2" font-family="Times New Roman,serif" font-size="11.00" fill="gray">IO</text>
</g>
<g id="graph4" class="cluster"><title>cluster_Core\Router</title>
<polyline fill="none" stroke="gray" points="217,-2598 327,-2598 "/>
<path fill="none" stroke="gray" d="M327,-2598C333,-2598 339,-2604 339,-2610"/>
<polyline fill="none" stroke="gray" points="339,-2610 339,-2658 "/>
<path fill="none" stroke="gray" d="M339,-2658C339,-2664 333,-2670 327,-2670"/>
<polyline fill="none" stroke="gray" points="327,-2670 217,-2670 "/>
<path fill="none" stroke="gray" d="M217,-2670C211,-2670 205,-2664 205,-2658"/>
<polyline fill="none" stroke="gray" points="205,-2658 205,-2610 "/>
<path fill="none" stroke="gray" d="M205,-2610C205,-2604 211,-2598 217,-2598"/>
<text text-anchor="middle" x="272" y="-2657.2" font-family="Times New Roman,serif" font-size="11.00" fill="gray">Router</text>
</g>
<g id="graph5" class="cluster"><title>cluster_Database</title>
<polyline fill="none" stroke="gray" points="247,-2840 297,-2840 "/>
<path fill="none" stroke="gray" d="M297,-2840C303,-2840 309,-2846 309,-2852"/>
<polyline fill="none" stroke="gray" points="309,-2852 309,-2900 "/>
<path fill="none" stroke="gray" d="M309,-2900C309,-2906 303,-2912 297,-2912"/>
<polyline fill="none" stroke="gray" points="297,-2912 247,-2912 "/>
<path fill="none" stroke="gray" d="M247,-2912C241,-2912 235,-2906 235,-2900"/>
<polyline fill="none" stroke="gray" points="235,-2900 235,-2852 "/>
<path fill="none" stroke="gray" d="M235,-2852C235,-2846 241,-2840 247,-2840"/>
<text text-anchor="middle" x="272" y="-2899.2" font-family="Times New Roman,serif" font-size="11.00" fill="gray">Database</text>
</g>
<g id="graph6" class="cluster"><title>cluster_Library</title>
<polyline fill="none" stroke="gray" points="176,-628 368,-628 "/>
<path fill="none" stroke="gray" d="M368,-628C374,-628 380,-634 380,-640"/>
<polyline fill="none" stroke="gray" points="380,-640 380,-1714 "/>
<path fill="none" stroke="gray" d="M380,-1714C380,-1720 374,-1726 368,-1726"/>
<polyline fill="none" stroke="gray" points="368,-1726 176,-1726 "/>
<path fill="none" stroke="gray" d="M176,-1726C170,-1726 164,-1720 164,-1714"/>
<polyline fill="none" stroke="gray" points="164,-1714 164,-640 "/>
<path fill="none" stroke="gray" d="M164,-640C164,-634 170,-628 176,-628"/>
<text text-anchor="middle" x="272" y="-1713.2" font-family="Times New Roman,serif" font-size="11.00" fill="gray">Library</text>
</g>
<g id="graph7" class="cluster"><title>cluster_Wowlib</title>
<polyline fill="none" stroke="gray" points="247,-2920 297,-2920 "/>
<path fill="none" stroke="gray" d="M297,-2920C303,-2920 309,-2926 309,-2932"/>
<polyline fill="none" stroke="gray" points="309,-2932 309,-3034 "/>
<path fill="none" stroke="gray" d="M309,-3034C309,-3040 303,-3046 297,-3046"/>
<polyline fill="none" stroke="gray" points="297,-3046 247,-3046 "/>
<path fill="none" stroke="gray" d="M247,-3046C241,-3046 235,-3040 235,-3034"/>
<polyline fill="none" stroke="gray" points="235,-3034 235,-2932 "/>
<path fill="none" stroke="gray" d="M235,-2932C235,-2926 241,-2920 247,-2920"/>
<text text-anchor="middle" x="272" y="-3033.2" font-family="Times New Roman,serif" font-size="11.00" fill="gray">Wowlib</text>
</g>
<g id="graph8" class="cluster"><title>cluster_global</title>
<polyline fill="none" stroke="gray" points="176,-8 368,-8 "/>
<path fill="none" stroke="gray" d="M368,-8C374,-8 380,-14 380,-20"/>
<polyline fill="none" stroke="gray" points="380,-20 380,-608 "/>
<path fill="none" stroke="gray" d="M380,-608C380,-614 374,-620 368,-620"/>
<polyline fill="none" stroke="gray" points="368,-620 176,-620 "/>
<path fill="none" stroke="gray" d="M176,-620C170,-620 164,-614 164,-608"/>
<polyline fill="none" stroke="gray" points="164,-608 164,-20 "/>
<path fill="none" stroke="gray" d="M164,-20C164,-14 170,-8 176,-8"/>
<text text-anchor="middle" x="272" y="-607.2" font-family="Times New Roman,serif" font-size="11.00" fill="gray">global</text>
</g>
<!-- \\Core\\IO\\DirectoryInfo -->
<g id="node3" class="node"><title>\\Core\\IO\\DirectoryInfo</title>
<a xlink:href="system.core.io.DirectoryInfo.html" xlink:title="DirectoryInfo" target="_parent">
<polygon fill="none" stroke="black" points="324,-2776 220,-2776 220,-2740 324,-2740 324,-2776"/>
<text text-anchor="middle" x="272" y="-2755.2" font-family="Courier,monospace" font-size="11.00">DirectoryInfo</text>
</a>
</g>
<!-- \\Core\\IO\\FileInfo -->
<g id="node4" class="node"><title>\\Core\\IO\\FileInfo</title>
<a xlink:href="system.core.io.FileInfo.html" xlink:title="FileInfo" target="_parent">
<polygon fill="none" stroke="black" points="307.5,-2722 236.5,-2722 236.5,-2686 307.5,-2686 307.5,-2722"/>
<text text-anchor="middle" x="272" y="-2701.2" font-family="Courier,monospace" font-size="11.00">FileInfo</text>
</a>
</g>
<!-- \\Core\\Router\\RouteCollection -->
<g id="node6" class="node"><title>\\Core\\Router\\RouteCollection</title>
<a xlink:href="system.core.router.RouteCollection.html" xlink:title="RouteCollection" target="_parent">
<polygon fill="none" stroke="black" points="331,-2642 213,-2642 213,-2606 331,-2606 331,-2642"/>
<text text-anchor="middle" x="272" y="-2621.2" font-family="Courier,monospace" font-size="11.00">RouteCollection</text>
</a>
</g>
<!-- \\Core\\AutoLoader -->
<g id="node7" class="node"><title>\\Core\\AutoLoader</title>
<a xlink:href="system.core.AutoLoader.html" xlink:title="AutoLoader" target="_parent">
<polygon fill="none" stroke="black" points="314,-2588 230,-2588 230,-2552 314,-2552 314,-2588"/>
<text text-anchor="middle" x="272" y="-2567.2" font-family="Courier,monospace" font-size="11.00">AutoLoader</text>
</a>
</g>
<!-- \\Core\\Benchmark -->
<g id="node8" class="node"><title>\\Core\\Benchmark</title>
<a xlink:href="system.core.Benchmark.html" xlink:title="Benchmark" target="_parent">
<polygon fill="none" stroke="black" points="310.5,-2534 233.5,-2534 233.5,-2498 310.5,-2498 310.5,-2534"/>
<text text-anchor="middle" x="272" y="-2513.2" font-family="Courier,monospace" font-size="11.00">Benchmark</text>
</a>
</g>
<!-- \\Core\\Config -->
<g id="node9" class="node"><title>\\Core\\Config</title>
<a xlink:href="system.core.Config.html" xlink:title="Config" target="_parent">
<polygon fill="none" stroke="black" points="300.5,-2480 243.5,-2480 243.5,-2444 300.5,-2444 300.5,-2480"/>
<text text-anchor="middle" x="272" y="-2459.2" font-family="Courier,monospace" font-size="11.00">Config</text>
</a>
</g>
<!-- \\Core\\Controller -->
<g id="node10" class="node"><title>\\Core\\Controller</title>
<a xlink:href="system.core.Controller.html" xlink:title="Controller" target="_parent">
<polygon fill="none" stroke="black" points="314,-2426 230,-2426 230,-2390 314,-2390 314,-2426"/>
<text text-anchor="middle" x="272" y="-2405.2" font-family="Courier,monospace" font-size="11.00">Controller</text>
</a>
</g>
<!-- \\Core\\Database -->
<g id="node11" class="node"><title>\\Core\\Database</title>
<a xlink:href="system.core.Database.html" xlink:title="Database" target="_parent">
<polygon fill="none" stroke="black" points="307.5,-2372 236.5,-2372 236.5,-2336 307.5,-2336 307.5,-2372"/>
<text text-anchor="middle" x="272" y="-2351.2" font-family="Courier,monospace" font-size="11.00">Database</text>
</a>
</g>
<!-- \\Core\\DatabaseConnectError -->
<g id="node12" class="node"><title>\\Core\\DatabaseConnectError</title>
<a xlink:href="system.core.Database.html" xlink:title="DatabaseConnectError" target="_parent">
<polygon fill="none" stroke="black" points="348,-2318 196,-2318 196,-2282 348,-2282 348,-2318"/>
<text text-anchor="middle" x="272" y="-2297.2" font-family="Courier,monospace" font-size="11.00">DatabaseConnectError</text>
</a>
</g>
<!-- \\Exception -->
<g id="node64" class="node"><title>\\Exception</title>
<ellipse fill="none" stroke="black" cx="50" cy="-924" rx="50.0912" ry="18"/>
<text text-anchor="middle" x="50" y="-920.3" font-family="Times New Roman,serif" font-size="14.00" fill="gray">\Exception</text>
</g>
<!-- \\Core\\DatabaseConnectError&#45;&gt;\\Exception -->
<g id="edge11" class="edge"><title>\\Core\\DatabaseConnectError&#45;&gt;\\Exception</title>
<path fill="none" stroke="black" d="M195.731,-2293.59C183.591,-2289.3 172.305,-2282.79 164,-2273 75.4834,-2168.67 54.5027,-1137.98 51.4332,-952.513"/>
<polygon fill="none" stroke="black" points="54.9318,-952.392 51.2707,-942.449 47.9327,-952.505 54.9318,-952.392"/>
</g>
<!-- \\Core\\ErrorHandler -->
<g id="node13" class="node"><title>\\Core\\ErrorHandler</title>
<a xlink:href="system.core.ErrorHandler.html" xlink:title="ErrorHandler" target="_parent">
<polygon fill="none" stroke="black" points="321,-2264 223,-2264 223,-2228 321,-2228 321,-2264"/>
<text text-anchor="middle" x="272" y="-2243.2" font-family="Courier,monospace" font-size="11.00">ErrorHandler</text>
</a>
</g>
<!-- \\Core\\EventHandler -->
<g id="node14" class="node"><title>\\Core\\EventHandler</title>
<a xlink:href="system.core.EventHandler.html" xlink:title="EventHandler" target="_parent">
<polygon fill="none" stroke="black" points="321,-2210 223,-2210 223,-2174 321,-2174 321,-2210"/>
<text text-anchor="middle" x="272" y="-2189.2" font-family="Courier,monospace" font-size="11.00">EventHandler</text>
</a>
</g>
<!-- \\Core\\InvalidCallableException -->
<g id="node15" class="node"><title>\\Core\\InvalidCallableException</title>
<a xlink:href="system.core.EventHandler.html" xlink:title="InvalidCallableException" target="_parent">
<polygon fill="none" stroke="black" points="361.5,-2156 182.5,-2156 182.5,-2120 361.5,-2120 361.5,-2156"/>
<text text-anchor="middle" x="272" y="-2135.2" font-family="Courier,monospace" font-size="11.00">InvalidCallableException</text>
</a>
</g>
<!-- \\Core\\InvalidCallableException&#45;&gt;\\Exception -->
<g id="edge13" class="edge"><title>\\Core\\InvalidCallableException&#45;&gt;\\Exception</title>
<path fill="none" stroke="black" d="M182.43,-2125.61C175.489,-2121.82 169.178,-2117.03 164,-2111 86.0005,-2020.12 56.6796,-1123.55 51.768,-952.216"/>
<polygon fill="none" stroke="black" points="55.2604,-951.893 51.4795,-941.996 48.2632,-952.09 55.2604,-951.893"/>
</g>
<!-- \\Core\\Filesystem -->
<g id="node16" class="node"><title>\\Core\\Filesystem</title>
<a xlink:href="system.core.Filesystem.html" xlink:title="Filesystem" target="_parent">
<polygon fill="none" stroke="black" points="314,-2102 230,-2102 230,-2066 314,-2066 314,-2102"/>
<text text-anchor="middle" x="272" y="-2081.2" font-family="Courier,monospace" font-size="11.00">Filesystem</text>
</a>
</g>
<!-- \\Core\\Module -->
<g id="node17" class="node"><title>\\Core\\Module</title>
<a xlink:href="system.core.Module.html" xlink:title="Module" target="_parent">
<polygon fill="none" stroke="black" points="300.5,-2048 243.5,-2048 243.5,-2012 300.5,-2012 300.5,-2048"/>
<text text-anchor="middle" x="272" y="-2027.2" font-family="Courier,monospace" font-size="11.00">Module</text>
</a>
</g>
<!-- \\Core\\Request -->
<g id="node18" class="node"><title>\\Core\\Request</title>
<a xlink:href="system.core.Request.html" xlink:title="Request" target="_parent">
<polygon fill="none" stroke="black" points="304,-1994 240,-1994 240,-1958 304,-1958 304,-1994"/>
<text text-anchor="middle" x="272" y="-1973.2" font-family="Courier,monospace" font-size="11.00">Request</text>
</a>
</g>
<!-- \\Core\\Response -->
<g id="node19" class="node"><title>\\Core\\Response</title>
<a xlink:href="system.core.Response.html" xlink:title="Response" target="_parent">
<polygon fill="none" stroke="black" points="307.5,-1940 236.5,-1940 236.5,-1904 307.5,-1904 307.5,-1940"/>
<text text-anchor="middle" x="272" y="-1919.2" font-family="Courier,monospace" font-size="11.00">Response</text>
</a>
</g>
<!-- \\Core\\OutputSentException -->
<g id="node20" class="node"><title>\\Core\\OutputSentException</title>
<a xlink:href="system.core.Response.html" xlink:title="OutputSentException" target="_parent">
<polygon fill="none" stroke="black" points="344.5,-1886 199.5,-1886 199.5,-1850 344.5,-1850 344.5,-1886"/>
<text text-anchor="middle" x="272" y="-1865.2" font-family="Courier,monospace" font-size="11.00">OutputSentException</text>
</a>
</g>
<!-- \\Core\\OutputSentException&#45;&gt;\\Exception -->
<g id="edge33" class="edge"><title>\\Core\\OutputSentException&#45;&gt;\\Exception</title>
<path fill="none" stroke="black" d="M199.327,-1862.41C185.932,-1858.19 173.255,-1851.49 164,-1841 103.551,-1772.51 61.2067,-1099.81 52.611,-952.438"/>
<polygon fill="none" stroke="black" points="56.1009,-952.16 52.0293,-942.379 49.1125,-952.564 56.1009,-952.16"/>
</g>
<!-- \\Core\\Router -->
<g id="node21" class="node"><title>\\Core\\Router</title>
<a xlink:href="system.core.Router.html" xlink:title="Router" target="_parent">
<polygon fill="none" stroke="black" points="300.5,-1832 243.5,-1832 243.5,-1796 300.5,-1796 300.5,-1832"/>
<text text-anchor="middle" x="272" y="-1811.2" font-family="Courier,monospace" font-size="11.00">Router</text>
</a>
</g>
<!-- \\Core\\XssFilter -->
<g id="node22" class="node"><title>\\Core\\XssFilter</title>
<a xlink:href="system.core.XssFilter.html" xlink:title="XssFilter" target="_parent">
<polygon fill="none" stroke="black" points="310.5,-1778 233.5,-1778 233.5,-1742 310.5,-1742 310.5,-1778"/>
<text text-anchor="middle" x="272" y="-1757.2" font-family="Courier,monospace" font-size="11.00">XssFilter</text>
</a>
</g>
<!-- \\Database\\Driver -->
<g id="node24" class="node"><title>\\Database\\Driver</title>
<a xlink:href="system.core.database.Driver.html" xlink:title="Driver" target="_parent">
<polygon fill="none" stroke="black" points="300.5,-2884 243.5,-2884 243.5,-2848 300.5,-2848 300.5,-2884"/>
<text text-anchor="middle" x="272" y="-2863.2" font-family="Courier,monospace" font-size="11.00">Driver</text>
</a>
</g>
<!-- \\PDO -->
<g id="node62" class="node"><title>\\PDO</title>
<ellipse fill="none" stroke="black" cx="50" cy="-2866" rx="31.6951" ry="18"/>
<text text-anchor="middle" x="50" y="-2862.3" font-family="Times New Roman,serif" font-size="14.00" fill="gray">\PDO</text>
</g>
<!-- \\Database\\Driver&#45;&gt;\\PDO -->
<g id="edge9" class="edge"><title>\\Database\\Driver&#45;&gt;\\PDO</title>
<path fill="none" stroke="black" d="M243.137,-2866C205.03,-2866 136.369,-2866 92.2793,-2866"/>
<polygon fill="none" stroke="black" points="92.1777,-2862.5 82.1777,-2866 92.1777,-2869.5 92.1777,-2862.5"/>
</g>
<!-- \\Library\\Auth -->
<g id="node26" class="node"><title>\\Library\\Auth</title>
<a xlink:href="system.library.Auth.html" xlink:title="Auth" target="_parent">
<polygon fill="none" stroke="black" points="299,-1698 245,-1698 245,-1662 299,-1662 299,-1698"/>
<text text-anchor="middle" x="272" y="-1677.2" font-family="Courier,monospace" font-size="11.00">Auth</text>
</a>
</g>
<!-- \\Library\\InvalidUsernameException -->
<g id="node27" class="node"><title>\\Library\\InvalidUsernameException</title>
<a xlink:href="system.library.Auth.html" xlink:title="InvalidUsernameException" target="_parent">
<polygon fill="none" stroke="black" points="361.5,-1644 182.5,-1644 182.5,-1608 361.5,-1608 361.5,-1644"/>
<text text-anchor="middle" x="272" y="-1623.2" font-family="Courier,monospace" font-size="11.00">InvalidUsernameException</text>
</a>
</g>
<!-- \\Library\\InvalidUsernameException&#45;&gt;\\Exception -->
<g id="edge35" class="edge"><title>\\Library\\InvalidUsernameException&#45;&gt;\\Exception</title>
<path fill="none" stroke="black" d="M182.367,-1612.94C175.532,-1609.28 169.259,-1604.71 164,-1599 74.8662,-1502.31 55.3899,-1068.15 51.751,-952.422"/>
<polygon fill="none" stroke="black" points="55.244,-952.13 51.4465,-942.239 48.2471,-952.339 55.244,-952.13"/>
</g>
<!-- \\Library\\InvalidPasswordException -->
<g id="node28" class="node"><title>\\Library\\InvalidPasswordException</title>
<a xlink:href="system.library.Auth.html" xlink:title="InvalidPasswordException" target="_parent">
<polygon fill="none" stroke="black" points="361.5,-1590 182.5,-1590 182.5,-1554 361.5,-1554 361.5,-1590"/>
<text text-anchor="middle" x="272" y="-1569.2" font-family="Courier,monospace" font-size="11.00">InvalidPasswordException</text>
</a>
</g>
<!-- \\Library\\InvalidPasswordException&#45;&gt;\\Exception -->
<g id="edge37" class="edge"><title>\\Library\\InvalidPasswordException&#45;&gt;\\Exception</title>
<path fill="none" stroke="black" d="M182.452,-1558.86C175.6,-1555.22 169.299,-1550.67 164,-1545 81.6953,-1456.97 57.4046,-1061.8 52.1952,-952.244"/>
<polygon fill="none" stroke="black" points="55.6795,-951.82 51.7244,-941.991 48.6868,-952.141 55.6795,-951.82"/>
</g>
<!-- \\Library\\InvalidEmailException -->
<g id="node29" class="node"><title>\\Library\\InvalidEmailException</title>
<a xlink:href="system.library.Auth.html" xlink:title="InvalidEmailException" target="_parent">
<polygon fill="none" stroke="black" points="351,-1536 193,-1536 193,-1500 351,-1500 351,-1536"/>
<text text-anchor="middle" x="272" y="-1515.2" font-family="Courier,monospace" font-size="11.00">InvalidEmailException</text>
</a>
</g>
<!-- \\Library\\InvalidEmailException&#45;&gt;\\Exception -->
<g id="edge39" class="edge"><title>\\Library\\InvalidEmailException&#45;&gt;\\Exception</title>
<path fill="none" stroke="black" d="M192.807,-1509.4C182.006,-1505.24 171.921,-1499.33 164,-1491 88.5186,-1411.61 59.6038,-1055.4 52.721,-952.137"/>
<polygon fill="none" stroke="black" points="56.2131,-951.9 52.072,-942.148 49.2278,-952.354 56.2131,-951.9"/>
</g>
<!-- \\Library\\InvalidCredentialsException -->
<g id="node30" class="node"><title>\\Library\\InvalidCredentialsException</title>
<a xlink:href="system.library.Auth.html" xlink:title="InvalidCredentialsException" target="_parent">
<polygon fill="none" stroke="black" points="371.5,-1482 172.5,-1482 172.5,-1446 371.5,-1446 371.5,-1482"/>
<text text-anchor="middle" x="272" y="-1461.2" font-family="Courier,monospace" font-size="11.00">InvalidCredentialsException</text>
</a>
</g>
<!-- \\Library\\InvalidCredentialsException&#45;&gt;\\Exception -->
<g id="edge41" class="edge"><title>\\Library\\InvalidCredentialsException&#45;&gt;\\Exception</title>
<path fill="none" stroke="black" d="M174.533,-1445.8C170.743,-1443.22 167.202,-1440.3 164,-1437 95.3664,-1366.25 62.0704,-1049.2 53.3709,-952.254"/>
<polygon fill="none" stroke="black" points="56.8364,-951.707 52.474,-942.052 49.8633,-952.321 56.8364,-951.707"/>
</g>
<!-- \\Library\\AccountExistsException -->
<g id="node31" class="node"><title>\\Library\\AccountExistsException</title>
<a xlink:href="system.library.Auth.html" xlink:title="AccountExistsException" target="_parent">
<polygon fill="none" stroke="black" points="354.5,-1428 189.5,-1428 189.5,-1392 354.5,-1392 354.5,-1428"/>
<text text-anchor="middle" x="272" y="-1407.2" font-family="Courier,monospace" font-size="11.00">AccountExistsException</text>
</a>
</g>
<!-- \\Library\\AccountExistsException&#45;&gt;\\Exception -->
<g id="edge43" class="edge"><title>\\Library\\AccountExistsException&#45;&gt;\\Exception</title>
<path fill="none" stroke="black" d="M189.365,-1399.58C179.94,-1395.58 171.159,-1390.2 164,-1383 102.143,-1320.78 64.7885,-1042.32 54.1558,-952.223"/>
<polygon fill="none" stroke="black" points="57.6217,-951.726 52.9917,-942.197 50.6684,-952.534 57.6217,-951.726"/>
</g>
<!-- \\Library\\AccountBannedException -->
<g id="node32" class="node"><title>\\Library\\AccountBannedException</title>
<a xlink:href="system.library.Auth.html" xlink:title="AccountBannedException" target="_parent">
<polygon fill="none" stroke="black" points="354.5,-1374 189.5,-1374 189.5,-1338 354.5,-1338 354.5,-1374"/>
<text text-anchor="middle" x="272" y="-1353.2" font-family="Courier,monospace" font-size="11.00">AccountBannedException</text>
</a>
</g>
<!-- \\Library\\AccountBannedException&#45;&gt;\\Exception -->
<g id="edge45" class="edge"><title>\\Library\\AccountBannedException&#45;&gt;\\Exception</title>
<path fill="none" stroke="black" d="M189.304,-1345.25C179.948,-1341.3 171.2,-1336.02 164,-1329 108.807,-1275.16 67.7596,-1034.42 55.0934,-951.875"/>
<polygon fill="none" stroke="black" points="58.5502,-951.326 53.5926,-941.962 51.6291,-952.374 58.5502,-951.326"/>
</g>
<!-- \\Library\\IpBannedException -->
<g id="node33" class="node"><title>\\Library\\IpBannedException</title>
<a xlink:href="system.library.Auth.html" xlink:title="IpBannedException" target="_parent">
<polygon fill="none" stroke="black" points="337.5,-1320 206.5,-1320 206.5,-1284 337.5,-1284 337.5,-1320"/>
<text text-anchor="middle" x="272" y="-1299.2" font-family="Courier,monospace" font-size="11.00">IpBannedException</text>
</a>
</g>
<!-- \\Library\\IpBannedException&#45;&gt;\\Exception -->
<g id="edge47" class="edge"><title>\\Library\\IpBannedException&#45;&gt;\\Exception</title>
<path fill="none" stroke="black" d="M206.342,-1296.58C190.925,-1292.54 175.6,-1285.88 164,-1275 69.5562,-1186.44 53.8104,-1018.74 51.362,-952.219"/>
<polygon fill="none" stroke="black" points="54.8565,-951.973 51.0655,-942.08 47.8594,-952.178 54.8565,-951.973"/>
</g>
<!-- \\Library\\Cache -->
<g id="node34" class="node"><title>\\Library\\Cache</title>
<a xlink:href="system.library.Cache.html" xlink:title="Cache" target="_parent">
<polygon fill="none" stroke="black" points="299,-1266 245,-1266 245,-1230 299,-1230 299,-1266"/>
<text text-anchor="middle" x="272" y="-1245.2" font-family="Courier,monospace" font-size="11.00">Cache</text>
</a>
</g>
<!-- \\Library\\Mime -->
<g id="node35" class="node"><title>\\Library\\Mime</title>
<a xlink:href="system.library.Mime.html" xlink:title="Mime" target="_parent">
<polygon fill="none" stroke="black" points="299,-1212 245,-1212 245,-1176 299,-1176 299,-1212"/>
<text text-anchor="middle" x="272" y="-1191.2" font-family="Courier,monospace" font-size="11.00">Mime</text>
</a>
</g>
<!-- \\Library\\Parser -->
<g id="node36" class="node"><title>\\Library\\Parser</title>
<a xlink:href="system.library.Parser.html" xlink:title="Parser" target="_parent">
<polygon fill="none" stroke="black" points="300.5,-1158 243.5,-1158 243.5,-1122 300.5,-1122 300.5,-1158"/>
<text text-anchor="middle" x="272" y="-1137.2" font-family="Courier,monospace" font-size="11.00">Parser</text>
</a>
</g>
<!-- \\Library\\Template -->
<g id="node37" class="node"><title>\\Library\\Template</title>
<a xlink:href="system.library.Template.html" xlink:title="Template" target="_parent">
<polygon fill="none" stroke="black" points="307.5,-1104 236.5,-1104 236.5,-1068 307.5,-1068 307.5,-1104"/>
<text text-anchor="middle" x="272" y="-1083.2" font-family="Courier,monospace" font-size="11.00">Template</text>
</a>
</g>
<!-- \\Library\\ThemeNotSetException -->
<g id="node38" class="node"><title>\\Library\\ThemeNotSetException</title>
<a xlink:href="system.library.Template.html" xlink:title="ThemeNotSetException" target="_parent">
<polygon fill="none" stroke="black" points="348,-1050 196,-1050 196,-1014 348,-1014 348,-1050"/>
<text text-anchor="middle" x="272" y="-1029.2" font-family="Courier,monospace" font-size="11.00">ThemeNotSetException</text>
</a>
</g>
<!-- \\Library\\ThemeNotSetException&#45;&gt;\\Exception -->
<g id="edge49" class="edge"><title>\\Library\\ThemeNotSetException&#45;&gt;\\Exception</title>
<path fill="none" stroke="black" d="M195.793,-1016.84C184.894,-1013.55 173.992,-1009.64 164,-1005 131.773,-990.042 99.2474,-965.506 77.4212,-947.352"/>
<polygon fill="none" stroke="black" points="79.4986,-944.525 69.6029,-940.74 74.9783,-949.87 79.4986,-944.525"/>
</g>
<!-- \\Library\\InvalidThemePathException -->
<g id="node39" class="node"><title>\\Library\\InvalidThemePathException</title>
<a xlink:href="system.library.Template.html" xlink:title="InvalidThemePathException" target="_parent">
<polygon fill="none" stroke="black" points="364.5,-996 179.5,-996 179.5,-960 364.5,-960 364.5,-996"/>
<text text-anchor="middle" x="272" y="-975.2" font-family="Courier,monospace" font-size="11.00">InvalidThemePathException</text>
</a>
</g>
<!-- \\Library\\InvalidThemePathException&#45;&gt;\\Exception -->
<g id="edge51" class="edge"><title>\\Library\\InvalidThemePathException&#45;&gt;\\Exception</title>
<path fill="none" stroke="black" d="M197.437,-959.944C165.927,-952.209 129.92,-943.371 101.495,-936.394"/>
<polygon fill="none" stroke="black" points="102.323,-932.994 91.7773,-934.009 100.655,-939.792 102.323,-932.994"/>
</g>
<!-- \\Library\\InvalidPageContents -->
<g id="node40" class="node"><title>\\Library\\InvalidPageContents</title>
<a xlink:href="system.library.Template.html" xlink:title="InvalidPageContents" target="_parent">
<polygon fill="none" stroke="black" points="344.5,-942 199.5,-942 199.5,-906 344.5,-906 344.5,-942"/>
<text text-anchor="middle" x="272" y="-921.2" font-family="Courier,monospace" font-size="11.00">InvalidPageContents</text>
</a>
</g>
<!-- \\Library\\InvalidPageContents&#45;&gt;\\Exception -->
<g id="edge53" class="edge"><title>\\Library\\InvalidPageContents&#45;&gt;\\Exception</title>
<path fill="none" stroke="black" d="M199.268,-924C170.582,-924 137.929,-924 110.582,-924"/>
<polygon fill="none" stroke="black" points="110.38,-920.5 100.38,-924 110.38,-927.5 110.38,-920.5"/>
</g>
<!-- \\Library\\MissingThemeConfigException -->
<g id="node41" class="node"><title>\\Library\\MissingThemeConfigException</title>
<a xlink:href="system.library.Template.html" xlink:title="MissingThemeConfigException" target="_parent">
<polygon fill="none" stroke="black" points="371.5,-888 172.5,-888 172.5,-852 371.5,-852 371.5,-888"/>
<text text-anchor="middle" x="272" y="-867.2" font-family="Courier,monospace" font-size="11.00">MissingThemeConfigException</text>
</a>
</g>
<!-- \\Library\\MissingThemeConfigException&#45;&gt;\\Exception -->
<g id="edge55" class="edge"><title>\\Library\\MissingThemeConfigException&#45;&gt;\\Exception</title>
<path fill="none" stroke="black" d="M197.437,-888.056C165.927,-895.791 129.92,-904.629 101.495,-911.606"/>
<polygon fill="none" stroke="black" points="100.655,-908.208 91.7773,-913.991 102.323,-915.006 100.655,-908.208"/>
</g>
<!-- \\Library\\View -->
<g id="node42" class="node"><title>\\Library\\View</title>
<a xlink:href="system.library.View.html" xlink:title="View" target="_parent">
<polygon fill="none" stroke="black" points="299,-834 245,-834 245,-798 299,-798 299,-834"/>
<text text-anchor="middle" x="272" y="-813.2" font-family="Courier,monospace" font-size="11.00">View</text>
</a>
</g>
<!-- \\Library\\ViewNotFoundException -->
<g id="node43" class="node"><title>\\Library\\ViewNotFoundException</title>
<a xlink:href="system.library.View.html" xlink:title="ViewNotFoundException" target="_parent">
<polygon fill="none" stroke="black" points="351,-780 193,-780 193,-744 351,-744 351,-780"/>
<text text-anchor="middle" x="272" y="-759.2" font-family="Courier,monospace" font-size="11.00">ViewNotFoundException</text>
</a>
</g>
<!-- \\Library\\ViewNotFoundException&#45;&gt;\\Exception -->
<g id="edge57" class="edge"><title>\\Library\\ViewNotFoundException&#45;&gt;\\Exception</title>
<path fill="none" stroke="black" d="M192.921,-775.533C182.771,-779.038 172.844,-783.449 164,-789 120.364,-816.39 85.2003,-866.24 66.2706,-897.097"/>
<polygon fill="none" stroke="black" points="63.0629,-895.641 60.9256,-906.018 69.0676,-899.239 63.0629,-895.641"/>
</g>
<!-- \\Library\\InvalidViewContents -->
<g id="node44" class="node"><title>\\Library\\InvalidViewContents</title>
<a xlink:href="system.library.View.html" xlink:title="InvalidViewContents" target="_parent">
<polygon fill="none" stroke="black" points="344.5,-726 199.5,-726 199.5,-690 344.5,-690 344.5,-726"/>
<text text-anchor="middle" x="272" y="-705.2" font-family="Courier,monospace" font-size="11.00">InvalidViewContents</text>
</a>
</g>
<!-- \\Library\\InvalidViewContents&#45;&gt;\\Exception -->
<g id="edge59" class="edge"><title>\\Library\\InvalidViewContents&#45;&gt;\\Exception</title>
<path fill="none" stroke="black" d="M199.271,-717.804C186.72,-721.756 174.376,-727.282 164,-735 108.033,-776.631 74.4431,-854.926 59.7625,-896.475"/>
<polygon fill="none" stroke="black" points="56.4424,-895.367 56.5149,-905.962 63.0651,-897.634 56.4424,-895.367"/>
</g>
<!-- \\Library\\ZipArchive -->
<g id="node45" class="node"><title>\\Library\\ZipArchive</title>
<a xlink:href="system.library.ZipArchive.html" xlink:title="ZipArchive" target="_parent">
<polygon fill="none" stroke="black" points="314,-672 230,-672 230,-636 314,-636 314,-672"/>
<text text-anchor="middle" x="272" y="-651.2" font-family="Courier,monospace" font-size="11.00">ZipArchive</text>
</a>
</g>
<!-- \\Wowlib\\Driver -->
<g id="node47" class="node"><title>\\Wowlib\\Driver</title>
<a xlink:href="system.wowlib.drivers.Driver.html" xlink:title="Driver" target="_parent">
<polygon fill="none" stroke="black" points="300.5,-3018 243.5,-3018 243.5,-2982 300.5,-2982 300.5,-3018"/>
<text text-anchor="middle" x="272" y="-2997.2" font-family="Courier,monospace" font-size="11.00">Driver</text>
</a>
</g>
<!-- \\Wowlib\\Wowlib -->
<g id="node48" class="node"><title>\\Wowlib\\Wowlib</title>
<a xlink:href="system.wowlib.Wowlib.html" xlink:title="Wowlib" target="_parent">
<polygon fill="none" stroke="black" points="300.5,-2964 243.5,-2964 243.5,-2928 300.5,-2928 300.5,-2964"/>
<text text-anchor="middle" x="272" y="-2943.2" font-family="Courier,monospace" font-size="11.00">Wowlib</text>
</a>
</g>
<!-- \\ArgumentException -->
<g id="node50" class="node"><title>\\ArgumentException</title>
<a xlink:href="system.core.exceptions.ArgumentException.html" xlink:title="ArgumentException" target="_parent">
<polygon fill="none" stroke="black" points="337.5,-592 206.5,-592 206.5,-556 337.5,-556 337.5,-592"/>
<text text-anchor="middle" x="272" y="-571.2" font-family="Courier,monospace" font-size="11.00">ArgumentException</text>
</a>
</g>
<!-- \\ArgumentException&#45;&gt;\\Exception -->
<g id="edge15" class="edge"><title>\\ArgumentException&#45;&gt;\\Exception</title>
<path fill="none" stroke="black" d="M211.582,-592.103C194.429,-599.695 176.886,-610.083 164,-624 89.757,-704.184 62.9267,-837.845 54.4539,-895.784"/>
<polygon fill="none" stroke="black" points="50.943,-895.622 53.0367,-906.008 57.8767,-896.583 50.943,-895.622"/>
</g>
<!-- \\ControllerNotFoundException -->
<g id="node51" class="node"><title>\\ControllerNotFoundException</title>
<a xlink:href="system.core.exceptions.ControllerNotFoundException.html" xlink:title="ControllerNotFoundException" target="_parent">
<polygon fill="none" stroke="black" points="371.5,-538 172.5,-538 172.5,-502 371.5,-502 371.5,-538"/>
<text text-anchor="middle" x="272" y="-517.2" font-family="Courier,monospace" font-size="11.00">ControllerNotFoundException</text>
</a>
</g>
<!-- \\ControllerNotFoundException&#45;&gt;\\Exception -->
<g id="edge17" class="edge"><title>\\ControllerNotFoundException&#45;&gt;\\Exception</title>
<path fill="none" stroke="black" d="M175.315,-538.189C171.266,-540.766 167.461,-543.689 164,-547 63.25,-643.408 51.321,-825.695 50.6264,-895.667"/>
<polygon fill="none" stroke="black" points="47.1259,-895.894 50.5995,-905.903 54.1258,-895.912 47.1259,-895.894"/>
</g>
<!-- \\DirectoryNotFoundException -->
<g id="node52" class="node"><title>\\DirectoryNotFoundException</title>
<a xlink:href="system.core.exceptions.DirectoryNotFoundException.html" xlink:title="DirectoryNotFoundException" target="_parent">
<polygon fill="none" stroke="black" points="368,-484 176,-484 176,-448 368,-448 368,-484"/>
<text text-anchor="middle" x="272" y="-463.2" font-family="Courier,monospace" font-size="11.00">DirectoryNotFoundException</text>
</a>
</g>
<!-- \\DirectoryNotFoundException&#45;&gt;\\Exception -->
<g id="edge19" class="edge"><title>\\DirectoryNotFoundException&#45;&gt;\\Exception</title>
<path fill="none" stroke="black" d="M175.656,-483.731C171.462,-486.422 167.539,-489.494 164,-493 105.638,-550.825 66.3294,-809.424 54.636,-895.803"/>
<polygon fill="none" stroke="black" points="51.1406,-895.537 53.2878,-905.912 58.0791,-896.462 51.1406,-895.537"/>
</g>
<!-- \\FileNotFoundException -->
<g id="node53" class="node"><title>\\FileNotFoundException</title>
<a xlink:href="system.core.exceptions.FileNotFoundException.html" xlink:title="FileNotFoundException" target="_parent">
<polygon fill="none" stroke="black" points="351,-430 193,-430 193,-394 351,-394 351,-430"/>
<text text-anchor="middle" x="272" y="-409.2" font-family="Courier,monospace" font-size="11.00">FileNotFoundException</text>
</a>
</g>
<!-- \\FileNotFoundException&#45;&gt;\\Exception -->
<g id="edge21" class="edge"><title>\\FileNotFoundException&#45;&gt;\\Exception</title>
<path fill="none" stroke="black" d="M192.77,-420.925C182.041,-425.055 171.987,-430.866 164,-439 98.8877,-505.313 63.4434,-802.297 53.7579,-895.751"/>
<polygon fill="none" stroke="black" points="50.2589,-895.565 52.7284,-905.868 57.2229,-896.273 50.2589,-895.565"/>
</g>
<!-- \\InvalidArgumentException -->
<g id="node54" class="node"><title>\\InvalidArgumentException</title>
<a xlink:href="system.core.exceptions.InvalidArgumentException.html" xlink:title="InvalidArgumentException" target="_parent">
<polygon fill="none" stroke="black" points="361.5,-376 182.5,-376 182.5,-340 361.5,-340 361.5,-376"/>
<text text-anchor="middle" x="272" y="-355.2" font-family="Courier,monospace" font-size="11.00">InvalidArgumentException</text>
</a>
</g>
<!-- \\InvalidArgumentException&#45;&gt;\\Exception -->
<g id="edge23" class="edge"><title>\\InvalidArgumentException&#45;&gt;\\Exception</title>
<path fill="none" stroke="black" d="M182.357,-371.423C175.57,-375.013 169.308,-379.472 164,-385 92.1108,-459.863 60.8826,-795.424 53.0538,-895.647"/>
<polygon fill="none" stroke="black" points="49.5426,-895.662 52.2711,-905.9 56.5222,-896.195 49.5426,-895.662"/>
</g>
<!-- \\IOException -->
<g id="node55" class="node"><title>\\IOException</title>
<a xlink:href="system.core.exceptions.IOException.html" xlink:title="IOException" target="_parent">
<polygon fill="none" stroke="black" points="317.5,-322 226.5,-322 226.5,-286 317.5,-286 317.5,-322"/>
<text text-anchor="middle" x="272" y="-301.2" font-family="Courier,monospace" font-size="11.00">IOException</text>
</a>
</g>
<!-- \\IOException&#45;&gt;\\Exception -->
<g id="edge25" class="edge"><title>\\IOException&#45;&gt;\\Exception</title>
<path fill="none" stroke="black" d="M226.383,-304.534C204.676,-307.178 179.903,-314.132 164,-331 85.276,-414.501 58.5475,-789.109 52.4657,-895.651"/>
<polygon fill="none" stroke="black" points="48.9548,-895.752 51.8962,-905.93 55.9441,-896.139 48.9548,-895.752"/>
</g>
<!-- \\MethodNotFoundException -->
<g id="node56" class="node"><title>\\MethodNotFoundException</title>
<a xlink:href="system.core.exceptions.MethodNotFoundException.html" xlink:title="MethodNotFoundException" target="_parent">
<polygon fill="none" stroke="black" points="358,-268 186,-268 186,-232 358,-232 358,-268"/>
<text text-anchor="middle" x="272" y="-247.2" font-family="Courier,monospace" font-size="11.00">MethodNotFoundException</text>
</a>
</g>
<!-- \\MethodNotFoundException&#45;&gt;\\Exception -->
<g id="edge27" class="edge"><title>\\MethodNotFoundException&#45;&gt;\\Exception</title>
<path fill="none" stroke="black" d="M185.746,-261.408C177.61,-265.315 170.126,-270.401 164,-277 78.4089,-369.196 56.4147,-783.124 51.9727,-895.674"/>
<polygon fill="none" stroke="black" points="48.4668,-895.767 51.5857,-905.892 55.4618,-896.032 48.4668,-895.767"/>
</g>
<!-- \\ModuleNotFoundException -->
<g id="node57" class="node"><title>\\ModuleNotFoundException</title>
<a xlink:href="system.core.exceptions.ModuleNotFoundException.html" xlink:title="ModuleNotFoundException" target="_parent">
<polygon fill="none" stroke="black" points="358,-214 186,-214 186,-178 358,-178 358,-214"/>
<text text-anchor="middle" x="272" y="-193.2" font-family="Courier,monospace" font-size="11.00">ModuleNotFoundException</text>
</a>
</g>
<!-- \\ModuleNotFoundException&#45;&gt;\\Exception -->
<g id="edge29" class="edge"><title>\\ModuleNotFoundException&#45;&gt;\\Exception</title>
<path fill="none" stroke="black" d="M185.918,-207.204C177.698,-211.141 170.148,-216.29 164,-223 71.5337,-323.918 54.4581,-777.235 51.556,-895.636"/>
<polygon fill="none" stroke="black" points="48.0549,-895.647 51.3238,-905.725 55.053,-895.808 48.0549,-895.647"/>
</g>
<!-- \\SecurityException -->
<g id="node58" class="node"><title>\\SecurityException</title>
<a xlink:href="system.core.exceptions.SecurityException.html" xlink:title="SecurityException" target="_parent">
<polygon fill="none" stroke="black" points="337.5,-160 206.5,-160 206.5,-124 337.5,-124 337.5,-160"/>
<text text-anchor="middle" x="272" y="-139.2" font-family="Courier,monospace" font-size="11.00">SecurityException</text>
</a>
</g>
<!-- \\SecurityException&#45;&gt;\\Exception -->
<g id="edge31" class="edge"><title>\\SecurityException&#45;&gt;\\Exception</title>
<path fill="none" stroke="black" d="M206.469,-145.822C190.585,-149.818 174.998,-156.86 164,-169 64.6657,-278.646 52.6472,-771.287 51.1978,-895.495"/>
<polygon fill="none" stroke="black" points="47.6959,-895.679 51.0934,-905.714 54.6955,-895.75 47.6959,-895.679"/>
</g>
<!-- \\Plexis -->
<g id="node59" class="node"><title>\\Plexis</title>
<a xlink:href="system.Plexis.html" xlink:title="Plexis" target="_parent">
<polygon fill="none" stroke="black" points="300.5,-106 243.5,-106 243.5,-70 300.5,-70 300.5,-106"/>
<text text-anchor="middle" x="272" y="-85.2" font-family="Courier,monospace" font-size="11.00">Plexis</text>
</a>
</g>
<!-- \\System -->
<g id="node60" class="node"><title>\\System</title>
<a xlink:href="system.System.html" xlink:title="System" target="_parent">
<polygon fill="none" stroke="black" points="300.5,-52 243.5,-52 243.5,-16 300.5,-16 300.5,-52"/>
<text text-anchor="middle" x="272" y="-31.2" font-family="Courier,monospace" font-size="11.00">System</text>
</a>
</g>
</g>
</svg>
