<?xml version="1.0" encoding="UTF-8" standalone="no"?>
<!DOCTYPE svg PUBLIC "-//W3C//DTD SVG 1.1//EN"
 "http://www.w3.org/Graphics/SVG/1.1/DTD/svg11.dtd">
<!-- Generated by graphviz version 2.28.0 (20110507.0327)
 -->
<!-- Title: G Pages: 1 -->
<svg width="668pt" height="2414pt"
 viewBox="0.00 0.00 668.00 2414.00" xmlns="http://www.w3.org/2000/svg" xmlns:xlink="http://www.w3.org/1999/xlink">
<g id="graph1" class="graph" transform="scale(1 1) rotate(0) translate(4 2410)">
<title>G</title>
<polygon fill="white" stroke="white" points="-4,5 -4,-2410 665,-2410 665,5 -4,5"/>
<g id="graph2" class="cluster"><title>cluster_Core</title>
<polyline fill="none" stroke="gray" points="210,-1248 640,-1248 "/>
<path fill="none" stroke="gray" d="M640,-1248C646,-1248 652,-1254 652,-1260"/>
<polyline fill="none" stroke="gray" points="652,-1260 652,-2172 "/>
<path fill="none" stroke="gray" d="M652,-2172C652,-2178 646,-2184 640,-2184"/>
<polyline fill="none" stroke="gray" points="640,-2184 210,-2184 "/>
<path fill="none" stroke="gray" d="M210,-2184C204,-2184 198,-2178 198,-2172"/>
<polyline fill="none" stroke="gray" points="198,-2172 198,-1260 "/>
<path fill="none" stroke="gray" d="M198,-1260C198,-1254 204,-1248 210,-1248"/>
<text text-anchor="middle" x="425" y="-2171.2" font-family="Times New Roman,serif" font-size="11.00" fill="gray">Core</text>
</g>
<g id="graph3" class="cluster"><title>cluster_Database</title>
<polyline fill="none" stroke="gray" points="519,-2192 569,-2192 "/>
<path fill="none" stroke="gray" d="M569,-2192C575,-2192 581,-2198 581,-2204"/>
<polyline fill="none" stroke="gray" points="581,-2204 581,-2252 "/>
<path fill="none" stroke="gray" d="M581,-2252C581,-2258 575,-2264 569,-2264"/>
<polyline fill="none" stroke="gray" points="569,-2264 519,-2264 "/>
<path fill="none" stroke="gray" d="M519,-2264C513,-2264 507,-2258 507,-2252"/>
<polyline fill="none" stroke="gray" points="507,-2252 507,-2204 "/>
<path fill="none" stroke="gray" d="M507,-2204C507,-2198 513,-2192 519,-2192"/>
<text text-anchor="middle" x="544" y="-2251.2" font-family="Times New Roman,serif" font-size="11.00" fill="gray">Database</text>
</g>
<g id="graph4" class="cluster"><title>cluster_Library</title>
<polyline fill="none" stroke="gray" points="176,-196 368,-196 "/>
<path fill="none" stroke="gray" d="M368,-196C374,-196 380,-202 380,-208"/>
<polyline fill="none" stroke="gray" points="380,-208 380,-1228 "/>
<path fill="none" stroke="gray" d="M380,-1228C380,-1234 374,-1240 368,-1240"/>
<polyline fill="none" stroke="gray" points="368,-1240 176,-1240 "/>
<path fill="none" stroke="gray" d="M176,-1240C170,-1240 164,-1234 164,-1228"/>
<polyline fill="none" stroke="gray" points="164,-1228 164,-208 "/>
<path fill="none" stroke="gray" d="M164,-208C164,-202 170,-196 176,-196"/>
<text text-anchor="middle" x="272" y="-1227.2" font-family="Times New Roman,serif" font-size="11.00" fill="gray">Library</text>
</g>
<g id="graph5" class="cluster"><title>cluster_Wowlib</title>
<polyline fill="none" stroke="gray" points="519,-2272 569,-2272 "/>
<path fill="none" stroke="gray" d="M569,-2272C575,-2272 581,-2278 581,-2284"/>
<polyline fill="none" stroke="gray" points="581,-2284 581,-2386 "/>
<path fill="none" stroke="gray" d="M581,-2386C581,-2392 575,-2398 569,-2398"/>
<polyline fill="none" stroke="gray" points="569,-2398 519,-2398 "/>
<path fill="none" stroke="gray" d="M519,-2398C513,-2398 507,-2392 507,-2386"/>
<polyline fill="none" stroke="gray" points="507,-2386 507,-2284 "/>
<path fill="none" stroke="gray" d="M507,-2284C507,-2278 513,-2272 519,-2272"/>
<text text-anchor="middle" x="544" y="-2385.2" font-family="Times New Roman,serif" font-size="11.00" fill="gray">Wowlib</text>
</g>
<g id="graph6" class="cluster"><title>cluster_global</title>
<polyline fill="none" stroke="gray" points="230,-8 314,-8 "/>
<path fill="none" stroke="gray" d="M314,-8C320,-8 326,-14 326,-20"/>
<polyline fill="none" stroke="gray" points="326,-20 326,-176 "/>
<path fill="none" stroke="gray" d="M326,-176C326,-182 320,-188 314,-188"/>
<polyline fill="none" stroke="gray" points="314,-188 230,-188 "/>
<path fill="none" stroke="gray" d="M230,-188C224,-188 218,-182 218,-176"/>
<polyline fill="none" stroke="gray" points="218,-176 218,-20 "/>
<path fill="none" stroke="gray" d="M218,-20C218,-14 224,-8 230,-8"/>
<text text-anchor="middle" x="272" y="-175.2" font-family="Times New Roman,serif" font-size="11.00" fill="gray">global</text>
</g>
<!-- \\Core\\AutoLoader -->
<g id="node2" class="node"><title>\\Core\\AutoLoader</title>
<a xlink:href="system.core.AutoLoader.html" xlink:title="AutoLoader" target="_parent">
<polygon fill="none" stroke="black" points="586,-2156 502,-2156 502,-2120 586,-2120 586,-2156"/>
<text text-anchor="middle" x="544" y="-2135.2" font-family="Courier,monospace" font-size="11.00">AutoLoader</text>
</a>
</g>
<!-- \\Core\\Benchmark -->
<g id="node3" class="node"><title>\\Core\\Benchmark</title>
<a xlink:href="system.core.Benchmark.html" xlink:title="Benchmark" target="_parent">
<polygon fill="none" stroke="black" points="582.5,-2102 505.5,-2102 505.5,-2066 582.5,-2066 582.5,-2102"/>
<text text-anchor="middle" x="544" y="-2081.2" font-family="Courier,monospace" font-size="11.00">Benchmark</text>
</a>
</g>
<!-- \\Core\\Config -->
<g id="node4" class="node"><title>\\Core\\Config</title>
<a xlink:href="system.core.Config.html" xlink:title="Config" target="_parent">
<polygon fill="none" stroke="black" points="572.5,-2048 515.5,-2048 515.5,-2012 572.5,-2012 572.5,-2048"/>
<text text-anchor="middle" x="544" y="-2027.2" font-family="Courier,monospace" font-size="11.00">Config</text>
</a>
</g>
<!-- \\Core\\Controller -->
<g id="node5" class="node"><title>\\Core\\Controller</title>
<a xlink:href="system.core.Controller.html" xlink:title="Controller" target="_parent">
<polygon fill="none" stroke="black" points="586,-1994 502,-1994 502,-1958 586,-1958 586,-1994"/>
<text text-anchor="middle" x="544" y="-1973.2" font-family="Courier,monospace" font-size="11.00">Controller</text>
</a>
</g>
<!-- \\Core\\Database -->
<g id="node6" class="node"><title>\\Core\\Database</title>
<a xlink:href="system.core.Database.html" xlink:title="Database" target="_parent">
<polygon fill="none" stroke="black" points="579.5,-1940 508.5,-1940 508.5,-1904 579.5,-1904 579.5,-1940"/>
<text text-anchor="middle" x="544" y="-1919.2" font-family="Courier,monospace" font-size="11.00">Database</text>
</a>
</g>
<!-- \\Core\\DatabaseConnectError -->
<g id="node7" class="node"><title>\\Core\\DatabaseConnectError</title>
<a xlink:href="system.core.Database.html" xlink:title="DatabaseConnectError" target="_parent">
<polygon fill="none" stroke="black" points="620,-1724 468,-1724 468,-1688 620,-1688 620,-1724"/>
<text text-anchor="middle" x="544" y="-1703.2" font-family="Courier,monospace" font-size="11.00">DatabaseConnectError</text>
</a>
</g>
<!-- \\Exception -->
<g id="node52" class="node"><title>\\Exception</title>
<ellipse fill="none" stroke="black" cx="50" cy="-843" rx="50.0912" ry="18"/>
<text text-anchor="middle" x="50" y="-839.3" font-family="Times New Roman,serif" font-size="14.00" fill="gray">\Exception</text>
</g>
<!-- \\Core\\DatabaseConnectError&#45;&gt;\\Exception -->
<g id="edge9" class="edge"><title>\\Core\\DatabaseConnectError&#45;&gt;\\Exception</title>
<path fill="none" stroke="black" d="M467.995,-1689.03C459.715,-1686.14 451.555,-1682.81 444,-1679 357.55,-1635.38 352.971,-1598.59 273,-1544"/>
</g>
<!-- \\Core\\Dispatch -->
<g id="node8" class="node"><title>\\Core\\Dispatch</title>
<a xlink:href="system.core.Dispatch.html" xlink:title="Dispatch" target="_parent">
<polygon fill="none" stroke="black" points="579.5,-1832 508.5,-1832 508.5,-1796 579.5,-1796 579.5,-1832"/>
<text text-anchor="middle" x="544" y="-1811.2" font-family="Courier,monospace" font-size="11.00">Dispatch</text>
</a>
</g>
<!-- \\Core\\NotFoundException -->
<g id="node9" class="node"><title>\\Core\\NotFoundException</title>
<a xlink:href="system.core.Dispatch.html" xlink:title="NotFoundException" target="_parent">
<polygon fill="none" stroke="black" points="337.5,-1778 206.5,-1778 206.5,-1742 337.5,-1742 337.5,-1778"/>
<text text-anchor="middle" x="272" y="-1757.2" font-family="Courier,monospace" font-size="11.00">NotFoundException</text>
</a>
</g>
<!-- \\Core\\NotFoundException&#45;&gt;\\Exception -->
<g id="edge11" class="edge"><title>\\Core\\NotFoundException&#45;&gt;\\Exception</title>
<path fill="none" stroke="black" d="M206.491,-1759.56C190.607,-1756.3 175.015,-1749.9 164,-1738 103.537,-1672.68 61.351,-1017.62 52.6596,-871.708"/>
<polygon fill="none" stroke="black" points="56.1321,-871.137 52.0488,-861.36 49.1442,-871.549 56.1321,-871.137"/>
</g>
<!-- \\Core\\ControllerNotFoundException -->
<g id="node10" class="node"><title>\\Core\\ControllerNotFoundException</title>
<a xlink:href="system.core.Dispatch.html" xlink:title="ControllerNotFoundException" target="_parent">
<polygon fill="none" stroke="black" points="643.5,-1778 444.5,-1778 444.5,-1742 643.5,-1742 643.5,-1778"/>
<text text-anchor="middle" x="544" y="-1757.2" font-family="Courier,monospace" font-size="11.00">ControllerNotFoundException</text>
</a>
</g>
<!-- \\Core\\ControllerNotFoundException&#45;&gt;\\Core\\NotFoundException -->
<g id="edge13" class="edge"><title>\\Core\\ControllerNotFoundException&#45;&gt;\\Core\\NotFoundException</title>
<path fill="none" stroke="black" d="M444.378,-1760C412.576,-1760 377.863,-1760 348.047,-1760"/>
<polygon fill="none" stroke="black" points="347.717,-1756.5 337.717,-1760 347.717,-1763.5 347.717,-1756.5"/>
</g>
<!-- \\Core\\MethodNotFoundException -->
<g id="node11" class="node"><title>\\Core\\MethodNotFoundException</title>
<a xlink:href="system.core.Dispatch.html" xlink:title="MethodNotFoundException" target="_parent">
<polygon fill="none" stroke="black" points="630,-1886 458,-1886 458,-1850 630,-1850 630,-1886"/>
<text text-anchor="middle" x="544" y="-1865.2" font-family="Courier,monospace" font-size="11.00">MethodNotFoundException</text>
</a>
</g>
<!-- \\Core\\MethodNotFoundException&#45;&gt;\\Core\\NotFoundException -->
<g id="edge15" class="edge"><title>\\Core\\MethodNotFoundException&#45;&gt;\\Core\\NotFoundException</title>
<path fill="none" stroke="black" d="M463.296,-1849.94C456.603,-1847.33 450.079,-1844.36 444,-1841 410.152,-1822.27 414.426,-1799.65 380,-1782 369.95,-1776.85 358.785,-1772.9 347.567,-1769.88"/>
<polygon fill="none" stroke="black" points="348.27,-1766.45 337.723,-1767.45 346.596,-1773.24 348.27,-1766.45"/>
</g>
<!-- \\Core\\ErrorHandler -->
<g id="node12" class="node"><title>\\Core\\ErrorHandler</title>
<a xlink:href="system.core.ErrorHandler.html" xlink:title="ErrorHandler" target="_parent">
<polygon fill="none" stroke="black" points="593,-1670 495,-1670 495,-1634 593,-1634 593,-1670"/>
<text text-anchor="middle" x="544" y="-1649.2" font-family="Courier,monospace" font-size="11.00">ErrorHandler</text>
</a>
</g>
<!-- \\Core\\EventHandler -->
<g id="node13" class="node"><title>\\Core\\EventHandler</title>
<a xlink:href="system.core.EventHandler.html" xlink:title="EventHandler" target="_parent">
<polygon fill="none" stroke="black" points="593,-1616 495,-1616 495,-1580 593,-1580 593,-1616"/>
<text text-anchor="middle" x="544" y="-1595.2" font-family="Courier,monospace" font-size="11.00">EventHandler</text>
</a>
</g>
<!-- \\Core\\InvalidCallableException -->
<g id="node14" class="node"><title>\\Core\\InvalidCallableException</title>
<a xlink:href="system.core.EventHandler.html" xlink:title="InvalidCallableException" target="_parent">
<polygon fill="none" stroke="black" points="633.5,-1562 454.5,-1562 454.5,-1526 633.5,-1526 633.5,-1562"/>
<text text-anchor="middle" x="544" y="-1541.2" font-family="Courier,monospace" font-size="11.00">InvalidCallableException</text>
</a>
</g>
<!-- \\Core\\InvalidCallableException&#45;&gt;\\Exception -->
<g id="edge17" class="edge"><title>\\Core\\InvalidCallableException&#45;&gt;\\Exception</title>
<path fill="none" stroke="black" d="M482.874,-1562.03C424.082,-1575.81 334.652,-1586.09 273,-1544"/>
</g>
<!-- \\Core\\Filesystem -->
<g id="node15" class="node"><title>\\Core\\Filesystem</title>
<a xlink:href="system.core.Filesystem.html" xlink:title="Filesystem" target="_parent">
<polygon fill="none" stroke="black" points="586,-1508 502,-1508 502,-1472 586,-1472 586,-1508"/>
<text text-anchor="middle" x="544" y="-1487.2" font-family="Courier,monospace" font-size="11.00">Filesystem</text>
</a>
</g>
<!-- \\Core\\Request -->
<g id="node16" class="node"><title>\\Core\\Request</title>
<a xlink:href="system.core.Request.html" xlink:title="Request" target="_parent">
<polygon fill="none" stroke="black" points="576,-1454 512,-1454 512,-1418 576,-1418 576,-1454"/>
<text text-anchor="middle" x="544" y="-1433.2" font-family="Courier,monospace" font-size="11.00">Request</text>
</a>
</g>
<!-- \\Core\\Response -->
<g id="node17" class="node"><title>\\Core\\Response</title>
<a xlink:href="system.core.Response.html" xlink:title="Response" target="_parent">
<polygon fill="none" stroke="black" points="579.5,-1400 508.5,-1400 508.5,-1364 579.5,-1364 579.5,-1400"/>
<text text-anchor="middle" x="544" y="-1379.2" font-family="Courier,monospace" font-size="11.00">Response</text>
</a>
</g>
<!-- \\Core\\OutputSentException -->
<g id="node18" class="node"><title>\\Core\\OutputSentException</title>
<a xlink:href="system.core.Response.html" xlink:title="OutputSentException" target="_parent">
<polygon fill="none" stroke="black" points="616.5,-1346 471.5,-1346 471.5,-1310 616.5,-1310 616.5,-1346"/>
<text text-anchor="middle" x="544" y="-1325.2" font-family="Courier,monospace" font-size="11.00">OutputSentException</text>
</a>
</g>
<!-- \\Core\\OutputSentException&#45;&gt;\\Exception -->
<g id="edge19" class="edge"><title>\\Core\\OutputSentException&#45;&gt;\\Exception</title>
<path fill="none" stroke="black" d="M271,-1544C153.529,-1463.8 73.7665,-991.324 55.1644,-870.914"/>
<polygon fill="none" stroke="black" points="58.619,-870.35 53.6478,-860.994 51.6994,-871.408 58.619,-870.35"/>
<path fill="none" stroke="black" d="M471.446,-1342.22C461.85,-1345.63 452.425,-1349.83 444,-1355 347.475,-1414.29 366.556,-1607.87 273,-1544"/>
</g>
<!-- \\Core\\Router -->
<g id="node19" class="node"><title>\\Core\\Router</title>
<a xlink:href="system.core.Router.html" xlink:title="Router" target="_parent">
<polygon fill="none" stroke="black" points="572.5,-1292 515.5,-1292 515.5,-1256 572.5,-1256 572.5,-1292"/>
<text text-anchor="middle" x="544" y="-1271.2" font-family="Courier,monospace" font-size="11.00">Router</text>
</a>
</g>
<!-- \\Database\\Driver -->
<g id="node21" class="node"><title>\\Database\\Driver</title>
<a xlink:href="system.core.database.Driver.html" xlink:title="Driver" target="_parent">
<polygon fill="none" stroke="black" points="572.5,-2236 515.5,-2236 515.5,-2200 572.5,-2200 572.5,-2236"/>
<text text-anchor="middle" x="544" y="-2215.2" font-family="Courier,monospace" font-size="11.00">Driver</text>
</a>
</g>
<!-- \\PDO -->
<g id="node50" class="node"><title>\\PDO</title>
<ellipse fill="none" stroke="black" cx="272" cy="-2218" rx="31.6951" ry="18"/>
<text text-anchor="middle" x="272" y="-2214.3" font-family="Times New Roman,serif" font-size="14.00" fill="gray">\PDO</text>
</g>
<!-- \\Database\\Driver&#45;&gt;\\PDO -->
<g id="edge7" class="edge"><title>\\Database\\Driver&#45;&gt;\\PDO</title>
<path fill="none" stroke="black" d="M515.374,-2218C467.772,-2218 370.048,-2218 314.324,-2218"/>
<polygon fill="none" stroke="black" points="314.098,-2214.5 304.098,-2218 314.097,-2221.5 314.098,-2214.5"/>
</g>
<!-- \\Library\\Auth -->
<g id="node23" class="node"><title>\\Library\\Auth</title>
<a xlink:href="system.library.Auth.html" xlink:title="Auth" target="_parent">
<polygon fill="none" stroke="black" points="299,-1212 245,-1212 245,-1176 299,-1176 299,-1212"/>
<text text-anchor="middle" x="272" y="-1191.2" font-family="Courier,monospace" font-size="11.00">Auth</text>
</a>
</g>
<!-- \\Library\\InvalidUsernameException -->
<g id="node24" class="node"><title>\\Library\\InvalidUsernameException</title>
<a xlink:href="system.library.Auth.html" xlink:title="InvalidUsernameException" target="_parent">
<polygon fill="none" stroke="black" points="361.5,-1158 182.5,-1158 182.5,-1122 361.5,-1122 361.5,-1158"/>
<text text-anchor="middle" x="272" y="-1137.2" font-family="Courier,monospace" font-size="11.00">InvalidUsernameException</text>
</a>
</g>
<!-- \\Library\\InvalidUsernameException&#45;&gt;\\Exception -->
<g id="edge21" class="edge"><title>\\Library\\InvalidUsernameException&#45;&gt;\\Exception</title>
<path fill="none" stroke="black" d="M182.376,-1124.94C175.754,-1121.68 169.517,-1117.75 164,-1113 89.0873,-1048.51 62.7756,-926.122 54.459,-871.069"/>
<polygon fill="none" stroke="black" points="57.8993,-870.401 53.0266,-860.993 50.969,-871.387 57.8993,-870.401"/>
</g>
<!-- \\Library\\InvalidPasswordException -->
<g id="node25" class="node"><title>\\Library\\InvalidPasswordException</title>
<a xlink:href="system.library.Auth.html" xlink:title="InvalidPasswordException" target="_parent">
<polygon fill="none" stroke="black" points="361.5,-1104 182.5,-1104 182.5,-1068 361.5,-1068 361.5,-1104"/>
<text text-anchor="middle" x="272" y="-1083.2" font-family="Courier,monospace" font-size="11.00">InvalidPasswordException</text>
</a>
</g>
<!-- \\Library\\InvalidPasswordException&#45;&gt;\\Exception -->
<g id="edge23" class="edge"><title>\\Library\\InvalidPasswordException&#45;&gt;\\Exception</title>
<path fill="none" stroke="black" d="M182.277,-1070.17C175.757,-1067.08 169.565,-1063.39 164,-1059 101.889,-1010 70.233,-917.381 57.6735,-870.979"/>
<polygon fill="none" stroke="black" points="60.9872,-869.814 55.0808,-861.019 54.2129,-871.578 60.9872,-869.814"/>
</g>
<!-- \\Library\\InvalidEmailException -->
<g id="node26" class="node"><title>\\Library\\InvalidEmailException</title>
<a xlink:href="system.library.Auth.html" xlink:title="InvalidEmailException" target="_parent">
<polygon fill="none" stroke="black" points="351,-1050 193,-1050 193,-1014 351,-1014 351,-1050"/>
<text text-anchor="middle" x="272" y="-1029.2" font-family="Courier,monospace" font-size="11.00">InvalidEmailException</text>
</a>
</g>
<!-- \\Library\\InvalidEmailException&#45;&gt;\\Exception -->
<g id="edge25" class="edge"><title>\\Library\\InvalidEmailException&#45;&gt;\\Exception</title>
<path fill="none" stroke="black" d="M192.729,-1019.28C182.554,-1015.65 172.67,-1010.99 164,-1005 114.224,-970.62 79.3895,-906.693 62.5411,-870.268"/>
<polygon fill="none" stroke="black" points="65.5632,-868.454 58.2685,-860.771 59.1795,-871.326 65.5632,-868.454"/>
</g>
<!-- \\Library\\InvalidCredentialsException -->
<g id="node27" class="node"><title>\\Library\\InvalidCredentialsException</title>
<a xlink:href="system.library.Auth.html" xlink:title="InvalidCredentialsException" target="_parent">
<polygon fill="none" stroke="black" points="371.5,-996 172.5,-996 172.5,-960 371.5,-960 371.5,-996"/>
<text text-anchor="middle" x="272" y="-975.2" font-family="Courier,monospace" font-size="11.00">InvalidCredentialsException</text>
</a>
</g>
<!-- \\Library\\InvalidCredentialsException&#45;&gt;\\Exception -->
<g id="edge27" class="edge"><title>\\Library\\InvalidCredentialsException&#45;&gt;\\Exception</title>
<path fill="none" stroke="black" d="M183.403,-959.952C176.67,-957.35 170.12,-954.383 164,-951 126.018,-930.004 91.393,-893.094 70.7528,-868.346"/>
<polygon fill="none" stroke="black" points="73.3442,-865.986 64.3046,-860.46 67.9252,-870.417 73.3442,-865.986"/>
</g>
<!-- \\Library\\AccountExistsException -->
<g id="node28" class="node"><title>\\Library\\AccountExistsException</title>
<a xlink:href="system.library.Auth.html" xlink:title="AccountExistsException" target="_parent">
<polygon fill="none" stroke="black" points="354.5,-942 189.5,-942 189.5,-906 354.5,-906 354.5,-942"/>
<text text-anchor="middle" x="272" y="-921.2" font-family="Courier,monospace" font-size="11.00">AccountExistsException</text>
</a>
</g>
<!-- \\Library\\AccountExistsException&#45;&gt;\\Exception -->
<g id="edge29" class="edge"><title>\\Library\\AccountExistsException&#45;&gt;\\Exception</title>
<path fill="none" stroke="black" d="M191.866,-905.925C182.391,-903.205 172.92,-900.221 164,-897 137.516,-887.438 108.91,-873.732 87.1068,-862.521"/>
<polygon fill="none" stroke="black" points="88.6913,-859.4 78.2048,-857.889 85.4599,-865.61 88.6913,-859.4"/>
</g>
<!-- \\Library\\AccountBannedException -->
<g id="node29" class="node"><title>\\Library\\AccountBannedException</title>
<a xlink:href="system.library.Auth.html" xlink:title="AccountBannedException" target="_parent">
<polygon fill="none" stroke="black" points="354.5,-888 189.5,-888 189.5,-852 354.5,-852 354.5,-888"/>
<text text-anchor="middle" x="272" y="-867.2" font-family="Courier,monospace" font-size="11.00">AccountBannedException</text>
</a>
</g>
<!-- \\Library\\AccountBannedException&#45;&gt;\\Exception -->
<g id="edge31" class="edge"><title>\\Library\\AccountBannedException&#45;&gt;\\Exception</title>
<path fill="none" stroke="black" d="M189.393,-859.985C162.201,-856.647 132.525,-853.005 107.651,-849.953"/>
<polygon fill="none" stroke="black" points="108.014,-846.471 97.6621,-848.727 107.161,-853.419 108.014,-846.471"/>
</g>
<!-- \\Library\\IpBannedException -->
<g id="node30" class="node"><title>\\Library\\IpBannedException</title>
<a xlink:href="system.library.Auth.html" xlink:title="IpBannedException" target="_parent">
<polygon fill="none" stroke="black" points="337.5,-834 206.5,-834 206.5,-798 337.5,-798 337.5,-834"/>
<text text-anchor="middle" x="272" y="-813.2" font-family="Courier,monospace" font-size="11.00">IpBannedException</text>
</a>
</g>
<!-- \\Library\\IpBannedException&#45;&gt;\\Exception -->
<g id="edge33" class="edge"><title>\\Library\\IpBannedException&#45;&gt;\\Exception</title>
<path fill="none" stroke="black" d="M206.479,-823.918C175.154,-827.763 137.855,-832.34 107.644,-836.048"/>
<polygon fill="none" stroke="black" points="107.188,-832.578 97.6884,-837.27 108.04,-839.526 107.188,-832.578"/>
</g>
<!-- \\Library\\Cache -->
<g id="node31" class="node"><title>\\Library\\Cache</title>
<a xlink:href="system.library.Cache.html" xlink:title="Cache" target="_parent">
<polygon fill="none" stroke="black" points="299,-780 245,-780 245,-744 299,-744 299,-780"/>
<text text-anchor="middle" x="272" y="-759.2" font-family="Courier,monospace" font-size="11.00">Cache</text>
</a>
</g>
<!-- \\Library\\Mime -->
<g id="node32" class="node"><title>\\Library\\Mime</title>
<a xlink:href="system.library.Mime.html" xlink:title="Mime" target="_parent">
<polygon fill="none" stroke="black" points="299,-726 245,-726 245,-690 299,-690 299,-726"/>
<text text-anchor="middle" x="272" y="-705.2" font-family="Courier,monospace" font-size="11.00">Mime</text>
</a>
</g>
<!-- \\Library\\Parser -->
<g id="node33" class="node"><title>\\Library\\Parser</title>
<a xlink:href="system.library.Parser.html" xlink:title="Parser" target="_parent">
<polygon fill="none" stroke="black" points="300.5,-672 243.5,-672 243.5,-636 300.5,-636 300.5,-672"/>
<text text-anchor="middle" x="272" y="-651.2" font-family="Courier,monospace" font-size="11.00">Parser</text>
</a>
</g>
<!-- \\Library\\Template -->
<g id="node34" class="node"><title>\\Library\\Template</title>
<a xlink:href="system.library.Template.html" xlink:title="Template" target="_parent">
<polygon fill="none" stroke="black" points="307.5,-618 236.5,-618 236.5,-582 307.5,-582 307.5,-618"/>
<text text-anchor="middle" x="272" y="-597.2" font-family="Courier,monospace" font-size="11.00">Template</text>
</a>
</g>
<!-- \\Library\\ThemeNotSetException -->
<g id="node35" class="node"><title>\\Library\\ThemeNotSetException</title>
<a xlink:href="system.library.Template.html" xlink:title="ThemeNotSetException" target="_parent">
<polygon fill="none" stroke="black" points="348,-564 196,-564 196,-528 348,-528 348,-564"/>
<text text-anchor="middle" x="272" y="-543.2" font-family="Courier,monospace" font-size="11.00">ThemeNotSetException</text>
</a>
</g>
<!-- \\Library\\ThemeNotSetException&#45;&gt;\\Exception -->
<g id="edge35" class="edge"><title>\\Library\\ThemeNotSetException&#45;&gt;\\Exception</title>
<path fill="none" stroke="black" d="M195.848,-555.472C184.272,-559.491 173.147,-565.125 164,-573 89.0873,-637.494 62.7756,-759.878 54.459,-814.931"/>
<polygon fill="none" stroke="black" points="50.969,-814.613 53.0266,-825.007 57.8993,-815.599 50.969,-814.613"/>
</g>
<!-- \\Library\\InvalidThemePathException -->
<g id="node36" class="node"><title>\\Library\\InvalidThemePathException</title>
<a xlink:href="system.library.Template.html" xlink:title="InvalidThemePathException" target="_parent">
<polygon fill="none" stroke="black" points="364.5,-510 179.5,-510 179.5,-474 364.5,-474 364.5,-510"/>
<text text-anchor="middle" x="272" y="-489.2" font-family="Courier,monospace" font-size="11.00">InvalidThemePathException</text>
</a>
</g>
<!-- \\Library\\InvalidThemePathException&#45;&gt;\\Exception -->
<g id="edge37" class="edge"><title>\\Library\\InvalidThemePathException&#45;&gt;\\Exception</title>
<path fill="none" stroke="black" d="M179.492,-508.052C173.903,-511.114 168.664,-514.731 164,-519 76.1402,-599.417 56.5918,-751.847 52.2435,-814.757"/>
<polygon fill="none" stroke="black" points="48.7497,-814.549 51.6311,-824.745 55.7366,-814.978 48.7497,-814.549"/>
</g>
<!-- \\Library\\InvalidPageContents -->
<g id="node37" class="node"><title>\\Library\\InvalidPageContents</title>
<a xlink:href="system.library.Template.html" xlink:title="InvalidPageContents" target="_parent">
<polygon fill="none" stroke="black" points="344.5,-456 199.5,-456 199.5,-420 344.5,-420 344.5,-456"/>
<text text-anchor="middle" x="272" y="-435.2" font-family="Courier,monospace" font-size="11.00">InvalidPageContents</text>
</a>
</g>
<!-- \\Library\\InvalidPageContents&#45;&gt;\\Exception -->
<g id="edge39" class="edge"><title>\\Library\\InvalidPageContents&#45;&gt;\\Exception</title>
<path fill="none" stroke="black" d="M199.242,-445.27C186.253,-449.414 173.755,-455.658 164,-465 63.0399,-561.68 51.2358,-744.441 50.6005,-814.594"/>
<polygon fill="none" stroke="black" points="47.1001,-814.85 50.5824,-824.856 54.1001,-814.862 47.1001,-814.85"/>
</g>
<!-- \\Library\\MissingThemeConfigException -->
<g id="node38" class="node"><title>\\Library\\MissingThemeConfigException</title>
<a xlink:href="system.library.Template.html" xlink:title="MissingThemeConfigException" target="_parent">
<polygon fill="none" stroke="black" points="371.5,-402 172.5,-402 172.5,-366 371.5,-366 371.5,-402"/>
<text text-anchor="middle" x="272" y="-381.2" font-family="Courier,monospace" font-size="11.00">MissingThemeConfigException</text>
</a>
</g>
<!-- \\Library\\MissingThemeConfigException&#45;&gt;\\Exception -->
<g id="edge41" class="edge"><title>\\Library\\MissingThemeConfigException&#45;&gt;\\Exception</title>
<path fill="none" stroke="black" d="M175.171,-402.041C171.159,-404.657 167.401,-407.628 164,-411 105.528,-468.967 66.2918,-728.161 54.6264,-814.738"/>
<polygon fill="none" stroke="black" points="51.1278,-814.497 53.2816,-824.871 58.067,-815.418 51.1278,-814.497"/>
</g>
<!-- \\Library\\View -->
<g id="node39" class="node"><title>\\Library\\View</title>
<a xlink:href="system.library.View.html" xlink:title="View" target="_parent">
<polygon fill="none" stroke="black" points="299,-348 245,-348 245,-312 299,-312 299,-348"/>
<text text-anchor="middle" x="272" y="-327.2" font-family="Courier,monospace" font-size="11.00">View</text>
</a>
</g>
<!-- \\Library\\ViewNotFoundException -->
<g id="node40" class="node"><title>\\Library\\ViewNotFoundException</title>
<a xlink:href="system.library.View.html" xlink:title="ViewNotFoundException" target="_parent">
<polygon fill="none" stroke="black" points="351,-294 193,-294 193,-258 351,-258 351,-294"/>
<text text-anchor="middle" x="272" y="-273.2" font-family="Courier,monospace" font-size="11.00">ViewNotFoundException</text>
</a>
</g>
<!-- \\Library\\ViewNotFoundException&#45;&gt;\\Exception -->
<g id="edge43" class="edge"><title>\\Library\\ViewNotFoundException&#45;&gt;\\Exception</title>
<path fill="none" stroke="black" d="M192.877,-284.662C182.067,-288.818 171.96,-294.707 164,-303 91.997,-378.009 60.848,-714.188 53.046,-814.595"/>
<polygon fill="none" stroke="black" points="49.5333,-814.63 52.266,-824.867 56.5132,-815.16 49.5333,-814.63"/>
</g>
<!-- \\Library\\InvalidViewContents -->
<g id="node41" class="node"><title>\\Library\\InvalidViewContents</title>
<a xlink:href="system.library.View.html" xlink:title="InvalidViewContents" target="_parent">
<polygon fill="none" stroke="black" points="344.5,-240 199.5,-240 199.5,-204 344.5,-204 344.5,-240"/>
<text text-anchor="middle" x="272" y="-219.2" font-family="Courier,monospace" font-size="11.00">InvalidViewContents</text>
</a>
</g>
<!-- \\Library\\InvalidViewContents&#45;&gt;\\Exception -->
<g id="edge45" class="edge"><title>\\Library\\InvalidViewContents&#45;&gt;\\Exception</title>
<path fill="none" stroke="black" d="M199.294,-228.237C186.064,-232.434 173.461,-238.962 164,-249 85.1609,-332.649 58.5142,-707.884 52.4585,-814.604"/>
<polygon fill="none" stroke="black" points="48.9467,-814.723 51.8915,-824.9 55.9361,-815.108 48.9467,-814.723"/>
</g>
<!-- \\Wowlib\\Driver -->
<g id="node43" class="node"><title>\\Wowlib\\Driver</title>
<a xlink:href="system.wowlib.drivers.Driver.html" xlink:title="Driver" target="_parent">
<polygon fill="none" stroke="black" points="572.5,-2370 515.5,-2370 515.5,-2334 572.5,-2334 572.5,-2370"/>
<text text-anchor="middle" x="544" y="-2349.2" font-family="Courier,monospace" font-size="11.00">Driver</text>
</a>
</g>
<!-- \\Wowlib\\Wowlib -->
<g id="node44" class="node"><title>\\Wowlib\\Wowlib</title>
<a xlink:href="system.wowlib.Wowlib.html" xlink:title="Wowlib" target="_parent">
<polygon fill="none" stroke="black" points="572.5,-2316 515.5,-2316 515.5,-2280 572.5,-2280 572.5,-2316"/>
<text text-anchor="middle" x="544" y="-2295.2" font-family="Courier,monospace" font-size="11.00">Wowlib</text>
</a>
</g>
<!-- \\Plexis -->
<g id="node46" class="node"><title>\\Plexis</title>
<a xlink:href="system.Plexis.html" xlink:title="Plexis" target="_parent">
<polygon fill="none" stroke="black" points="300.5,-160 243.5,-160 243.5,-124 300.5,-124 300.5,-160"/>
<text text-anchor="middle" x="272" y="-139.2" font-family="Courier,monospace" font-size="11.00">Plexis</text>
</a>
</g>
<!-- \\System -->
<g id="node47" class="node"><title>\\System</title>
<a xlink:href="system.System.html" xlink:title="System" target="_parent">
<polygon fill="none" stroke="black" points="300.5,-106 243.5,-106 243.5,-70 300.5,-70 300.5,-106"/>
<text text-anchor="middle" x="272" y="-85.2" font-family="Courier,monospace" font-size="11.00">System</text>
</a>
</g>
<!-- \\SystemError -->
<g id="node48" class="node"><title>\\SystemError</title>
<a xlink:href="system.System.html" xlink:title="SystemError" target="_parent">
<polygon fill="none" stroke="black" points="317.5,-52 226.5,-52 226.5,-16 317.5,-16 317.5,-52"/>
<text text-anchor="middle" x="272" y="-31.2" font-family="Courier,monospace" font-size="11.00">SystemError</text>
</a>
</g>
<!-- \\SystemError&#45;&gt;\\Exception -->
<g id="edge47" class="edge"><title>\\SystemError&#45;&gt;\\Exception</title>
<path fill="none" stroke="black" d="M226.334,-34.209C204.479,-36.7495 179.585,-43.7094 164,-61 61.151,-175.105 51.7713,-688.121 51.0341,-814.701"/>
<polygon fill="none" stroke="black" points="47.5339,-814.749 50.9896,-824.764 54.5339,-814.78 47.5339,-814.749"/>
</g>
</g>
</svg>
