<?xml version="1.0" encoding="UTF-8" standalone="no"?>
<!DOCTYPE svg PUBLIC "-//W3C//DTD SVG 1.1//EN"
 "http://www.w3.org/Graphics/SVG/1.1/DTD/svg11.dtd">
<!-- Generated by graphviz version 2.28.0 (20110507.0327)
 -->
<!-- Title: G Pages: 1 -->
<svg width="668pt" height="2360pt"
 viewBox="0.00 0.00 668.00 2360.00" xmlns="http://www.w3.org/2000/svg" xmlns:xlink="http://www.w3.org/1999/xlink">
<g id="graph1" class="graph" transform="scale(1 1) rotate(0) translate(4 2356)">
<title>G</title>
<polygon fill="white" stroke="white" points="-4,5 -4,-2356 665,-2356 665,5 -4,5"/>
<g id="graph2" class="cluster"><title>cluster_Core</title>
<polyline fill="none" stroke="gray" points="210,-1060 640,-1060 "/>
<path fill="none" stroke="gray" d="M640,-1060C646,-1060 652,-1066 652,-1072"/>
<polyline fill="none" stroke="gray" points="652,-1072 652,-1984 "/>
<path fill="none" stroke="gray" d="M652,-1984C652,-1990 646,-1996 640,-1996"/>
<polyline fill="none" stroke="gray" points="640,-1996 210,-1996 "/>
<path fill="none" stroke="gray" d="M210,-1996C204,-1996 198,-1990 198,-1984"/>
<polyline fill="none" stroke="gray" points="198,-1984 198,-1072 "/>
<path fill="none" stroke="gray" d="M198,-1072C198,-1066 204,-1060 210,-1060"/>
<text text-anchor="middle" x="425" y="-1983.2" font-family="Times New Roman,serif" font-size="11.00" fill="gray">Core</text>
</g>
<g id="graph3" class="cluster"><title>cluster_Database</title>
<polyline fill="none" stroke="gray" points="519,-2004 569,-2004 "/>
<path fill="none" stroke="gray" d="M569,-2004C575,-2004 581,-2010 581,-2016"/>
<polyline fill="none" stroke="gray" points="581,-2016 581,-2064 "/>
<path fill="none" stroke="gray" d="M581,-2064C581,-2070 575,-2076 569,-2076"/>
<polyline fill="none" stroke="gray" points="569,-2076 519,-2076 "/>
<path fill="none" stroke="gray" d="M519,-2076C513,-2076 507,-2070 507,-2064"/>
<polyline fill="none" stroke="gray" points="507,-2064 507,-2016 "/>
<path fill="none" stroke="gray" d="M507,-2016C507,-2010 513,-2004 519,-2004"/>
<text text-anchor="middle" x="544" y="-2063.2" font-family="Times New Roman,serif" font-size="11.00" fill="gray">Database</text>
</g>
<g id="graph4" class="cluster"><title>cluster_Library</title>
<polyline fill="none" stroke="gray" points="176,-8 368,-8 "/>
<path fill="none" stroke="gray" d="M368,-8C374,-8 380,-14 380,-20"/>
<polyline fill="none" stroke="gray" points="380,-20 380,-1040 "/>
<path fill="none" stroke="gray" d="M380,-1040C380,-1046 374,-1052 368,-1052"/>
<polyline fill="none" stroke="gray" points="368,-1052 176,-1052 "/>
<path fill="none" stroke="gray" d="M176,-1052C170,-1052 164,-1046 164,-1040"/>
<polyline fill="none" stroke="gray" points="164,-1040 164,-20 "/>
<path fill="none" stroke="gray" d="M164,-20C164,-14 170,-8 176,-8"/>
<text text-anchor="middle" x="272" y="-1039.2" font-family="Times New Roman,serif" font-size="11.00" fill="gray">Library</text>
</g>
<g id="graph5" class="cluster"><title>cluster_Wowlib</title>
<polyline fill="none" stroke="gray" points="519,-2084 569,-2084 "/>
<path fill="none" stroke="gray" d="M569,-2084C575,-2084 581,-2090 581,-2096"/>
<polyline fill="none" stroke="gray" points="581,-2096 581,-2198 "/>
<path fill="none" stroke="gray" d="M581,-2198C581,-2204 575,-2210 569,-2210"/>
<polyline fill="none" stroke="gray" points="569,-2210 519,-2210 "/>
<path fill="none" stroke="gray" d="M519,-2210C513,-2210 507,-2204 507,-2198"/>
<polyline fill="none" stroke="gray" points="507,-2198 507,-2096 "/>
<path fill="none" stroke="gray" d="M507,-2096C507,-2090 513,-2084 519,-2084"/>
<text text-anchor="middle" x="544" y="-2197.2" font-family="Times New Roman,serif" font-size="11.00" fill="gray">Wowlib</text>
</g>
<g id="graph6" class="cluster"><title>cluster_global</title>
<polyline fill="none" stroke="gray" points="519,-2218 569,-2218 "/>
<path fill="none" stroke="gray" d="M569,-2218C575,-2218 581,-2224 581,-2230"/>
<polyline fill="none" stroke="gray" points="581,-2230 581,-2332 "/>
<path fill="none" stroke="gray" d="M581,-2332C581,-2338 575,-2344 569,-2344"/>
<polyline fill="none" stroke="gray" points="569,-2344 519,-2344 "/>
<path fill="none" stroke="gray" d="M519,-2344C513,-2344 507,-2338 507,-2332"/>
<polyline fill="none" stroke="gray" points="507,-2332 507,-2230 "/>
<path fill="none" stroke="gray" d="M507,-2230C507,-2224 513,-2218 519,-2218"/>
<text text-anchor="middle" x="544" y="-2331.2" font-family="Times New Roman,serif" font-size="11.00" fill="gray">global</text>
</g>
<!-- \\Core\\AutoLoader -->
<g id="node2" class="node"><title>\\Core\\AutoLoader</title>
<a xlink:href="system.core.AutoLoader.html" xlink:title="AutoLoader" target="_parent">
<polygon fill="none" stroke="black" points="586,-1968 502,-1968 502,-1932 586,-1932 586,-1968"/>
<text text-anchor="middle" x="544" y="-1947.2" font-family="Courier,monospace" font-size="11.00">AutoLoader</text>
</a>
</g>
<!-- \\Core\\Benchmark -->
<g id="node3" class="node"><title>\\Core\\Benchmark</title>
<a xlink:href="system.core.Benchmark.html" xlink:title="Benchmark" target="_parent">
<polygon fill="none" stroke="black" points="582.5,-1914 505.5,-1914 505.5,-1878 582.5,-1878 582.5,-1914"/>
<text text-anchor="middle" x="544" y="-1893.2" font-family="Courier,monospace" font-size="11.00">Benchmark</text>
</a>
</g>
<!-- \\Core\\Config -->
<g id="node4" class="node"><title>\\Core\\Config</title>
<a xlink:href="system.core.Config.html" xlink:title="Config" target="_parent">
<polygon fill="none" stroke="black" points="572.5,-1860 515.5,-1860 515.5,-1824 572.5,-1824 572.5,-1860"/>
<text text-anchor="middle" x="544" y="-1839.2" font-family="Courier,monospace" font-size="11.00">Config</text>
</a>
</g>
<!-- \\Core\\Controller -->
<g id="node5" class="node"><title>\\Core\\Controller</title>
<a xlink:href="system.core.Controller.html" xlink:title="Controller" target="_parent">
<polygon fill="none" stroke="black" points="586,-1806 502,-1806 502,-1770 586,-1770 586,-1806"/>
<text text-anchor="middle" x="544" y="-1785.2" font-family="Courier,monospace" font-size="11.00">Controller</text>
</a>
</g>
<!-- \\Core\\Database -->
<g id="node6" class="node"><title>\\Core\\Database</title>
<a xlink:href="system.core.Database.html" xlink:title="Database" target="_parent">
<polygon fill="none" stroke="black" points="579.5,-1752 508.5,-1752 508.5,-1716 579.5,-1716 579.5,-1752"/>
<text text-anchor="middle" x="544" y="-1731.2" font-family="Courier,monospace" font-size="11.00">Database</text>
</a>
</g>
<!-- \\Core\\DatabaseConnectError -->
<g id="node7" class="node"><title>\\Core\\DatabaseConnectError</title>
<a xlink:href="system.core.Database.html" xlink:title="DatabaseConnectError" target="_parent">
<polygon fill="none" stroke="black" points="620,-1536 468,-1536 468,-1500 620,-1500 620,-1536"/>
<text text-anchor="middle" x="544" y="-1515.2" font-family="Courier,monospace" font-size="11.00">DatabaseConnectError</text>
</a>
</g>
<!-- \\Exception -->
<g id="node51" class="node"><title>\\Exception</title>
<ellipse fill="none" stroke="black" cx="50" cy="-682" rx="50.0912" ry="18"/>
<text text-anchor="middle" x="50" y="-678.3" font-family="Times New Roman,serif" font-size="14.00" fill="gray">\Exception</text>
</g>
<!-- \\Core\\DatabaseConnectError&#45;&gt;\\Exception -->
<g id="edge9" class="edge"><title>\\Core\\DatabaseConnectError&#45;&gt;\\Exception</title>
<path fill="none" stroke="black" d="M467.995,-1501.03C459.715,-1498.14 451.555,-1494.81 444,-1491 357.55,-1447.38 353.283,-1410.13 273,-1356"/>
</g>
<!-- \\Core\\Dispatch -->
<g id="node8" class="node"><title>\\Core\\Dispatch</title>
<a xlink:href="system.core.Dispatch.html" xlink:title="Dispatch" target="_parent">
<polygon fill="none" stroke="black" points="579.5,-1644 508.5,-1644 508.5,-1608 579.5,-1608 579.5,-1644"/>
<text text-anchor="middle" x="544" y="-1623.2" font-family="Courier,monospace" font-size="11.00">Dispatch</text>
</a>
</g>
<!-- \\Core\\NotFoundException -->
<g id="node9" class="node"><title>\\Core\\NotFoundException</title>
<a xlink:href="system.core.Dispatch.html" xlink:title="NotFoundException" target="_parent">
<polygon fill="none" stroke="black" points="337.5,-1590 206.5,-1590 206.5,-1554 337.5,-1554 337.5,-1590"/>
<text text-anchor="middle" x="272" y="-1569.2" font-family="Courier,monospace" font-size="11.00">NotFoundException</text>
</a>
</g>
<!-- \\Core\\NotFoundException&#45;&gt;\\Exception -->
<g id="edge11" class="edge"><title>\\Core\\NotFoundException&#45;&gt;\\Exception</title>
<path fill="none" stroke="black" d="M206.243,-1571.47C190.456,-1568.2 174.973,-1561.81 164,-1550 47.2846,-1424.4 48.5316,-845.798 50.467,-710.4"/>
<polygon fill="none" stroke="black" points="53.972,-710.105 50.6293,-700.051 46.9729,-709.995 53.972,-710.105"/>
</g>
<!-- \\Core\\ControllerNotFoundException -->
<g id="node10" class="node"><title>\\Core\\ControllerNotFoundException</title>
<a xlink:href="system.core.Dispatch.html" xlink:title="ControllerNotFoundException" target="_parent">
<polygon fill="none" stroke="black" points="643.5,-1590 444.5,-1590 444.5,-1554 643.5,-1554 643.5,-1590"/>
<text text-anchor="middle" x="544" y="-1569.2" font-family="Courier,monospace" font-size="11.00">ControllerNotFoundException</text>
</a>
</g>
<!-- \\Core\\ControllerNotFoundException&#45;&gt;\\Core\\NotFoundException -->
<g id="edge13" class="edge"><title>\\Core\\ControllerNotFoundException&#45;&gt;\\Core\\NotFoundException</title>
<path fill="none" stroke="black" d="M444.378,-1572C412.576,-1572 377.863,-1572 348.047,-1572"/>
<polygon fill="none" stroke="black" points="347.717,-1568.5 337.717,-1572 347.717,-1575.5 347.717,-1568.5"/>
</g>
<!-- \\Core\\MethodNotFoundException -->
<g id="node11" class="node"><title>\\Core\\MethodNotFoundException</title>
<a xlink:href="system.core.Dispatch.html" xlink:title="MethodNotFoundException" target="_parent">
<polygon fill="none" stroke="black" points="630,-1698 458,-1698 458,-1662 630,-1662 630,-1698"/>
<text text-anchor="middle" x="544" y="-1677.2" font-family="Courier,monospace" font-size="11.00">MethodNotFoundException</text>
</a>
</g>
<!-- \\Core\\MethodNotFoundException&#45;&gt;\\Core\\NotFoundException -->
<g id="edge15" class="edge"><title>\\Core\\MethodNotFoundException&#45;&gt;\\Core\\NotFoundException</title>
<path fill="none" stroke="black" d="M463.296,-1661.94C456.603,-1659.33 450.079,-1656.36 444,-1653 410.152,-1634.27 414.426,-1611.65 380,-1594 369.95,-1588.85 358.785,-1584.9 347.567,-1581.88"/>
<polygon fill="none" stroke="black" points="348.27,-1578.45 337.723,-1579.45 346.596,-1585.24 348.27,-1578.45"/>
</g>
<!-- \\Core\\ErrorHandler -->
<g id="node12" class="node"><title>\\Core\\ErrorHandler</title>
<a xlink:href="system.core.ErrorHandler.html" xlink:title="ErrorHandler" target="_parent">
<polygon fill="none" stroke="black" points="593,-1482 495,-1482 495,-1446 593,-1446 593,-1482"/>
<text text-anchor="middle" x="544" y="-1461.2" font-family="Courier,monospace" font-size="11.00">ErrorHandler</text>
</a>
</g>
<!-- \\Core\\EventHandler -->
<g id="node13" class="node"><title>\\Core\\EventHandler</title>
<a xlink:href="system.core.EventHandler.html" xlink:title="EventHandler" target="_parent">
<polygon fill="none" stroke="black" points="593,-1428 495,-1428 495,-1392 593,-1392 593,-1428"/>
<text text-anchor="middle" x="544" y="-1407.2" font-family="Courier,monospace" font-size="11.00">EventHandler</text>
</a>
</g>
<!-- \\Core\\InvalidCallableException -->
<g id="node14" class="node"><title>\\Core\\InvalidCallableException</title>
<a xlink:href="system.core.EventHandler.html" xlink:title="InvalidCallableException" target="_parent">
<polygon fill="none" stroke="black" points="633.5,-1374 454.5,-1374 454.5,-1338 633.5,-1338 633.5,-1374"/>
<text text-anchor="middle" x="544" y="-1353.2" font-family="Courier,monospace" font-size="11.00">InvalidCallableException</text>
</a>
</g>
<!-- \\Core\\InvalidCallableException&#45;&gt;\\Exception -->
<g id="edge17" class="edge"><title>\\Core\\InvalidCallableException&#45;&gt;\\Exception</title>
<path fill="none" stroke="black" d="M482.423,-1374.01C423.703,-1387.61 334.698,-1397.6 273,-1356"/>
</g>
<!-- \\Core\\Filesystem -->
<g id="node15" class="node"><title>\\Core\\Filesystem</title>
<a xlink:href="system.core.Filesystem.html" xlink:title="Filesystem" target="_parent">
<polygon fill="none" stroke="black" points="586,-1320 502,-1320 502,-1284 586,-1284 586,-1320"/>
<text text-anchor="middle" x="544" y="-1299.2" font-family="Courier,monospace" font-size="11.00">Filesystem</text>
</a>
</g>
<!-- \\Core\\Request -->
<g id="node16" class="node"><title>\\Core\\Request</title>
<a xlink:href="system.core.Request.html" xlink:title="Request" target="_parent">
<polygon fill="none" stroke="black" points="576,-1266 512,-1266 512,-1230 576,-1230 576,-1266"/>
<text text-anchor="middle" x="544" y="-1245.2" font-family="Courier,monospace" font-size="11.00">Request</text>
</a>
</g>
<!-- \\Core\\Response -->
<g id="node17" class="node"><title>\\Core\\Response</title>
<a xlink:href="system.core.Response.html" xlink:title="Response" target="_parent">
<polygon fill="none" stroke="black" points="579.5,-1212 508.5,-1212 508.5,-1176 579.5,-1176 579.5,-1212"/>
<text text-anchor="middle" x="544" y="-1191.2" font-family="Courier,monospace" font-size="11.00">Response</text>
</a>
</g>
<!-- \\Core\\OutputSentException -->
<g id="node18" class="node"><title>\\Core\\OutputSentException</title>
<a xlink:href="system.core.Response.html" xlink:title="OutputSentException" target="_parent">
<polygon fill="none" stroke="black" points="616.5,-1158 471.5,-1158 471.5,-1122 616.5,-1122 616.5,-1158"/>
<text text-anchor="middle" x="544" y="-1137.2" font-family="Courier,monospace" font-size="11.00">OutputSentException</text>
</a>
</g>
<!-- \\Core\\OutputSentException&#45;&gt;\\Exception -->
<g id="edge19" class="edge"><title>\\Core\\OutputSentException&#45;&gt;\\Exception</title>
<path fill="none" stroke="black" d="M271,-1356C157.56,-1279.51 75.2368,-827.594 55.5337,-709.973"/>
<polygon fill="none" stroke="black" points="58.9615,-709.248 53.8725,-699.956 52.0558,-710.394 58.9615,-709.248"/>
<path fill="none" stroke="black" d="M471.446,-1154.22C461.85,-1157.63 452.425,-1161.83 444,-1167 347.475,-1226.29 366.921,-1419.33 273,-1356"/>
</g>
<!-- \\Core\\Router -->
<g id="node19" class="node"><title>\\Core\\Router</title>
<a xlink:href="system.core.Router.html" xlink:title="Router" target="_parent">
<polygon fill="none" stroke="black" points="572.5,-1104 515.5,-1104 515.5,-1068 572.5,-1068 572.5,-1104"/>
<text text-anchor="middle" x="544" y="-1083.2" font-family="Courier,monospace" font-size="11.00">Router</text>
</a>
</g>
<!-- \\Database\\Driver -->
<g id="node21" class="node"><title>\\Database\\Driver</title>
<a xlink:href="system.core.database.Driver.html" xlink:title="Driver" target="_parent">
<polygon fill="none" stroke="black" points="572.5,-2048 515.5,-2048 515.5,-2012 572.5,-2012 572.5,-2048"/>
<text text-anchor="middle" x="544" y="-2027.2" font-family="Courier,monospace" font-size="11.00">Driver</text>
</a>
</g>
<!-- \\PDO -->
<g id="node49" class="node"><title>\\PDO</title>
<ellipse fill="none" stroke="black" cx="272" cy="-2030" rx="31.6951" ry="18"/>
<text text-anchor="middle" x="272" y="-2026.3" font-family="Times New Roman,serif" font-size="14.00" fill="gray">\PDO</text>
</g>
<!-- \\Database\\Driver&#45;&gt;\\PDO -->
<g id="edge7" class="edge"><title>\\Database\\Driver&#45;&gt;\\PDO</title>
<path fill="none" stroke="black" d="M515.374,-2030C467.772,-2030 370.048,-2030 314.324,-2030"/>
<polygon fill="none" stroke="black" points="314.098,-2026.5 304.098,-2030 314.097,-2033.5 314.098,-2026.5"/>
</g>
<!-- \\Library\\Auth -->
<g id="node23" class="node"><title>\\Library\\Auth</title>
<a xlink:href="system.library.Auth.html" xlink:title="Auth" target="_parent">
<polygon fill="none" stroke="black" points="299,-1024 245,-1024 245,-988 299,-988 299,-1024"/>
<text text-anchor="middle" x="272" y="-1003.2" font-family="Courier,monospace" font-size="11.00">Auth</text>
</a>
</g>
<!-- \\Library\\InvalidUsernameException -->
<g id="node24" class="node"><title>\\Library\\InvalidUsernameException</title>
<a xlink:href="system.library.Auth.html" xlink:title="InvalidUsernameException" target="_parent">
<polygon fill="none" stroke="black" points="361.5,-970 182.5,-970 182.5,-934 361.5,-934 361.5,-970"/>
<text text-anchor="middle" x="272" y="-949.2" font-family="Courier,monospace" font-size="11.00">InvalidUsernameException</text>
</a>
</g>
<!-- \\Library\\InvalidUsernameException&#45;&gt;\\Exception -->
<g id="edge21" class="edge"><title>\\Library\\InvalidUsernameException&#45;&gt;\\Exception</title>
<path fill="none" stroke="black" d="M182.311,-936.579C175.744,-933.399 169.535,-929.581 164,-925 95.5688,-868.366 66.3576,-761.051 55.928,-710.148"/>
<polygon fill="none" stroke="black" points="59.3332,-709.324 53.9802,-700.181 52.4632,-710.667 59.3332,-709.324"/>
</g>
<!-- \\Library\\InvalidPasswordException -->
<g id="node25" class="node"><title>\\Library\\InvalidPasswordException</title>
<a xlink:href="system.library.Auth.html" xlink:title="InvalidPasswordException" target="_parent">
<polygon fill="none" stroke="black" points="361.5,-916 182.5,-916 182.5,-880 361.5,-880 361.5,-916"/>
<text text-anchor="middle" x="272" y="-895.2" font-family="Courier,monospace" font-size="11.00">InvalidPasswordException</text>
</a>
</g>
<!-- \\Library\\InvalidPasswordException&#45;&gt;\\Exception -->
<g id="edge23" class="edge"><title>\\Library\\InvalidPasswordException&#45;&gt;\\Exception</title>
<path fill="none" stroke="black" d="M182.28,-881.695C175.797,-878.706 169.611,-875.174 164,-871 108.033,-829.369 74.4431,-751.074 59.7625,-709.525"/>
<polygon fill="none" stroke="black" points="63.0651,-708.366 56.5149,-700.038 56.4424,-710.633 63.0651,-708.366"/>
</g>
<!-- \\Library\\InvalidEmailException -->
<g id="node26" class="node"><title>\\Library\\InvalidEmailException</title>
<a xlink:href="system.library.Auth.html" xlink:title="InvalidEmailException" target="_parent">
<polygon fill="none" stroke="black" points="351,-862 193,-862 193,-826 351,-826 351,-862"/>
<text text-anchor="middle" x="272" y="-841.2" font-family="Courier,monospace" font-size="11.00">InvalidEmailException</text>
</a>
</g>
<!-- \\Library\\InvalidEmailException&#45;&gt;\\Exception -->
<g id="edge25" class="edge"><title>\\Library\\InvalidEmailException&#45;&gt;\\Exception</title>
<path fill="none" stroke="black" d="M192.921,-830.467C182.771,-826.962 172.844,-822.551 164,-817 120.364,-789.61 85.2003,-739.76 66.2706,-708.903"/>
<polygon fill="none" stroke="black" points="69.0676,-706.761 60.9256,-699.982 63.0629,-710.359 69.0676,-706.761"/>
</g>
<!-- \\Library\\InvalidCredentialsException -->
<g id="node27" class="node"><title>\\Library\\InvalidCredentialsException</title>
<a xlink:href="system.library.Auth.html" xlink:title="InvalidCredentialsException" target="_parent">
<polygon fill="none" stroke="black" points="371.5,-808 172.5,-808 172.5,-772 371.5,-772 371.5,-808"/>
<text text-anchor="middle" x="272" y="-787.2" font-family="Courier,monospace" font-size="11.00">InvalidCredentialsException</text>
</a>
</g>
<!-- \\Library\\InvalidCredentialsException&#45;&gt;\\Exception -->
<g id="edge27" class="edge"><title>\\Library\\InvalidCredentialsException&#45;&gt;\\Exception</title>
<path fill="none" stroke="black" d="M186.714,-771.949C178.897,-769.319 171.212,-766.347 164,-763 131.773,-748.042 99.2474,-723.506 77.4212,-705.352"/>
<polygon fill="none" stroke="black" points="79.4986,-702.525 69.6029,-698.74 74.9783,-707.87 79.4986,-702.525"/>
</g>
<!-- \\Library\\AccountExistsException -->
<g id="node28" class="node"><title>\\Library\\AccountExistsException</title>
<a xlink:href="system.library.Auth.html" xlink:title="AccountExistsException" target="_parent">
<polygon fill="none" stroke="black" points="354.5,-754 189.5,-754 189.5,-718 354.5,-718 354.5,-754"/>
<text text-anchor="middle" x="272" y="-733.2" font-family="Courier,monospace" font-size="11.00">AccountExistsException</text>
</a>
</g>
<!-- \\Library\\AccountExistsException&#45;&gt;\\Exception -->
<g id="edge29" class="edge"><title>\\Library\\AccountExistsException&#45;&gt;\\Exception</title>
<path fill="none" stroke="black" d="M197.437,-717.944C165.927,-710.209 129.92,-701.371 101.495,-694.394"/>
<polygon fill="none" stroke="black" points="102.323,-690.994 91.7773,-692.009 100.655,-697.792 102.323,-690.994"/>
</g>
<!-- \\Library\\AccountBannedException -->
<g id="node29" class="node"><title>\\Library\\AccountBannedException</title>
<a xlink:href="system.library.Auth.html" xlink:title="AccountBannedException" target="_parent">
<polygon fill="none" stroke="black" points="354.5,-700 189.5,-700 189.5,-664 354.5,-664 354.5,-700"/>
<text text-anchor="middle" x="272" y="-679.2" font-family="Courier,monospace" font-size="11.00">AccountBannedException</text>
</a>
</g>
<!-- \\Library\\AccountBannedException&#45;&gt;\\Exception -->
<g id="edge31" class="edge"><title>\\Library\\AccountBannedException&#45;&gt;\\Exception</title>
<path fill="none" stroke="black" d="M189.393,-682C163.178,-682 134.654,-682 110.35,-682"/>
<polygon fill="none" stroke="black" points="110.211,-678.5 100.211,-682 110.211,-685.5 110.211,-678.5"/>
</g>
<!-- \\Library\\IpBannedException -->
<g id="node30" class="node"><title>\\Library\\IpBannedException</title>
<a xlink:href="system.library.Auth.html" xlink:title="IpBannedException" target="_parent">
<polygon fill="none" stroke="black" points="337.5,-646 206.5,-646 206.5,-610 337.5,-610 337.5,-646"/>
<text text-anchor="middle" x="272" y="-625.2" font-family="Courier,monospace" font-size="11.00">IpBannedException</text>
</a>
</g>
<!-- \\Library\\IpBannedException&#45;&gt;\\Exception -->
<g id="edge33" class="edge"><title>\\Library\\IpBannedException&#45;&gt;\\Exception</title>
<path fill="none" stroke="black" d="M206.479,-643.837C173.072,-652.037 132.873,-661.904 101.72,-669.551"/>
<polygon fill="none" stroke="black" points="100.82,-666.167 91.9431,-671.95 102.489,-672.966 100.82,-666.167"/>
</g>
<!-- \\Library\\Cache -->
<g id="node31" class="node"><title>\\Library\\Cache</title>
<a xlink:href="system.library.Cache.html" xlink:title="Cache" target="_parent">
<polygon fill="none" stroke="black" points="299,-592 245,-592 245,-556 299,-556 299,-592"/>
<text text-anchor="middle" x="272" y="-571.2" font-family="Courier,monospace" font-size="11.00">Cache</text>
</a>
</g>
<!-- \\Library\\Mime -->
<g id="node32" class="node"><title>\\Library\\Mime</title>
<a xlink:href="system.library.Mime.html" xlink:title="Mime" target="_parent">
<polygon fill="none" stroke="black" points="299,-538 245,-538 245,-502 299,-502 299,-538"/>
<text text-anchor="middle" x="272" y="-517.2" font-family="Courier,monospace" font-size="11.00">Mime</text>
</a>
</g>
<!-- \\Library\\Parser -->
<g id="node33" class="node"><title>\\Library\\Parser</title>
<a xlink:href="system.library.Parser.html" xlink:title="Parser" target="_parent">
<polygon fill="none" stroke="black" points="300.5,-484 243.5,-484 243.5,-448 300.5,-448 300.5,-484"/>
<text text-anchor="middle" x="272" y="-463.2" font-family="Courier,monospace" font-size="11.00">Parser</text>
</a>
</g>
<!-- \\Library\\Template -->
<g id="node34" class="node"><title>\\Library\\Template</title>
<a xlink:href="system.library.Template.html" xlink:title="Template" target="_parent">
<polygon fill="none" stroke="black" points="307.5,-430 236.5,-430 236.5,-394 307.5,-394 307.5,-430"/>
<text text-anchor="middle" x="272" y="-409.2" font-family="Courier,monospace" font-size="11.00">Template</text>
</a>
</g>
<!-- \\Library\\ThemeNotSetException -->
<g id="node35" class="node"><title>\\Library\\ThemeNotSetException</title>
<a xlink:href="system.library.Template.html" xlink:title="ThemeNotSetException" target="_parent">
<polygon fill="none" stroke="black" points="348,-376 196,-376 196,-340 348,-340 348,-376"/>
<text text-anchor="middle" x="272" y="-355.2" font-family="Courier,monospace" font-size="11.00">ThemeNotSetException</text>
</a>
</g>
<!-- \\Library\\ThemeNotSetException&#45;&gt;\\Exception -->
<g id="edge35" class="edge"><title>\\Library\\ThemeNotSetException&#45;&gt;\\Exception</title>
<path fill="none" stroke="black" d="M195.901,-367.121C184.251,-371.176 173.088,-376.912 164,-385 82.7184,-457.333 59.608,-594.492 53.2807,-653.661"/>
<polygon fill="none" stroke="black" points="49.7824,-653.473 52.2843,-663.768 56.7486,-654.159 49.7824,-653.473"/>
</g>
<!-- \\Library\\InvalidThemePathException -->
<g id="node36" class="node"><title>\\Library\\InvalidThemePathException</title>
<a xlink:href="system.library.Template.html" xlink:title="InvalidThemePathException" target="_parent">
<polygon fill="none" stroke="black" points="364.5,-322 179.5,-322 179.5,-286 364.5,-286 364.5,-322"/>
<text text-anchor="middle" x="272" y="-301.2" font-family="Courier,monospace" font-size="11.00">InvalidThemePathException</text>
</a>
</g>
<!-- \\Library\\InvalidThemePathException&#45;&gt;\\Exception -->
<g id="edge37" class="edge"><title>\\Library\\InvalidThemePathException&#45;&gt;\\Exception</title>
<path fill="none" stroke="black" d="M179.374,-319.925C173.813,-323.017 168.612,-326.675 164,-331 69.5562,-419.56 53.8104,-587.256 51.362,-653.781"/>
<polygon fill="none" stroke="black" points="47.8594,-653.822 51.0655,-663.92 54.8565,-654.027 47.8594,-653.822"/>
</g>
<!-- \\Library\\InvalidPageContents -->
<g id="node37" class="node"><title>\\Library\\InvalidPageContents</title>
<a xlink:href="system.library.Template.html" xlink:title="InvalidPageContents" target="_parent">
<polygon fill="none" stroke="black" points="344.5,-268 199.5,-268 199.5,-232 344.5,-232 344.5,-268"/>
<text text-anchor="middle" x="272" y="-247.2" font-family="Courier,monospace" font-size="11.00">InvalidPageContents</text>
</a>
</g>
<!-- \\Library\\InvalidPageContents&#45;&gt;\\Exception -->
<g id="edge39" class="edge"><title>\\Library\\InvalidPageContents&#45;&gt;\\Exception</title>
<path fill="none" stroke="black" d="M199.382,-257.041C186.304,-261.196 173.738,-267.502 164,-277 108.807,-330.835 67.7596,-571.585 55.0934,-654.125"/>
<polygon fill="none" stroke="black" points="51.6291,-653.626 53.5926,-664.038 58.5502,-654.674 51.6291,-653.626"/>
</g>
<!-- \\Library\\MissingThemeConfigException -->
<g id="node38" class="node"><title>\\Library\\MissingThemeConfigException</title>
<a xlink:href="system.library.Template.html" xlink:title="MissingThemeConfigException" target="_parent">
<polygon fill="none" stroke="black" points="371.5,-214 172.5,-214 172.5,-178 371.5,-178 371.5,-214"/>
<text text-anchor="middle" x="272" y="-193.2" font-family="Courier,monospace" font-size="11.00">MissingThemeConfigException</text>
</a>
</g>
<!-- \\Library\\MissingThemeConfigException&#45;&gt;\\Exception -->
<g id="edge41" class="edge"><title>\\Library\\MissingThemeConfigException&#45;&gt;\\Exception</title>
<path fill="none" stroke="black" d="M174.633,-214.299C170.816,-216.853 167.242,-219.739 164,-223 102.143,-285.216 64.7885,-563.679 54.1558,-653.777"/>
<polygon fill="none" stroke="black" points="50.6684,-653.466 52.9917,-663.803 57.6217,-654.274 50.6684,-653.466"/>
</g>
<!-- \\Library\\View -->
<g id="node39" class="node"><title>\\Library\\View</title>
<a xlink:href="system.library.View.html" xlink:title="View" target="_parent">
<polygon fill="none" stroke="black" points="299,-160 245,-160 245,-124 299,-124 299,-160"/>
<text text-anchor="middle" x="272" y="-139.2" font-family="Courier,monospace" font-size="11.00">View</text>
</a>
</g>
<!-- \\Library\\ViewNotFoundException -->
<g id="node40" class="node"><title>\\Library\\ViewNotFoundException</title>
<a xlink:href="system.library.View.html" xlink:title="ViewNotFoundException" target="_parent">
<polygon fill="none" stroke="black" points="351,-106 193,-106 193,-70 351,-70 351,-106"/>
<text text-anchor="middle" x="272" y="-85.2" font-family="Courier,monospace" font-size="11.00">ViewNotFoundException</text>
</a>
</g>
<!-- \\Library\\ViewNotFoundException&#45;&gt;\\Exception -->
<g id="edge43" class="edge"><title>\\Library\\ViewNotFoundException&#45;&gt;\\Exception</title>
<path fill="none" stroke="black" d="M192.807,-96.5957C182.006,-100.76 171.921,-106.669 164,-115 88.5186,-194.39 59.6038,-550.602 52.721,-653.863"/>
<polygon fill="none" stroke="black" points="49.2278,-653.646 52.072,-663.852 56.2131,-654.1 49.2278,-653.646"/>
</g>
<!-- \\Library\\InvalidViewContents -->
<g id="node41" class="node"><title>\\Library\\InvalidViewContents</title>
<a xlink:href="system.library.View.html" xlink:title="InvalidViewContents" target="_parent">
<polygon fill="none" stroke="black" points="344.5,-52 199.5,-52 199.5,-16 344.5,-16 344.5,-52"/>
<text text-anchor="middle" x="272" y="-31.2" font-family="Courier,monospace" font-size="11.00">InvalidViewContents</text>
</a>
</g>
<!-- \\Library\\InvalidViewContents&#45;&gt;\\Exception -->
<g id="edge45" class="edge"><title>\\Library\\InvalidViewContents&#45;&gt;\\Exception</title>
<path fill="none" stroke="black" d="M199.231,-40.1782C186.006,-44.3799 173.421,-50.9239 164,-61 81.6953,-149.028 57.4046,-544.195 52.1952,-653.756"/>
<polygon fill="none" stroke="black" points="48.6868,-653.859 51.7244,-664.009 55.6795,-654.18 48.6868,-653.859"/>
</g>
<!-- \\Wowlib\\Driver -->
<g id="node43" class="node"><title>\\Wowlib\\Driver</title>
<a xlink:href="system.wowlib.drivers.Driver.html" xlink:title="Driver" target="_parent">
<polygon fill="none" stroke="black" points="572.5,-2182 515.5,-2182 515.5,-2146 572.5,-2146 572.5,-2182"/>
<text text-anchor="middle" x="544" y="-2161.2" font-family="Courier,monospace" font-size="11.00">Driver</text>
</a>
</g>
<!-- \\Wowlib\\Wowlib -->
<g id="node44" class="node"><title>\\Wowlib\\Wowlib</title>
<a xlink:href="system.wowlib.Wowlib.html" xlink:title="Wowlib" target="_parent">
<polygon fill="none" stroke="black" points="572.5,-2128 515.5,-2128 515.5,-2092 572.5,-2092 572.5,-2128"/>
<text text-anchor="middle" x="544" y="-2107.2" font-family="Courier,monospace" font-size="11.00">Wowlib</text>
</a>
</g>
<!-- \\Plexis -->
<g id="node46" class="node"><title>\\Plexis</title>
<a xlink:href="system.Plexis.html" xlink:title="Plexis" target="_parent">
<polygon fill="none" stroke="black" points="572.5,-2316 515.5,-2316 515.5,-2280 572.5,-2280 572.5,-2316"/>
<text text-anchor="middle" x="544" y="-2295.2" font-family="Courier,monospace" font-size="11.00">Plexis</text>
</a>
</g>
<!-- \\System -->
<g id="node47" class="node"><title>\\System</title>
<a xlink:href="system.System.html" xlink:title="System" target="_parent">
<polygon fill="none" stroke="black" points="572.5,-2262 515.5,-2262 515.5,-2226 572.5,-2226 572.5,-2262"/>
<text text-anchor="middle" x="544" y="-2241.2" font-family="Courier,monospace" font-size="11.00">System</text>
</a>
</g>
</g>
</svg>
