<?xml version="1.0" encoding="UTF-8" standalone="no"?>
<!DOCTYPE svg PUBLIC "-//W3C//DTD SVG 1.1//EN"
 "http://www.w3.org/Graphics/SVG/1.1/DTD/svg11.dtd">
<!-- Generated by graphviz version 2.28.0 (20110507.0327)
 -->
<!-- Title: G Pages: 1 -->
<svg width="600pt" height="2092pt"
 viewBox="0.00 0.00 600.00 2092.00" xmlns="http://www.w3.org/2000/svg" xmlns:xlink="http://www.w3.org/1999/xlink">
<g id="graph1" class="graph" transform="scale(1 1) rotate(0) translate(4 2088)">
<title>G</title>
<polygon fill="white" stroke="white" points="-4,5 -4,-2088 597,-2088 597,5 -4,5"/>
<g id="graph2" class="cluster"><title>cluster_Core</title>
<polyline fill="none" stroke="gray" points="176,-1060 572,-1060 "/>
<path fill="none" stroke="gray" d="M572,-1060C578,-1060 584,-1066 584,-1072"/>
<polyline fill="none" stroke="gray" points="584,-1072 584,-1984 "/>
<path fill="none" stroke="gray" d="M584,-1984C584,-1990 578,-1996 572,-1996"/>
<polyline fill="none" stroke="gray" points="572,-1996 176,-1996 "/>
<path fill="none" stroke="gray" d="M176,-1996C170,-1996 164,-1990 164,-1984"/>
<polyline fill="none" stroke="gray" points="164,-1984 164,-1072 "/>
<path fill="none" stroke="gray" d="M164,-1072C164,-1066 170,-1060 176,-1060"/>
<text text-anchor="middle" x="374" y="-1983.2" font-family="Times New Roman,serif" font-size="11.00" fill="gray">Core</text>
</g>
<g id="graph3" class="cluster"><title>cluster_Database</title>
<polyline fill="none" stroke="gray" points="451,-2004 501,-2004 "/>
<path fill="none" stroke="gray" d="M501,-2004C507,-2004 513,-2010 513,-2016"/>
<polyline fill="none" stroke="gray" points="513,-2016 513,-2064 "/>
<path fill="none" stroke="gray" d="M513,-2064C513,-2070 507,-2076 501,-2076"/>
<polyline fill="none" stroke="gray" points="501,-2076 451,-2076 "/>
<path fill="none" stroke="gray" d="M451,-2076C445,-2076 439,-2070 439,-2064"/>
<polyline fill="none" stroke="gray" points="439,-2064 439,-2016 "/>
<path fill="none" stroke="gray" d="M439,-2016C439,-2010 445,-2004 451,-2004"/>
<text text-anchor="middle" x="476" y="-2063.2" font-family="Times New Roman,serif" font-size="11.00" fill="gray">Database</text>
</g>
<g id="graph4" class="cluster"><title>cluster_Library</title>
<polyline fill="none" stroke="gray" points="380,-8 572,-8 "/>
<path fill="none" stroke="gray" d="M572,-8C578,-8 584,-14 584,-20"/>
<polyline fill="none" stroke="gray" points="584,-20 584,-1040 "/>
<path fill="none" stroke="gray" d="M584,-1040C584,-1046 578,-1052 572,-1052"/>
<polyline fill="none" stroke="gray" points="572,-1052 380,-1052 "/>
<path fill="none" stroke="gray" d="M380,-1052C374,-1052 368,-1046 368,-1040"/>
<polyline fill="none" stroke="gray" points="368,-1040 368,-20 "/>
<path fill="none" stroke="gray" d="M368,-20C368,-14 374,-8 380,-8"/>
<text text-anchor="middle" x="476" y="-1039.2" font-family="Times New Roman,serif" font-size="11.00" fill="gray">Library</text>
</g>
<g id="graph5" class="cluster"><title>cluster_global</title>
<polyline fill="none" stroke="gray" points="179,-737 297,-737 "/>
<path fill="none" stroke="gray" d="M297,-737C303,-737 309,-743 309,-749"/>
<polyline fill="none" stroke="gray" points="309,-749 309,-959 "/>
<path fill="none" stroke="gray" d="M309,-959C309,-965 303,-971 297,-971"/>
<polyline fill="none" stroke="gray" points="297,-971 179,-971 "/>
<path fill="none" stroke="gray" d="M179,-971C173,-971 167,-965 167,-959"/>
<polyline fill="none" stroke="gray" points="167,-959 167,-749 "/>
<path fill="none" stroke="gray" d="M167,-749C167,-743 173,-737 179,-737"/>
<text text-anchor="middle" x="238" y="-958.2" font-family="Times New Roman,serif" font-size="11.00" fill="gray">global</text>
</g>
<!-- \\Core\\AutoLoader -->
<g id="node2" class="node"><title>\\Core\\AutoLoader</title>
<a xlink:href="system.core.AutoLoader.html" xlink:title="AutoLoader" target="_parent">
<polygon fill="none" stroke="black" points="518,-1968 434,-1968 434,-1932 518,-1932 518,-1968"/>
<text text-anchor="middle" x="476" y="-1947.2" font-family="Courier,monospace" font-size="11.00">AutoLoader</text>
</a>
</g>
<!-- \\Core\\Benchmark -->
<g id="node3" class="node"><title>\\Core\\Benchmark</title>
<a xlink:href="system.core.Benchmark.html" xlink:title="Benchmark" target="_parent">
<polygon fill="none" stroke="black" points="514.5,-1914 437.5,-1914 437.5,-1878 514.5,-1878 514.5,-1914"/>
<text text-anchor="middle" x="476" y="-1893.2" font-family="Courier,monospace" font-size="11.00">Benchmark</text>
</a>
</g>
<!-- \\Core\\Config -->
<g id="node4" class="node"><title>\\Core\\Config</title>
<a xlink:href="system.core.Config.html" xlink:title="Config" target="_parent">
<polygon fill="none" stroke="black" points="504.5,-1860 447.5,-1860 447.5,-1824 504.5,-1824 504.5,-1860"/>
<text text-anchor="middle" x="476" y="-1839.2" font-family="Courier,monospace" font-size="11.00">Config</text>
</a>
</g>
<!-- \\Core\\Controller -->
<g id="node5" class="node"><title>\\Core\\Controller</title>
<a xlink:href="system.core.Controller.html" xlink:title="Controller" target="_parent">
<polygon fill="none" stroke="black" points="518,-1806 434,-1806 434,-1770 518,-1770 518,-1806"/>
<text text-anchor="middle" x="476" y="-1785.2" font-family="Courier,monospace" font-size="11.00">Controller</text>
</a>
</g>
<!-- \\Core\\Database -->
<g id="node6" class="node"><title>\\Core\\Database</title>
<a xlink:href="system.core.Database.html" xlink:title="Database" target="_parent">
<polygon fill="none" stroke="black" points="511.5,-1752 440.5,-1752 440.5,-1716 511.5,-1716 511.5,-1752"/>
<text text-anchor="middle" x="476" y="-1731.2" font-family="Courier,monospace" font-size="11.00">Database</text>
</a>
</g>
<!-- \\Core\\DatabaseConnectError -->
<g id="node7" class="node"><title>\\Core\\DatabaseConnectError</title>
<a xlink:href="system.core.Database.html" xlink:title="DatabaseConnectError" target="_parent">
<polygon fill="none" stroke="black" points="552,-1158 400,-1158 400,-1122 552,-1122 552,-1158"/>
<text text-anchor="middle" x="476" y="-1137.2" font-family="Courier,monospace" font-size="11.00">DatabaseConnectError</text>
</a>
</g>
<!-- \\ApplicationError -->
<g id="node44" class="node"><title>\\ApplicationError</title>
<a xlink:href="system.Plexis.html" xlink:title="ApplicationError" target="_parent">
<polygon fill="none" stroke="black" points="300.5,-889 175.5,-889 175.5,-853 300.5,-853 300.5,-889"/>
<text text-anchor="middle" x="238" y="-868.2" font-family="Courier,monospace" font-size="11.00">ApplicationError</text>
</a>
</g>
<!-- \\Core\\DatabaseConnectError&#45;&gt;\\ApplicationError -->
<g id="edge8" class="edge"><title>\\Core\\DatabaseConnectError&#45;&gt;\\ApplicationError</title>
<path fill="none" stroke="black" d="M399.774,-1131.79C387.999,-1127.65 376.828,-1121.65 368,-1113 297.214,-1043.66 375.465,-971.49 309,-898 308.236,-897.155 307.441,-896.336 306.621,-895.542"/>
<polygon fill="none" stroke="black" points="308.575,-892.622 298.596,-889.064 304.179,-898.069 308.575,-892.622"/>
</g>
<!-- \\Core\\Dispatch -->
<g id="node8" class="node"><title>\\Core\\Dispatch</title>
<a xlink:href="system.core.Dispatch.html" xlink:title="Dispatch" target="_parent">
<polygon fill="none" stroke="black" points="511.5,-1644 440.5,-1644 440.5,-1608 511.5,-1608 511.5,-1644"/>
<text text-anchor="middle" x="476" y="-1623.2" font-family="Courier,monospace" font-size="11.00">Dispatch</text>
</a>
</g>
<!-- \\Core\\NotFoundException -->
<g id="node9" class="node"><title>\\Core\\NotFoundException</title>
<a xlink:href="system.core.Dispatch.html" xlink:title="NotFoundException" target="_parent">
<polygon fill="none" stroke="black" points="303.5,-1590 172.5,-1590 172.5,-1554 303.5,-1554 303.5,-1590"/>
<text text-anchor="middle" x="238" y="-1569.2" font-family="Courier,monospace" font-size="11.00">NotFoundException</text>
</a>
</g>
<!-- \\Exception -->
<g id="node51" class="node"><title>\\Exception</title>
<ellipse fill="none" stroke="black" cx="50" cy="-871" rx="50.0912" ry="18"/>
<text text-anchor="middle" x="50" y="-867.3" font-family="Times New Roman,serif" font-size="14.00" fill="gray">\Exception</text>
</g>
<!-- \\Core\\NotFoundException&#45;&gt;\\Exception -->
<g id="edge10" class="edge"><title>\\Core\\NotFoundException&#45;&gt;\\Exception</title>
<path fill="none" stroke="black" d="M172.254,-1557.35C169.234,-1555.22 166.448,-1552.78 164,-1550 76.6372,-1450.69 55.8692,-1015.45 51.8483,-899.478"/>
<polygon fill="none" stroke="black" points="55.3395,-899.152 51.5098,-889.274 48.3434,-899.384 55.3395,-899.152"/>
</g>
<!-- \\Core\\ControllerNotFoundException -->
<g id="node10" class="node"><title>\\Core\\ControllerNotFoundException</title>
<a xlink:href="system.core.Dispatch.html" xlink:title="ControllerNotFoundException" target="_parent">
<polygon fill="none" stroke="black" points="575.5,-1590 376.5,-1590 376.5,-1554 575.5,-1554 575.5,-1590"/>
<text text-anchor="middle" x="476" y="-1569.2" font-family="Courier,monospace" font-size="11.00">ControllerNotFoundException</text>
</a>
</g>
<!-- \\Core\\ControllerNotFoundException&#45;&gt;\\Core\\NotFoundException -->
<g id="edge12" class="edge"><title>\\Core\\ControllerNotFoundException&#45;&gt;\\Core\\NotFoundException</title>
<path fill="none" stroke="black" d="M376.282,-1572C355.416,-1572 333.722,-1572 313.908,-1572"/>
<polygon fill="none" stroke="black" points="313.732,-1568.5 303.732,-1572 313.732,-1575.5 313.732,-1568.5"/>
</g>
<!-- \\Core\\MethodNotFoundException -->
<g id="node11" class="node"><title>\\Core\\MethodNotFoundException</title>
<a xlink:href="system.core.Dispatch.html" xlink:title="MethodNotFoundException" target="_parent">
<polygon fill="none" stroke="black" points="562,-1698 390,-1698 390,-1662 562,-1662 562,-1698"/>
<text text-anchor="middle" x="476" y="-1677.2" font-family="Courier,monospace" font-size="11.00">MethodNotFoundException</text>
</a>
</g>
<!-- \\Core\\MethodNotFoundException&#45;&gt;\\Core\\NotFoundException -->
<g id="edge14" class="edge"><title>\\Core\\MethodNotFoundException&#45;&gt;\\Core\\NotFoundException</title>
<path fill="none" stroke="black" d="M389.809,-1663.06C382.219,-1660.21 374.831,-1656.88 368,-1653 338.395,-1636.2 340.149,-1616.72 310.598,-1595.74"/>
<polygon fill="none" stroke="black" points="312.174,-1592.59 301.881,-1590.07 308.36,-1598.46 312.174,-1592.59"/>
</g>
<!-- \\Core\\ErrorHandler -->
<g id="node12" class="node"><title>\\Core\\ErrorHandler</title>
<a xlink:href="system.core.ErrorHandler.html" xlink:title="ErrorHandler" target="_parent">
<polygon fill="none" stroke="black" points="525,-1482 427,-1482 427,-1446 525,-1446 525,-1482"/>
<text text-anchor="middle" x="476" y="-1461.2" font-family="Courier,monospace" font-size="11.00">ErrorHandler</text>
</a>
</g>
<!-- \\Core\\EventHandler -->
<g id="node13" class="node"><title>\\Core\\EventHandler</title>
<a xlink:href="system.core.EventHandler.html" xlink:title="EventHandler" target="_parent">
<polygon fill="none" stroke="black" points="525,-1428 427,-1428 427,-1392 525,-1392 525,-1428"/>
<text text-anchor="middle" x="476" y="-1407.2" font-family="Courier,monospace" font-size="11.00">EventHandler</text>
</a>
</g>
<!-- \\Core\\InvalidCallableException -->
<g id="node14" class="node"><title>\\Core\\InvalidCallableException</title>
<a xlink:href="system.core.EventHandler.html" xlink:title="InvalidCallableException" target="_parent">
<polygon fill="none" stroke="black" points="565.5,-1536 386.5,-1536 386.5,-1500 565.5,-1500 565.5,-1536"/>
<text text-anchor="middle" x="476" y="-1515.2" font-family="Courier,monospace" font-size="11.00">InvalidCallableException</text>
</a>
</g>
<!-- \\Core\\InvalidCallableException&#45;&gt;\\Exception -->
<g id="edge16" class="edge"><title>\\Core\\InvalidCallableException&#45;&gt;\\Exception</title>
<path fill="none" stroke="black" d="M386.497,-1500.75C339.519,-1488.5 282.647,-1468.49 239,-1437"/>
</g>
<!-- \\Core\\Filesystem -->
<g id="node15" class="node"><title>\\Core\\Filesystem</title>
<a xlink:href="system.core.Filesystem.html" xlink:title="Filesystem" target="_parent">
<polygon fill="none" stroke="black" points="518,-1320 434,-1320 434,-1284 518,-1284 518,-1320"/>
<text text-anchor="middle" x="476" y="-1299.2" font-family="Courier,monospace" font-size="11.00">Filesystem</text>
</a>
</g>
<!-- \\Core\\Request -->
<g id="node16" class="node"><title>\\Core\\Request</title>
<a xlink:href="system.core.Request.html" xlink:title="Request" target="_parent">
<polygon fill="none" stroke="black" points="508,-1266 444,-1266 444,-1230 508,-1230 508,-1266"/>
<text text-anchor="middle" x="476" y="-1245.2" font-family="Courier,monospace" font-size="11.00">Request</text>
</a>
</g>
<!-- \\Core\\Response -->
<g id="node17" class="node"><title>\\Core\\Response</title>
<a xlink:href="system.core.Response.html" xlink:title="Response" target="_parent">
<polygon fill="none" stroke="black" points="511.5,-1212 440.5,-1212 440.5,-1176 511.5,-1176 511.5,-1212"/>
<text text-anchor="middle" x="476" y="-1191.2" font-family="Courier,monospace" font-size="11.00">Response</text>
</a>
</g>
<!-- \\Core\\OutputSentException -->
<g id="node18" class="node"><title>\\Core\\OutputSentException</title>
<a xlink:href="system.core.Response.html" xlink:title="OutputSentException" target="_parent">
<polygon fill="none" stroke="black" points="548.5,-1374 403.5,-1374 403.5,-1338 548.5,-1338 548.5,-1374"/>
<text text-anchor="middle" x="476" y="-1353.2" font-family="Courier,monospace" font-size="11.00">OutputSentException</text>
</a>
</g>
<!-- \\Core\\OutputSentException&#45;&gt;\\Exception -->
<g id="edge18" class="edge"><title>\\Core\\OutputSentException&#45;&gt;\\Exception</title>
<path fill="none" stroke="black" d="M237,-1437C145.255,-1370.8 74.4873,-1004.44 55.8389,-899.247"/>
<polygon fill="none" stroke="black" points="59.2316,-898.33 54.0563,-889.085 52.3369,-899.539 59.2316,-898.33"/>
<path fill="none" stroke="black" d="M403.489,-1372.47C391.55,-1375.67 379.359,-1379.21 368,-1383 309.037,-1402.66 289.403,-1473.37 239,-1437"/>
</g>
<!-- \\Core\\Router -->
<g id="node19" class="node"><title>\\Core\\Router</title>
<a xlink:href="system.core.Router.html" xlink:title="Router" target="_parent">
<polygon fill="none" stroke="black" points="504.5,-1104 447.5,-1104 447.5,-1068 504.5,-1068 504.5,-1104"/>
<text text-anchor="middle" x="476" y="-1083.2" font-family="Courier,monospace" font-size="11.00">Router</text>
</a>
</g>
<!-- \\Database\\Driver -->
<g id="node21" class="node"><title>\\Database\\Driver</title>
<a xlink:href="system.core.database.Driver.html" xlink:title="Driver" target="_parent">
<polygon fill="none" stroke="black" points="504.5,-2048 447.5,-2048 447.5,-2012 504.5,-2012 504.5,-2048"/>
<text text-anchor="middle" x="476" y="-2027.2" font-family="Courier,monospace" font-size="11.00">Driver</text>
</a>
</g>
<!-- \\PDO -->
<g id="node48" class="node"><title>\\PDO</title>
<ellipse fill="none" stroke="black" cx="238" cy="-2030" rx="31.6951" ry="18"/>
<text text-anchor="middle" x="238" y="-2026.3" font-family="Times New Roman,serif" font-size="14.00" fill="gray">\PDO</text>
</g>
<!-- \\Database\\Driver&#45;&gt;\\PDO -->
<g id="edge6" class="edge"><title>\\Database\\Driver&#45;&gt;\\PDO</title>
<path fill="none" stroke="black" d="M447.466,-2030C406.233,-2030 328.168,-2030 280.15,-2030"/>
<polygon fill="none" stroke="black" points="280.092,-2026.5 270.092,-2030 280.092,-2033.5 280.092,-2026.5"/>
</g>
<!-- \\Library\\Auth -->
<g id="node23" class="node"><title>\\Library\\Auth</title>
<a xlink:href="system.library.Auth.html" xlink:title="Auth" target="_parent">
<polygon fill="none" stroke="black" points="503,-1024 449,-1024 449,-988 503,-988 503,-1024"/>
<text text-anchor="middle" x="476" y="-1003.2" font-family="Courier,monospace" font-size="11.00">Auth</text>
</a>
</g>
<!-- \\Library\\InvalidUsernameException -->
<g id="node24" class="node"><title>\\Library\\InvalidUsernameException</title>
<a xlink:href="system.library.Auth.html" xlink:title="InvalidUsernameException" target="_parent">
<polygon fill="none" stroke="black" points="565.5,-646 386.5,-646 386.5,-610 565.5,-610 565.5,-646"/>
<text text-anchor="middle" x="476" y="-625.2" font-family="Courier,monospace" font-size="11.00">InvalidUsernameException</text>
</a>
</g>
<!-- \\Library\\InvalidUsernameException&#45;&gt;\\Exception -->
<g id="edge20" class="edge"><title>\\Library\\InvalidUsernameException&#45;&gt;\\Exception</title>
<path fill="none" stroke="black" d="M386.285,-613.046C379.683,-609.766 373.476,-605.798 368,-601 251.427,-498.854 361.783,-182.409 239,-277"/>
</g>
<!-- \\Library\\InvalidPasswordException -->
<g id="node25" class="node"><title>\\Library\\InvalidPasswordException</title>
<a xlink:href="system.library.Auth.html" xlink:title="InvalidPasswordException" target="_parent">
<polygon fill="none" stroke="black" points="565.5,-376 386.5,-376 386.5,-340 565.5,-340 565.5,-376"/>
<text text-anchor="middle" x="476" y="-355.2" font-family="Courier,monospace" font-size="11.00">InvalidPasswordException</text>
</a>
</g>
<!-- \\Library\\InvalidPasswordException&#45;&gt;\\Exception -->
<g id="edge22" class="edge"><title>\\Library\\InvalidPasswordException&#45;&gt;\\Exception</title>
<path fill="none" stroke="black" d="M397.743,-339.972C387.67,-337.193 377.542,-334.181 368,-331 309.037,-311.342 288.237,-239.068 239,-277"/>
</g>
<!-- \\Library\\InvalidEmailException -->
<g id="node26" class="node"><title>\\Library\\InvalidEmailException</title>
<a xlink:href="system.library.Auth.html" xlink:title="InvalidEmailException" target="_parent">
<polygon fill="none" stroke="black" points="555,-322 397,-322 397,-286 555,-286 555,-322"/>
<text text-anchor="middle" x="476" y="-301.2" font-family="Courier,monospace" font-size="11.00">InvalidEmailException</text>
</a>
</g>
<!-- \\Library\\InvalidEmailException&#45;&gt;\\Exception -->
<g id="edge24" class="edge"><title>\\Library\\InvalidEmailException&#45;&gt;\\Exception</title>
<path fill="none" stroke="black" d="M407.055,-285.941C346.807,-271.735 264.523,-257.337 239,-277"/>
</g>
<!-- \\Library\\InvalidCredentialsException -->
<g id="node27" class="node"><title>\\Library\\InvalidCredentialsException</title>
<a xlink:href="system.library.Auth.html" xlink:title="InvalidCredentialsException" target="_parent">
<polygon fill="none" stroke="black" points="575.5,-268 376.5,-268 376.5,-232 575.5,-232 575.5,-268"/>
<text text-anchor="middle" x="476" y="-247.2" font-family="Courier,monospace" font-size="11.00">InvalidCredentialsException</text>
</a>
</g>
<!-- \\Library\\InvalidCredentialsException&#45;&gt;\\Exception -->
<g id="edge26" class="edge"><title>\\Library\\InvalidCredentialsException&#45;&gt;\\Exception</title>
<path fill="none" stroke="black" d="M376.22,-239.19C330.252,-239.314 277.386,-247.428 239,-277"/>
</g>
<!-- \\Library\\AccountExistsException -->
<g id="node28" class="node"><title>\\Library\\AccountExistsException</title>
<a xlink:href="system.library.Auth.html" xlink:title="AccountExistsException" target="_parent">
<polygon fill="none" stroke="black" points="558.5,-214 393.5,-214 393.5,-178 558.5,-178 558.5,-214"/>
<text text-anchor="middle" x="476" y="-193.2" font-family="Courier,monospace" font-size="11.00">AccountExistsException</text>
</a>
</g>
<!-- \\Library\\AccountExistsException&#45;&gt;\\Exception -->
<g id="edge28" class="edge"><title>\\Library\\AccountExistsException&#45;&gt;\\Exception</title>
<path fill="none" stroke="black" d="M393.301,-210.306C344.698,-221.969 283.954,-242.368 239,-277"/>
</g>
<!-- \\Library\\AccountBannedException -->
<g id="node29" class="node"><title>\\Library\\AccountBannedException</title>
<a xlink:href="system.library.Auth.html" xlink:title="AccountBannedException" target="_parent">
<polygon fill="none" stroke="black" points="558.5,-106 393.5,-106 393.5,-70 558.5,-70 558.5,-106"/>
<text text-anchor="middle" x="476" y="-85.2" font-family="Courier,monospace" font-size="11.00">AccountBannedException</text>
</a>
</g>
<!-- \\Library\\AccountBannedException&#45;&gt;\\Exception -->
<g id="edge30" class="edge"><title>\\Library\\AccountBannedException&#45;&gt;\\Exception</title>
<path fill="none" stroke="black" d="M393.458,-102.535C384.5,-105.868 375.809,-109.964 368,-115 290.649,-164.88 311.911,-220.83 239,-277"/>
</g>
<!-- \\Library\\IpBannedException -->
<g id="node30" class="node"><title>\\Library\\IpBannedException</title>
<a xlink:href="system.library.Auth.html" xlink:title="IpBannedException" target="_parent">
<polygon fill="none" stroke="black" points="541.5,-52 410.5,-52 410.5,-16 541.5,-16 541.5,-52"/>
<text text-anchor="middle" x="476" y="-31.2" font-family="Courier,monospace" font-size="11.00">IpBannedException</text>
</a>
</g>
<!-- \\Library\\IpBannedException&#45;&gt;\\Exception -->
<g id="edge32" class="edge"><title>\\Library\\IpBannedException&#45;&gt;\\Exception</title>
<path fill="none" stroke="black" d="M410.252,-41.7624C395.356,-45.7811 380.296,-51.8493 368,-61 278.298,-127.759 327.579,-208.759 239,-277"/>
<path fill="none" stroke="black" d="M237,-277C142.961,-349.447 73.3375,-735.05 55.4854,-842.934"/>
<polygon fill="none" stroke="black" points="51.9922,-842.609 53.8304,-853.043 58.9002,-843.74 51.9922,-842.609"/>
</g>
<!-- \\Library\\Cache -->
<g id="node31" class="node"><title>\\Library\\Cache</title>
<a xlink:href="system.library.Cache.html" xlink:title="Cache" target="_parent">
<polygon fill="none" stroke="black" points="503,-592 449,-592 449,-556 503,-556 503,-592"/>
<text text-anchor="middle" x="476" y="-571.2" font-family="Courier,monospace" font-size="11.00">Cache</text>
</a>
</g>
<!-- \\Library\\Mime -->
<g id="node32" class="node"><title>\\Library\\Mime</title>
<a xlink:href="system.library.Mime.html" xlink:title="Mime" target="_parent">
<polygon fill="none" stroke="black" points="503,-538 449,-538 449,-502 503,-502 503,-538"/>
<text text-anchor="middle" x="476" y="-517.2" font-family="Courier,monospace" font-size="11.00">Mime</text>
</a>
</g>
<!-- \\Library\\Parser -->
<g id="node33" class="node"><title>\\Library\\Parser</title>
<a xlink:href="system.library.Parser.html" xlink:title="Parser" target="_parent">
<polygon fill="none" stroke="black" points="504.5,-484 447.5,-484 447.5,-448 504.5,-448 504.5,-484"/>
<text text-anchor="middle" x="476" y="-463.2" font-family="Courier,monospace" font-size="11.00">Parser</text>
</a>
</g>
<!-- \\Library\\Template -->
<g id="node34" class="node"><title>\\Library\\Template</title>
<a xlink:href="system.library.Template.html" xlink:title="Template" target="_parent">
<polygon fill="none" stroke="black" points="511.5,-430 440.5,-430 440.5,-394 511.5,-394 511.5,-430"/>
<text text-anchor="middle" x="476" y="-409.2" font-family="Courier,monospace" font-size="11.00">Template</text>
</a>
</g>
<!-- \\Library\\ThemeNotSetException -->
<g id="node35" class="node"><title>\\Library\\ThemeNotSetException</title>
<a xlink:href="system.library.Template.html" xlink:title="ThemeNotSetException" target="_parent">
<polygon fill="none" stroke="black" points="552,-916 400,-916 400,-880 552,-880 552,-916"/>
<text text-anchor="middle" x="476" y="-895.2" font-family="Courier,monospace" font-size="11.00">ThemeNotSetException</text>
</a>
</g>
<!-- \\Library\\ThemeNotSetException&#45;&gt;\\ApplicationError -->
<g id="edge34" class="edge"><title>\\Library\\ThemeNotSetException&#45;&gt;\\ApplicationError</title>
<path fill="none" stroke="black" d="M399.679,-889.383C371.206,-886.125 338.9,-882.429 310.762,-879.21"/>
<polygon fill="none" stroke="black" points="310.931,-875.707 300.598,-878.047 310.135,-882.661 310.931,-875.707"/>
</g>
<!-- \\Library\\InvalidThemePathException -->
<g id="node36" class="node"><title>\\Library\\InvalidThemePathException</title>
<a xlink:href="system.library.Template.html" xlink:title="InvalidThemePathException" target="_parent">
<polygon fill="none" stroke="black" points="568.5,-862 383.5,-862 383.5,-826 568.5,-826 568.5,-862"/>
<text text-anchor="middle" x="476" y="-841.2" font-family="Courier,monospace" font-size="11.00">InvalidThemePathException</text>
</a>
</g>
<!-- \\Library\\InvalidThemePathException&#45;&gt;\\ApplicationError -->
<g id="edge36" class="edge"><title>\\Library\\InvalidThemePathException&#45;&gt;\\ApplicationError</title>
<path fill="none" stroke="black" d="M383.418,-854.478C359.265,-857.241 333.556,-860.182 310.625,-862.806"/>
<polygon fill="none" stroke="black" points="310.179,-859.334 300.641,-863.948 310.974,-866.288 310.179,-859.334"/>
</g>
<!-- \\Library\\InvalidPageContents -->
<g id="node37" class="node"><title>\\Library\\InvalidPageContents</title>
<a xlink:href="system.library.Template.html" xlink:title="InvalidPageContents" target="_parent">
<polygon fill="none" stroke="black" points="548.5,-808 403.5,-808 403.5,-772 548.5,-772 548.5,-808"/>
<text text-anchor="middle" x="476" y="-787.2" font-family="Courier,monospace" font-size="11.00">InvalidPageContents</text>
</a>
</g>
<!-- \\Library\\InvalidPageContents&#45;&gt;\\ApplicationError -->
<g id="edge38" class="edge"><title>\\Library\\InvalidPageContents&#45;&gt;\\ApplicationError</title>
<path fill="none" stroke="black" d="M403.38,-806.149C391.454,-809.385 379.296,-813.027 368,-817 340.796,-826.567 335.576,-832.806 309,-844 304.905,-845.725 300.659,-847.469 296.375,-849.197"/>
<polygon fill="none" stroke="black" points="294.972,-845.989 286.977,-852.941 297.563,-852.492 294.972,-845.989"/>
</g>
<!-- \\Library\\MissingThemeConfigException -->
<g id="node38" class="node"><title>\\Library\\MissingThemeConfigException</title>
<a xlink:href="system.library.Template.html" xlink:title="MissingThemeConfigException" target="_parent">
<polygon fill="none" stroke="black" points="575.5,-754 376.5,-754 376.5,-718 575.5,-718 575.5,-754"/>
<text text-anchor="middle" x="476" y="-733.2" font-family="Courier,monospace" font-size="11.00">MissingThemeConfigException</text>
</a>
</g>
<!-- \\Library\\MissingThemeConfigException&#45;&gt;\\ApplicationError -->
<g id="edge40" class="edge"><title>\\Library\\MissingThemeConfigException&#45;&gt;\\ApplicationError</title>
<path fill="none" stroke="black" d="M383.998,-754.079C378.39,-756.665 373,-759.621 368,-763 331.097,-787.935 344.329,-816.88 309,-844 307.373,-845.249 305.681,-846.447 303.938,-847.595"/>
<polygon fill="none" stroke="black" points="301.716,-844.841 294.868,-852.925 305.263,-850.876 301.716,-844.841"/>
</g>
<!-- \\Library\\View -->
<g id="node39" class="node"><title>\\Library\\View</title>
<a xlink:href="system.library.View.html" xlink:title="View" target="_parent">
<polygon fill="none" stroke="black" points="503,-160 449,-160 449,-124 503,-124 503,-160"/>
<text text-anchor="middle" x="476" y="-139.2" font-family="Courier,monospace" font-size="11.00">View</text>
</a>
</g>
<!-- \\Library\\ViewNotFoundException -->
<g id="node40" class="node"><title>\\Library\\ViewNotFoundException</title>
<a xlink:href="system.library.View.html" xlink:title="ViewNotFoundException" target="_parent">
<polygon fill="none" stroke="black" points="555,-700 397,-700 397,-664 555,-664 555,-700"/>
<text text-anchor="middle" x="476" y="-679.2" font-family="Courier,monospace" font-size="11.00">ViewNotFoundException</text>
</a>
</g>
<!-- \\Library\\ViewNotFoundException&#45;&gt;\\ApplicationError -->
<g id="edge42" class="edge"><title>\\Library\\ViewNotFoundException&#45;&gt;\\ApplicationError</title>
<path fill="none" stroke="black" d="M396.929,-692.68C386.432,-696.593 376.405,-701.878 368,-709 318.044,-751.332 356.306,-798.726 309,-844 307.912,-845.041 306.779,-846.044 305.609,-847.008"/>
<polygon fill="none" stroke="black" points="303.518,-844.201 297.392,-852.845 307.571,-849.907 303.518,-844.201"/>
</g>
<!-- \\Library\\InvalidViewContents -->
<g id="node41" class="node"><title>\\Library\\InvalidViewContents</title>
<a xlink:href="system.library.View.html" xlink:title="InvalidViewContents" target="_parent">
<polygon fill="none" stroke="black" points="548.5,-970 403.5,-970 403.5,-934 548.5,-934 548.5,-970"/>
<text text-anchor="middle" x="476" y="-949.2" font-family="Courier,monospace" font-size="11.00">InvalidViewContents</text>
</a>
</g>
<!-- \\Library\\InvalidViewContents&#45;&gt;\\ApplicationError -->
<g id="edge44" class="edge"><title>\\Library\\InvalidViewContents&#45;&gt;\\ApplicationError</title>
<path fill="none" stroke="black" d="M403.38,-935.851C391.454,-932.615 379.296,-928.973 368,-925 340.796,-915.433 335.576,-909.194 309,-898 304.905,-896.275 300.659,-894.531 296.375,-892.803"/>
<polygon fill="none" stroke="black" points="297.563,-889.508 286.977,-889.059 294.972,-896.011 297.563,-889.508"/>
</g>
<!-- \\Plexis -->
<g id="node43" class="node"><title>\\Plexis</title>
<a xlink:href="system.Plexis.html" xlink:title="Plexis" target="_parent">
<polygon fill="none" stroke="black" points="266.5,-943 209.5,-943 209.5,-907 266.5,-907 266.5,-943"/>
<text text-anchor="middle" x="238" y="-922.2" font-family="Courier,monospace" font-size="11.00">Plexis</text>
</a>
</g>
<!-- \\ApplicationError&#45;&gt;\\Exception -->
<g id="edge46" class="edge"><title>\\ApplicationError&#45;&gt;\\Exception</title>
<path fill="none" stroke="black" d="M175.323,-871C154.426,-871 131.14,-871 110.422,-871"/>
<polygon fill="none" stroke="black" points="110.164,-867.5 100.164,-871 110.164,-874.5 110.164,-867.5"/>
</g>
<!-- \\System -->
<g id="node45" class="node"><title>\\System</title>
<a xlink:href="system.System.html" xlink:title="System" target="_parent">
<polygon fill="none" stroke="black" points="266.5,-835 209.5,-835 209.5,-799 266.5,-799 266.5,-835"/>
<text text-anchor="middle" x="238" y="-814.2" font-family="Courier,monospace" font-size="11.00">System</text>
</a>
</g>
<!-- \\SystemError -->
<g id="node46" class="node"><title>\\SystemError</title>
<a xlink:href="system.System.html" xlink:title="SystemError" target="_parent">
<polygon fill="none" stroke="black" points="283.5,-781 192.5,-781 192.5,-745 283.5,-745 283.5,-781"/>
<text text-anchor="middle" x="238" y="-760.2" font-family="Courier,monospace" font-size="11.00">SystemError</text>
</a>
</g>
<!-- \\SystemError&#45;&gt;\\Exception -->
<g id="edge48" class="edge"><title>\\SystemError&#45;&gt;\\Exception</title>
<path fill="none" stroke="black" d="M192.164,-777.426C182.657,-781.077 172.832,-785.311 164,-790 132.997,-806.46 100.754,-830.358 78.683,-847.931"/>
<polygon fill="none" stroke="black" points="76.3357,-845.327 70.746,-854.328 80.7284,-850.778 76.3357,-845.327"/>
</g>
</g>
</svg>
