<?xml version="1.0" encoding="UTF-8" standalone="no"?>
<!DOCTYPE svg PUBLIC "-//W3C//DTD SVG 1.1//EN"
 "http://www.w3.org/Graphics/SVG/1.1/DTD/svg11.dtd">
<!-- Generated by graphviz version 2.28.0 (20110507.0327)
 -->
<!-- Title: G Pages: 1 -->
<svg width="600pt" height="1984pt"
 viewBox="0.00 0.00 600.00 1984.00" xmlns="http://www.w3.org/2000/svg" xmlns:xlink="http://www.w3.org/1999/xlink">
<g id="graph1" class="graph" transform="scale(1 1) rotate(0) translate(4 1980)">
<title>G</title>
<polygon fill="white" stroke="white" points="-4,5 -4,-1980 597,-1980 597,5 -4,5"/>
<g id="graph2" class="cluster"><title>cluster_Core</title>
<polyline fill="none" stroke="gray" points="176,-1006 572,-1006 "/>
<path fill="none" stroke="gray" d="M572,-1006C578,-1006 584,-1012 584,-1018"/>
<polyline fill="none" stroke="gray" points="584,-1018 584,-1876 "/>
<path fill="none" stroke="gray" d="M584,-1876C584,-1882 578,-1888 572,-1888"/>
<polyline fill="none" stroke="gray" points="572,-1888 176,-1888 "/>
<path fill="none" stroke="gray" d="M176,-1888C170,-1888 164,-1882 164,-1876"/>
<polyline fill="none" stroke="gray" points="164,-1876 164,-1018 "/>
<path fill="none" stroke="gray" d="M164,-1018C164,-1012 170,-1006 176,-1006"/>
<text text-anchor="middle" x="374" y="-1875.2" font-family="Times New Roman,serif" font-size="11.00" fill="gray">Core</text>
</g>
<g id="graph3" class="cluster"><title>cluster_Database</title>
<polyline fill="none" stroke="gray" points="451,-1896 501,-1896 "/>
<path fill="none" stroke="gray" d="M501,-1896C507,-1896 513,-1902 513,-1908"/>
<polyline fill="none" stroke="gray" points="513,-1908 513,-1956 "/>
<path fill="none" stroke="gray" d="M513,-1956C513,-1962 507,-1968 501,-1968"/>
<polyline fill="none" stroke="gray" points="501,-1968 451,-1968 "/>
<path fill="none" stroke="gray" d="M451,-1968C445,-1968 439,-1962 439,-1956"/>
<polyline fill="none" stroke="gray" points="439,-1956 439,-1908 "/>
<path fill="none" stroke="gray" d="M439,-1908C439,-1902 445,-1896 451,-1896"/>
<text text-anchor="middle" x="476" y="-1955.2" font-family="Times New Roman,serif" font-size="11.00" fill="gray">Database</text>
</g>
<g id="graph4" class="cluster"><title>cluster_Library</title>
<polyline fill="none" stroke="gray" points="380,-8 572,-8 "/>
<path fill="none" stroke="gray" d="M572,-8C578,-8 584,-14 584,-20"/>
<polyline fill="none" stroke="gray" points="584,-20 584,-986 "/>
<path fill="none" stroke="gray" d="M584,-986C584,-992 578,-998 572,-998"/>
<polyline fill="none" stroke="gray" points="572,-998 380,-998 "/>
<path fill="none" stroke="gray" d="M380,-998C374,-998 368,-992 368,-986"/>
<polyline fill="none" stroke="gray" points="368,-986 368,-20 "/>
<path fill="none" stroke="gray" d="M368,-20C368,-14 374,-8 380,-8"/>
<text text-anchor="middle" x="476" y="-985.2" font-family="Times New Roman,serif" font-size="11.00" fill="gray">Library</text>
</g>
<g id="graph5" class="cluster"><title>cluster_global</title>
<polyline fill="none" stroke="gray" points="179,-683 297,-683 "/>
<path fill="none" stroke="gray" d="M297,-683C303,-683 309,-689 309,-695"/>
<polyline fill="none" stroke="gray" points="309,-695 309,-905 "/>
<path fill="none" stroke="gray" d="M309,-905C309,-911 303,-917 297,-917"/>
<polyline fill="none" stroke="gray" points="297,-917 179,-917 "/>
<path fill="none" stroke="gray" d="M179,-917C173,-917 167,-911 167,-905"/>
<polyline fill="none" stroke="gray" points="167,-905 167,-695 "/>
<path fill="none" stroke="gray" d="M167,-695C167,-689 173,-683 179,-683"/>
<text text-anchor="middle" x="238" y="-904.2" font-family="Times New Roman,serif" font-size="11.00" fill="gray">global</text>
</g>
<!-- \\Core\\AutoLoader -->
<g id="node2" class="node"><title>\\Core\\AutoLoader</title>
<a xlink:href="core.AutoLoader.html" xlink:title="AutoLoader" target="_parent">
<polygon fill="none" stroke="black" points="518,-1860 434,-1860 434,-1824 518,-1824 518,-1860"/>
<text text-anchor="middle" x="476" y="-1839.2" font-family="Courier,monospace" font-size="11.00">AutoLoader</text>
</a>
</g>
<!-- \\Core\\Benchmark -->
<g id="node3" class="node"><title>\\Core\\Benchmark</title>
<a xlink:href="core.Benchmark.html" xlink:title="Benchmark" target="_parent">
<polygon fill="none" stroke="black" points="514.5,-1806 437.5,-1806 437.5,-1770 514.5,-1770 514.5,-1806"/>
<text text-anchor="middle" x="476" y="-1785.2" font-family="Courier,monospace" font-size="11.00">Benchmark</text>
</a>
</g>
<!-- \\Core\\Config -->
<g id="node4" class="node"><title>\\Core\\Config</title>
<a xlink:href="core.Config.html" xlink:title="Config" target="_parent">
<polygon fill="none" stroke="black" points="504.5,-1752 447.5,-1752 447.5,-1716 504.5,-1716 504.5,-1752"/>
<text text-anchor="middle" x="476" y="-1731.2" font-family="Courier,monospace" font-size="11.00">Config</text>
</a>
</g>
<!-- \\Core\\Database -->
<g id="node5" class="node"><title>\\Core\\Database</title>
<a xlink:href="core.Database.html" xlink:title="Database" target="_parent">
<polygon fill="none" stroke="black" points="511.5,-1698 440.5,-1698 440.5,-1662 511.5,-1662 511.5,-1698"/>
<text text-anchor="middle" x="476" y="-1677.2" font-family="Courier,monospace" font-size="11.00">Database</text>
</a>
</g>
<!-- \\Core\\DatabaseConnectError -->
<g id="node6" class="node"><title>\\Core\\DatabaseConnectError</title>
<a xlink:href="core.Database.html" xlink:title="DatabaseConnectError" target="_parent">
<polygon fill="none" stroke="black" points="552,-1104 400,-1104 400,-1068 552,-1068 552,-1104"/>
<text text-anchor="middle" x="476" y="-1083.2" font-family="Courier,monospace" font-size="11.00">DatabaseConnectError</text>
</a>
</g>
<!-- \\ApplicationError -->
<g id="node42" class="node"><title>\\ApplicationError</title>
<a xlink:href="Plexis.html" xlink:title="ApplicationError" target="_parent">
<polygon fill="none" stroke="black" points="300.5,-835 175.5,-835 175.5,-799 300.5,-799 300.5,-835"/>
<text text-anchor="middle" x="238" y="-814.2" font-family="Courier,monospace" font-size="11.00">ApplicationError</text>
</a>
</g>
<!-- \\Core\\DatabaseConnectError&#45;&gt;\\ApplicationError -->
<g id="edge8" class="edge"><title>\\Core\\DatabaseConnectError&#45;&gt;\\ApplicationError</title>
<path fill="none" stroke="black" d="M399.774,-1077.79C387.999,-1073.65 376.828,-1067.65 368,-1059 297.214,-989.661 375.465,-917.49 309,-844 308.236,-843.155 307.441,-842.336 306.621,-841.542"/>
<polygon fill="none" stroke="black" points="308.575,-838.622 298.596,-835.064 304.179,-844.069 308.575,-838.622"/>
</g>
<!-- \\Core\\Dispatch -->
<g id="node7" class="node"><title>\\Core\\Dispatch</title>
<a xlink:href="core.Dispatch.html" xlink:title="Dispatch" target="_parent">
<polygon fill="none" stroke="black" points="511.5,-1590 440.5,-1590 440.5,-1554 511.5,-1554 511.5,-1590"/>
<text text-anchor="middle" x="476" y="-1569.2" font-family="Courier,monospace" font-size="11.00">Dispatch</text>
</a>
</g>
<!-- \\Core\\NotFoundException -->
<g id="node8" class="node"><title>\\Core\\NotFoundException</title>
<a xlink:href="core.Dispatch.html" xlink:title="NotFoundException" target="_parent">
<polygon fill="none" stroke="black" points="303.5,-1536 172.5,-1536 172.5,-1500 303.5,-1500 303.5,-1536"/>
<text text-anchor="middle" x="238" y="-1515.2" font-family="Courier,monospace" font-size="11.00">NotFoundException</text>
</a>
</g>
<!-- \\Exception -->
<g id="node49" class="node"><title>\\Exception</title>
<ellipse fill="none" stroke="black" cx="50" cy="-817" rx="50.0912" ry="18"/>
<text text-anchor="middle" x="50" y="-813.3" font-family="Times New Roman,serif" font-size="14.00" fill="gray">\Exception</text>
</g>
<!-- \\Core\\NotFoundException&#45;&gt;\\Exception -->
<g id="edge10" class="edge"><title>\\Core\\NotFoundException&#45;&gt;\\Exception</title>
<path fill="none" stroke="black" d="M172.254,-1503.35C169.234,-1501.22 166.448,-1498.78 164,-1496 76.6372,-1396.69 55.8692,-961.45 51.8483,-845.478"/>
<polygon fill="none" stroke="black" points="55.3395,-845.152 51.5098,-835.274 48.3434,-845.384 55.3395,-845.152"/>
</g>
<!-- \\Core\\ControllerNotFoundException -->
<g id="node9" class="node"><title>\\Core\\ControllerNotFoundException</title>
<a xlink:href="core.Dispatch.html" xlink:title="ControllerNotFoundException" target="_parent">
<polygon fill="none" stroke="black" points="575.5,-1644 376.5,-1644 376.5,-1608 575.5,-1608 575.5,-1644"/>
<text text-anchor="middle" x="476" y="-1623.2" font-family="Courier,monospace" font-size="11.00">ControllerNotFoundException</text>
</a>
</g>
<!-- \\Core\\ControllerNotFoundException&#45;&gt;\\Core\\NotFoundException -->
<g id="edge12" class="edge"><title>\\Core\\ControllerNotFoundException&#45;&gt;\\Core\\NotFoundException</title>
<path fill="none" stroke="black" d="M387.042,-1608C380.425,-1605.39 373.998,-1602.4 368,-1599 338.395,-1582.2 340.149,-1562.72 310.598,-1541.74"/>
<polygon fill="none" stroke="black" points="312.174,-1538.59 301.881,-1536.07 308.36,-1544.46 312.174,-1538.59"/>
</g>
<!-- \\Core\\MethodNotFoundException -->
<g id="node10" class="node"><title>\\Core\\MethodNotFoundException</title>
<a xlink:href="core.Dispatch.html" xlink:title="MethodNotFoundException" target="_parent">
<polygon fill="none" stroke="black" points="562,-1536 390,-1536 390,-1500 562,-1500 562,-1536"/>
<text text-anchor="middle" x="476" y="-1515.2" font-family="Courier,monospace" font-size="11.00">MethodNotFoundException</text>
</a>
</g>
<!-- \\Core\\MethodNotFoundException&#45;&gt;\\Core\\NotFoundException -->
<g id="edge14" class="edge"><title>\\Core\\MethodNotFoundException&#45;&gt;\\Core\\NotFoundException</title>
<path fill="none" stroke="black" d="M389.799,-1518C364.96,-1518 338.016,-1518 313.867,-1518"/>
<polygon fill="none" stroke="black" points="313.703,-1514.5 303.703,-1518 313.703,-1521.5 313.703,-1514.5"/>
</g>
<!-- \\Core\\ErrorHandler -->
<g id="node11" class="node"><title>\\Core\\ErrorHandler</title>
<a xlink:href="core.ErrorHandler.html" xlink:title="ErrorHandler" target="_parent">
<polygon fill="none" stroke="black" points="525,-1428 427,-1428 427,-1392 525,-1392 525,-1428"/>
<text text-anchor="middle" x="476" y="-1407.2" font-family="Courier,monospace" font-size="11.00">ErrorHandler</text>
</a>
</g>
<!-- \\Core\\EventHandler -->
<g id="node12" class="node"><title>\\Core\\EventHandler</title>
<a xlink:href="core.EventHandler.html" xlink:title="EventHandler" target="_parent">
<polygon fill="none" stroke="black" points="525,-1374 427,-1374 427,-1338 525,-1338 525,-1374"/>
<text text-anchor="middle" x="476" y="-1353.2" font-family="Courier,monospace" font-size="11.00">EventHandler</text>
</a>
</g>
<!-- \\Core\\InvalidCallableException -->
<g id="node13" class="node"><title>\\Core\\InvalidCallableException</title>
<a xlink:href="core.EventHandler.html" xlink:title="InvalidCallableException" target="_parent">
<polygon fill="none" stroke="black" points="565.5,-1482 386.5,-1482 386.5,-1446 565.5,-1446 565.5,-1482"/>
<text text-anchor="middle" x="476" y="-1461.2" font-family="Courier,monospace" font-size="11.00">InvalidCallableException</text>
</a>
</g>
<!-- \\Core\\InvalidCallableException&#45;&gt;\\Exception -->
<g id="edge16" class="edge"><title>\\Core\\InvalidCallableException&#45;&gt;\\Exception</title>
<path fill="none" stroke="black" d="M386.497,-1446.75C339.519,-1434.5 282.647,-1414.49 239,-1383"/>
</g>
<!-- \\Core\\Filesystem -->
<g id="node14" class="node"><title>\\Core\\Filesystem</title>
<a xlink:href="core.Filesystem.html" xlink:title="Filesystem" target="_parent">
<polygon fill="none" stroke="black" points="518,-1266 434,-1266 434,-1230 518,-1230 518,-1266"/>
<text text-anchor="middle" x="476" y="-1245.2" font-family="Courier,monospace" font-size="11.00">Filesystem</text>
</a>
</g>
<!-- \\Core\\Request -->
<g id="node15" class="node"><title>\\Core\\Request</title>
<a xlink:href="core.Request.html" xlink:title="Request" target="_parent">
<polygon fill="none" stroke="black" points="508,-1212 444,-1212 444,-1176 508,-1176 508,-1212"/>
<text text-anchor="middle" x="476" y="-1191.2" font-family="Courier,monospace" font-size="11.00">Request</text>
</a>
</g>
<!-- \\Core\\Response -->
<g id="node16" class="node"><title>\\Core\\Response</title>
<a xlink:href="core.Response.html" xlink:title="Response" target="_parent">
<polygon fill="none" stroke="black" points="511.5,-1158 440.5,-1158 440.5,-1122 511.5,-1122 511.5,-1158"/>
<text text-anchor="middle" x="476" y="-1137.2" font-family="Courier,monospace" font-size="11.00">Response</text>
</a>
</g>
<!-- \\Core\\OutputSentException -->
<g id="node17" class="node"><title>\\Core\\OutputSentException</title>
<a xlink:href="core.Response.html" xlink:title="OutputSentException" target="_parent">
<polygon fill="none" stroke="black" points="548.5,-1320 403.5,-1320 403.5,-1284 548.5,-1284 548.5,-1320"/>
<text text-anchor="middle" x="476" y="-1299.2" font-family="Courier,monospace" font-size="11.00">OutputSentException</text>
</a>
</g>
<!-- \\Core\\OutputSentException&#45;&gt;\\Exception -->
<g id="edge18" class="edge"><title>\\Core\\OutputSentException&#45;&gt;\\Exception</title>
<path fill="none" stroke="black" d="M237,-1383C145.255,-1316.8 74.4873,-950.439 55.8389,-845.247"/>
<polygon fill="none" stroke="black" points="59.2316,-844.33 54.0563,-835.085 52.3369,-845.539 59.2316,-844.33"/>
<path fill="none" stroke="black" d="M403.489,-1318.47C391.55,-1321.67 379.359,-1325.21 368,-1329 309.037,-1348.66 289.403,-1419.37 239,-1383"/>
</g>
<!-- \\Core\\Router -->
<g id="node18" class="node"><title>\\Core\\Router</title>
<a xlink:href="core.Router.html" xlink:title="Router" target="_parent">
<polygon fill="none" stroke="black" points="504.5,-1050 447.5,-1050 447.5,-1014 504.5,-1014 504.5,-1050"/>
<text text-anchor="middle" x="476" y="-1029.2" font-family="Courier,monospace" font-size="11.00">Router</text>
</a>
</g>
<!-- \\Database\\Driver -->
<g id="node20" class="node"><title>\\Database\\Driver</title>
<a xlink:href="core.database.Driver.html" xlink:title="Driver" target="_parent">
<polygon fill="none" stroke="black" points="504.5,-1940 447.5,-1940 447.5,-1904 504.5,-1904 504.5,-1940"/>
<text text-anchor="middle" x="476" y="-1919.2" font-family="Courier,monospace" font-size="11.00">Driver</text>
</a>
</g>
<!-- \\PDO -->
<g id="node46" class="node"><title>\\PDO</title>
<ellipse fill="none" stroke="black" cx="238" cy="-1922" rx="31.6951" ry="18"/>
<text text-anchor="middle" x="238" y="-1918.3" font-family="Times New Roman,serif" font-size="14.00" fill="gray">\PDO</text>
</g>
<!-- \\Database\\Driver&#45;&gt;\\PDO -->
<g id="edge6" class="edge"><title>\\Database\\Driver&#45;&gt;\\PDO</title>
<path fill="none" stroke="black" d="M447.466,-1922C406.233,-1922 328.168,-1922 280.15,-1922"/>
<polygon fill="none" stroke="black" points="280.092,-1918.5 270.092,-1922 280.092,-1925.5 280.092,-1918.5"/>
</g>
<!-- \\Library\\Auth -->
<g id="node22" class="node"><title>\\Library\\Auth</title>
<a xlink:href="library.Auth.html" xlink:title="Auth" target="_parent">
<polygon fill="none" stroke="black" points="503,-970 449,-970 449,-934 503,-934 503,-970"/>
<text text-anchor="middle" x="476" y="-949.2" font-family="Courier,monospace" font-size="11.00">Auth</text>
</a>
</g>
<!-- \\Library\\InvalidUsernameException -->
<g id="node23" class="node"><title>\\Library\\InvalidUsernameException</title>
<a xlink:href="library.Auth.html" xlink:title="InvalidUsernameException" target="_parent">
<polygon fill="none" stroke="black" points="565.5,-376 386.5,-376 386.5,-340 565.5,-340 565.5,-376"/>
<text text-anchor="middle" x="476" y="-355.2" font-family="Courier,monospace" font-size="11.00">InvalidUsernameException</text>
</a>
</g>
<!-- \\Library\\InvalidUsernameException&#45;&gt;\\Exception -->
<g id="edge20" class="edge"><title>\\Library\\InvalidUsernameException&#45;&gt;\\Exception</title>
<path fill="none" stroke="black" d="M392.344,-339.935C383.999,-337.285 375.751,-334.313 368,-331 305.75,-304.392 289.952,-205.424 239,-250"/>
</g>
<!-- \\Library\\InvalidPasswordException -->
<g id="node24" class="node"><title>\\Library\\InvalidPasswordException</title>
<a xlink:href="library.Auth.html" xlink:title="InvalidPasswordException" target="_parent">
<polygon fill="none" stroke="black" points="565.5,-322 386.5,-322 386.5,-286 565.5,-286 565.5,-322"/>
<text text-anchor="middle" x="476" y="-301.2" font-family="Courier,monospace" font-size="11.00">InvalidPasswordException</text>
</a>
</g>
<!-- \\Library\\InvalidPasswordException&#45;&gt;\\Exception -->
<g id="edge22" class="edge"><title>\\Library\\InvalidPasswordException&#45;&gt;\\Exception</title>
<path fill="none" stroke="black" d="M402.619,-285.981C334.419,-269.223 242.178,-247.22 239,-250"/>
</g>
<!-- \\Library\\InvalidEmailException -->
<g id="node25" class="node"><title>\\Library\\InvalidEmailException</title>
<a xlink:href="library.Auth.html" xlink:title="InvalidEmailException" target="_parent">
<polygon fill="none" stroke="black" points="555,-268 397,-268 397,-232 555,-232 555,-268"/>
<text text-anchor="middle" x="476" y="-247.2" font-family="Courier,monospace" font-size="11.00">InvalidEmailException</text>
</a>
</g>
<!-- \\Library\\InvalidEmailException&#45;&gt;\\Exception -->
<g id="edge24" class="edge"><title>\\Library\\InvalidEmailException&#45;&gt;\\Exception</title>
<path fill="none" stroke="black" d="M396.917,-239.372C337.386,-233.166 261.858,-230.003 239,-250"/>
</g>
<!-- \\Library\\AccountExistsException -->
<g id="node26" class="node"><title>\\Library\\AccountExistsException</title>
<a xlink:href="library.Auth.html" xlink:title="AccountExistsException" target="_parent">
<polygon fill="none" stroke="black" points="558.5,-214 393.5,-214 393.5,-178 558.5,-178 558.5,-214"/>
<text text-anchor="middle" x="476" y="-193.2" font-family="Courier,monospace" font-size="11.00">AccountExistsException</text>
</a>
</g>
<!-- \\Library\\AccountExistsException&#45;&gt;\\Exception -->
<g id="edge26" class="edge"><title>\\Library\\AccountExistsException&#45;&gt;\\Exception</title>
<path fill="none" stroke="black" d="M393.33,-195.904C343.362,-200.005 281.152,-213.123 239,-250"/>
</g>
<!-- \\Library\\AccountBannedException -->
<g id="node27" class="node"><title>\\Library\\AccountBannedException</title>
<a xlink:href="library.Auth.html" xlink:title="AccountBannedException" target="_parent">
<polygon fill="none" stroke="black" points="558.5,-106 393.5,-106 393.5,-70 558.5,-70 558.5,-106"/>
<text text-anchor="middle" x="476" y="-85.2" font-family="Courier,monospace" font-size="11.00">AccountBannedException</text>
</a>
</g>
<!-- \\Library\\AccountBannedException&#45;&gt;\\Exception -->
<g id="edge28" class="edge"><title>\\Library\\AccountBannedException&#45;&gt;\\Exception</title>
<path fill="none" stroke="black" d="M393.331,-103.438C384.491,-106.607 375.863,-110.418 368,-115 296.298,-156.785 301.46,-195.356 239,-250"/>
</g>
<!-- \\Library\\IpBannedException -->
<g id="node28" class="node"><title>\\Library\\IpBannedException</title>
<a xlink:href="library.Auth.html" xlink:title="IpBannedException" target="_parent">
<polygon fill="none" stroke="black" points="541.5,-52 410.5,-52 410.5,-16 541.5,-16 541.5,-52"/>
<text text-anchor="middle" x="476" y="-31.2" font-family="Courier,monospace" font-size="11.00">IpBannedException</text>
</a>
</g>
<!-- \\Library\\IpBannedException&#45;&gt;\\Exception -->
<g id="edge30" class="edge"><title>\\Library\\IpBannedException&#45;&gt;\\Exception</title>
<path fill="none" stroke="black" d="M237,-250C69.7462,-396.324 52.1905,-695.527 50.8934,-788.674"/>
<polygon fill="none" stroke="black" points="47.393,-788.717 50.8076,-798.747 54.3928,-788.777 47.393,-788.717"/>
<path fill="none" stroke="black" d="M410.357,-42.3712C395.539,-46.3727 380.488,-52.2804 368,-61 284.614,-119.222 315.543,-183.035 239,-250"/>
</g>
<!-- \\Library\\Cache -->
<g id="node29" class="node"><title>\\Library\\Cache</title>
<a xlink:href="library.Cache.html" xlink:title="Cache" target="_parent">
<polygon fill="none" stroke="black" points="503,-592 449,-592 449,-556 503,-556 503,-592"/>
<text text-anchor="middle" x="476" y="-571.2" font-family="Courier,monospace" font-size="11.00">Cache</text>
</a>
</g>
<!-- \\Library\\Mime -->
<g id="node30" class="node"><title>\\Library\\Mime</title>
<a xlink:href="library.Mime.html" xlink:title="Mime" target="_parent">
<polygon fill="none" stroke="black" points="503,-538 449,-538 449,-502 503,-502 503,-538"/>
<text text-anchor="middle" x="476" y="-517.2" font-family="Courier,monospace" font-size="11.00">Mime</text>
</a>
</g>
<!-- \\Library\\Parser -->
<g id="node31" class="node"><title>\\Library\\Parser</title>
<a xlink:href="library.Parser.html" xlink:title="Parser" target="_parent">
<polygon fill="none" stroke="black" points="504.5,-484 447.5,-484 447.5,-448 504.5,-448 504.5,-484"/>
<text text-anchor="middle" x="476" y="-463.2" font-family="Courier,monospace" font-size="11.00">Parser</text>
</a>
</g>
<!-- \\Library\\Template -->
<g id="node32" class="node"><title>\\Library\\Template</title>
<a xlink:href="library.Template.html" xlink:title="Template" target="_parent">
<polygon fill="none" stroke="black" points="511.5,-430 440.5,-430 440.5,-394 511.5,-394 511.5,-430"/>
<text text-anchor="middle" x="476" y="-409.2" font-family="Courier,monospace" font-size="11.00">Template</text>
</a>
</g>
<!-- \\Library\\ThemeNotSetException -->
<g id="node33" class="node"><title>\\Library\\ThemeNotSetException</title>
<a xlink:href="library.Template.html" xlink:title="ThemeNotSetException" target="_parent">
<polygon fill="none" stroke="black" points="552,-916 400,-916 400,-880 552,-880 552,-916"/>
<text text-anchor="middle" x="476" y="-895.2" font-family="Courier,monospace" font-size="11.00">ThemeNotSetException</text>
</a>
</g>
<!-- \\Library\\ThemeNotSetException&#45;&gt;\\ApplicationError -->
<g id="edge32" class="edge"><title>\\Library\\ThemeNotSetException&#45;&gt;\\ApplicationError</title>
<path fill="none" stroke="black" d="M399.94,-880.908C389.128,-877.913 378.212,-874.591 368,-871 340.796,-861.433 335.576,-855.194 309,-844 304.905,-842.275 300.659,-840.531 296.375,-838.803"/>
<polygon fill="none" stroke="black" points="297.563,-835.508 286.977,-835.059 294.972,-842.011 297.563,-835.508"/>
</g>
<!-- \\Library\\InvalidThemePathException -->
<g id="node34" class="node"><title>\\Library\\InvalidThemePathException</title>
<a xlink:href="library.Template.html" xlink:title="InvalidThemePathException" target="_parent">
<polygon fill="none" stroke="black" points="568.5,-862 383.5,-862 383.5,-826 568.5,-826 568.5,-862"/>
<text text-anchor="middle" x="476" y="-841.2" font-family="Courier,monospace" font-size="11.00">InvalidThemePathException</text>
</a>
</g>
<!-- \\Library\\InvalidThemePathException&#45;&gt;\\ApplicationError -->
<g id="edge34" class="edge"><title>\\Library\\InvalidThemePathException&#45;&gt;\\ApplicationError</title>
<path fill="none" stroke="black" d="M383.418,-833.522C359.265,-830.759 333.556,-827.818 310.625,-825.194"/>
<polygon fill="none" stroke="black" points="310.974,-821.712 300.641,-824.052 310.179,-828.666 310.974,-821.712"/>
</g>
<!-- \\Library\\InvalidPageContents -->
<g id="node35" class="node"><title>\\Library\\InvalidPageContents</title>
<a xlink:href="library.Template.html" xlink:title="InvalidPageContents" target="_parent">
<polygon fill="none" stroke="black" points="548.5,-808 403.5,-808 403.5,-772 548.5,-772 548.5,-808"/>
<text text-anchor="middle" x="476" y="-787.2" font-family="Courier,monospace" font-size="11.00">InvalidPageContents</text>
</a>
</g>
<!-- \\Library\\InvalidPageContents&#45;&gt;\\ApplicationError -->
<g id="edge36" class="edge"><title>\\Library\\InvalidPageContents&#45;&gt;\\ApplicationError</title>
<path fill="none" stroke="black" d="M403.231,-798.211C373.996,-801.556 340.264,-805.415 311.004,-808.762"/>
<polygon fill="none" stroke="black" points="310.394,-805.309 300.856,-809.923 311.189,-812.264 310.394,-805.309"/>
</g>
<!-- \\Library\\MissingThemeConfigException -->
<g id="node36" class="node"><title>\\Library\\MissingThemeConfigException</title>
<a xlink:href="library.Template.html" xlink:title="MissingThemeConfigException" target="_parent">
<polygon fill="none" stroke="black" points="575.5,-754 376.5,-754 376.5,-718 575.5,-718 575.5,-754"/>
<text text-anchor="middle" x="476" y="-733.2" font-family="Courier,monospace" font-size="11.00">MissingThemeConfigException</text>
</a>
</g>
<!-- \\Library\\MissingThemeConfigException&#45;&gt;\\ApplicationError -->
<g id="edge38" class="edge"><title>\\Library\\MissingThemeConfigException&#45;&gt;\\ApplicationError</title>
<path fill="none" stroke="black" d="M396.493,-754.057C386.817,-756.796 377.127,-759.79 368,-763 340.796,-772.567 335.576,-778.806 309,-790 304.905,-791.725 300.659,-793.469 296.375,-795.197"/>
<polygon fill="none" stroke="black" points="294.972,-791.989 286.977,-798.941 297.563,-798.492 294.972,-791.989"/>
</g>
<!-- \\Library\\View -->
<g id="node37" class="node"><title>\\Library\\View</title>
<a xlink:href="library.View.html" xlink:title="View" target="_parent">
<polygon fill="none" stroke="black" points="503,-160 449,-160 449,-124 503,-124 503,-160"/>
<text text-anchor="middle" x="476" y="-139.2" font-family="Courier,monospace" font-size="11.00">View</text>
</a>
</g>
<!-- \\Library\\ViewNotFoundException -->
<g id="node38" class="node"><title>\\Library\\ViewNotFoundException</title>
<a xlink:href="library.View.html" xlink:title="ViewNotFoundException" target="_parent">
<polygon fill="none" stroke="black" points="555,-700 397,-700 397,-664 555,-664 555,-700"/>
<text text-anchor="middle" x="476" y="-679.2" font-family="Courier,monospace" font-size="11.00">ViewNotFoundException</text>
</a>
</g>
<!-- \\Library\\ViewNotFoundException&#45;&gt;\\ApplicationError -->
<g id="edge40" class="edge"><title>\\Library\\ViewNotFoundException&#45;&gt;\\ApplicationError</title>
<path fill="none" stroke="black" d="M396.842,-694.886C386.649,-698.49 376.731,-703.101 368,-709 331.097,-733.935 344.329,-762.88 309,-790 307.373,-791.249 305.681,-792.447 303.938,-793.595"/>
<polygon fill="none" stroke="black" points="301.716,-790.841 294.868,-798.925 305.263,-796.876 301.716,-790.841"/>
</g>
<!-- \\Library\\InvalidViewContents -->
<g id="node39" class="node"><title>\\Library\\InvalidViewContents</title>
<a xlink:href="library.View.html" xlink:title="InvalidViewContents" target="_parent">
<polygon fill="none" stroke="black" points="548.5,-646 403.5,-646 403.5,-610 548.5,-610 548.5,-646"/>
<text text-anchor="middle" x="476" y="-625.2" font-family="Courier,monospace" font-size="11.00">InvalidViewContents</text>
</a>
</g>
<!-- \\Library\\InvalidViewContents&#45;&gt;\\ApplicationError -->
<g id="edge42" class="edge"><title>\\Library\\InvalidViewContents&#45;&gt;\\ApplicationError</title>
<path fill="none" stroke="black" d="M403.274,-636.492C390.507,-640.553 378.085,-646.454 368,-655 318.044,-697.332 356.306,-744.726 309,-790 307.912,-791.041 306.779,-792.044 305.609,-793.008"/>
<polygon fill="none" stroke="black" points="303.518,-790.201 297.392,-798.845 307.571,-795.907 303.518,-790.201"/>
</g>
<!-- \\Plexis -->
<g id="node41" class="node"><title>\\Plexis</title>
<a xlink:href="Plexis.html" xlink:title="Plexis" target="_parent">
<polygon fill="none" stroke="black" points="266.5,-889 209.5,-889 209.5,-853 266.5,-853 266.5,-889"/>
<text text-anchor="middle" x="238" y="-868.2" font-family="Courier,monospace" font-size="11.00">Plexis</text>
</a>
</g>
<!-- \\ApplicationError&#45;&gt;\\Exception -->
<g id="edge44" class="edge"><title>\\ApplicationError&#45;&gt;\\Exception</title>
<path fill="none" stroke="black" d="M175.323,-817C154.426,-817 131.14,-817 110.422,-817"/>
<polygon fill="none" stroke="black" points="110.164,-813.5 100.164,-817 110.164,-820.5 110.164,-813.5"/>
</g>
<!-- \\System -->
<g id="node43" class="node"><title>\\System</title>
<a xlink:href="System.html" xlink:title="System" target="_parent">
<polygon fill="none" stroke="black" points="266.5,-781 209.5,-781 209.5,-745 266.5,-745 266.5,-781"/>
<text text-anchor="middle" x="238" y="-760.2" font-family="Courier,monospace" font-size="11.00">System</text>
</a>
</g>
<!-- \\SystemError -->
<g id="node44" class="node"><title>\\SystemError</title>
<a xlink:href="System.html" xlink:title="SystemError" target="_parent">
<polygon fill="none" stroke="black" points="283.5,-727 192.5,-727 192.5,-691 283.5,-691 283.5,-727"/>
<text text-anchor="middle" x="238" y="-706.2" font-family="Courier,monospace" font-size="11.00">SystemError</text>
</a>
</g>
<!-- \\SystemError&#45;&gt;\\Exception -->
<g id="edge46" class="edge"><title>\\SystemError&#45;&gt;\\Exception</title>
<path fill="none" stroke="black" d="M192.164,-723.426C182.657,-727.077 172.832,-731.311 164,-736 132.997,-752.46 100.754,-776.358 78.683,-793.931"/>
<polygon fill="none" stroke="black" points="76.3357,-791.327 70.746,-800.328 80.7284,-796.778 76.3357,-791.327"/>
</g>
</g>
</svg>
