<?xml version="1.0" encoding="UTF-8" standalone="no"?>
<!DOCTYPE svg PUBLIC "-//W3C//DTD SVG 1.1//EN"
 "http://www.w3.org/Graphics/SVG/1.1/DTD/svg11.dtd">
<!-- Generated by graphviz version 2.28.0 (20110507.0327)
 -->
<!-- Title: G Pages: 1 -->
<svg width="668pt" height="2820pt"
 viewBox="0.00 0.00 668.00 2820.00" xmlns="http://www.w3.org/2000/svg" xmlns:xlink="http://www.w3.org/1999/xlink">
<g id="graph1" class="graph" transform="scale(1 1) rotate(0) translate(4 2816)">
<title>G</title>
<polygon fill="white" stroke="white" points="-4,5 -4,-2816 665,-2816 665,5 -4,5"/>
<g id="graph2" class="cluster"><title>cluster_Core</title>
<polyline fill="none" stroke="gray" points="210,-1464 640,-1464 "/>
<path fill="none" stroke="gray" d="M640,-1464C646,-1464 652,-1470 652,-1476"/>
<polyline fill="none" stroke="gray" points="652,-1476 652,-2578 "/>
<path fill="none" stroke="gray" d="M652,-2578C652,-2584 646,-2590 640,-2590"/>
<polyline fill="none" stroke="gray" points="640,-2590 210,-2590 "/>
<path fill="none" stroke="gray" d="M210,-2590C204,-2590 198,-2584 198,-2578"/>
<polyline fill="none" stroke="gray" points="198,-2578 198,-1476 "/>
<path fill="none" stroke="gray" d="M198,-1476C198,-1470 204,-1464 210,-1464"/>
<text text-anchor="middle" x="425" y="-2577.2" font-family="Times New Roman,serif" font-size="11.00" fill="gray">Core</text>
</g>
<g id="graph3" class="cluster"><title>cluster_Core\IO</title>
<polyline fill="none" stroke="gray" points="496,-2436 592,-2436 "/>
<path fill="none" stroke="gray" d="M592,-2436C598,-2436 604,-2442 604,-2448"/>
<polyline fill="none" stroke="gray" points="604,-2448 604,-2550 "/>
<path fill="none" stroke="gray" d="M604,-2550C604,-2556 598,-2562 592,-2562"/>
<polyline fill="none" stroke="gray" points="592,-2562 496,-2562 "/>
<path fill="none" stroke="gray" d="M496,-2562C490,-2562 484,-2556 484,-2550"/>
<polyline fill="none" stroke="gray" points="484,-2550 484,-2448 "/>
<path fill="none" stroke="gray" d="M484,-2448C484,-2442 490,-2436 496,-2436"/>
<text text-anchor="middle" x="544" y="-2549.2" font-family="Times New Roman,serif" font-size="11.00" fill="gray">IO</text>
</g>
<g id="graph4" class="cluster"><title>cluster_Database</title>
<polyline fill="none" stroke="gray" points="519,-2598 569,-2598 "/>
<path fill="none" stroke="gray" d="M569,-2598C575,-2598 581,-2604 581,-2610"/>
<polyline fill="none" stroke="gray" points="581,-2610 581,-2658 "/>
<path fill="none" stroke="gray" d="M581,-2658C581,-2664 575,-2670 569,-2670"/>
<polyline fill="none" stroke="gray" points="569,-2670 519,-2670 "/>
<path fill="none" stroke="gray" d="M519,-2670C513,-2670 507,-2664 507,-2658"/>
<polyline fill="none" stroke="gray" points="507,-2658 507,-2610 "/>
<path fill="none" stroke="gray" d="M507,-2610C507,-2604 513,-2598 519,-2598"/>
<text text-anchor="middle" x="544" y="-2657.2" font-family="Times New Roman,serif" font-size="11.00" fill="gray">Database</text>
</g>
<g id="graph5" class="cluster"><title>cluster_Library</title>
<polyline fill="none" stroke="gray" points="176,-412 368,-412 "/>
<path fill="none" stroke="gray" d="M368,-412C374,-412 380,-418 380,-424"/>
<polyline fill="none" stroke="gray" points="380,-424 380,-1444 "/>
<path fill="none" stroke="gray" d="M380,-1444C380,-1450 374,-1456 368,-1456"/>
<polyline fill="none" stroke="gray" points="368,-1456 176,-1456 "/>
<path fill="none" stroke="gray" d="M176,-1456C170,-1456 164,-1450 164,-1444"/>
<polyline fill="none" stroke="gray" points="164,-1444 164,-424 "/>
<path fill="none" stroke="gray" d="M164,-424C164,-418 170,-412 176,-412"/>
<text text-anchor="middle" x="272" y="-1443.2" font-family="Times New Roman,serif" font-size="11.00" fill="gray">Library</text>
</g>
<g id="graph6" class="cluster"><title>cluster_Wowlib</title>
<polyline fill="none" stroke="gray" points="519,-2678 569,-2678 "/>
<path fill="none" stroke="gray" d="M569,-2678C575,-2678 581,-2684 581,-2690"/>
<polyline fill="none" stroke="gray" points="581,-2690 581,-2792 "/>
<path fill="none" stroke="gray" d="M581,-2792C581,-2798 575,-2804 569,-2804"/>
<polyline fill="none" stroke="gray" points="569,-2804 519,-2804 "/>
<path fill="none" stroke="gray" d="M519,-2804C513,-2804 507,-2798 507,-2792"/>
<polyline fill="none" stroke="gray" points="507,-2792 507,-2690 "/>
<path fill="none" stroke="gray" d="M507,-2690C507,-2684 513,-2678 519,-2678"/>
<text text-anchor="middle" x="544" y="-2791.2" font-family="Times New Roman,serif" font-size="11.00" fill="gray">Wowlib</text>
</g>
<g id="graph7" class="cluster"><title>cluster_global</title>
<polyline fill="none" stroke="gray" points="180,-8 364,-8 "/>
<path fill="none" stroke="gray" d="M364,-8C370,-8 376,-14 376,-20"/>
<polyline fill="none" stroke="gray" points="376,-20 376,-392 "/>
<path fill="none" stroke="gray" d="M376,-392C376,-398 370,-404 364,-404"/>
<polyline fill="none" stroke="gray" points="364,-404 180,-404 "/>
<path fill="none" stroke="gray" d="M180,-404C174,-404 168,-398 168,-392"/>
<polyline fill="none" stroke="gray" points="168,-392 168,-20 "/>
<path fill="none" stroke="gray" d="M168,-20C168,-14 174,-8 180,-8"/>
<text text-anchor="middle" x="272" y="-391.2" font-family="Times New Roman,serif" font-size="11.00" fill="gray">global</text>
</g>
<!-- \\Core\\IO\\DirectoryInfo -->
<g id="node3" class="node"><title>\\Core\\IO\\DirectoryInfo</title>
<a xlink:href="system.core.io.DirectoryInfo.html" xlink:title="DirectoryInfo" target="_parent">
<polygon fill="none" stroke="black" points="596,-2534 492,-2534 492,-2498 596,-2498 596,-2534"/>
<text text-anchor="middle" x="544" y="-2513.2" font-family="Courier,monospace" font-size="11.00">DirectoryInfo</text>
</a>
</g>
<!-- \\Core\\IO\\FileInfo -->
<g id="node4" class="node"><title>\\Core\\IO\\FileInfo</title>
<a xlink:href="system.core.io.FileInfo.html" xlink:title="FileInfo" target="_parent">
<polygon fill="none" stroke="black" points="579.5,-2480 508.5,-2480 508.5,-2444 579.5,-2444 579.5,-2480"/>
<text text-anchor="middle" x="544" y="-2459.2" font-family="Courier,monospace" font-size="11.00">FileInfo</text>
</a>
</g>
<!-- \\Core\\AutoLoader -->
<g id="node5" class="node"><title>\\Core\\AutoLoader</title>
<a xlink:href="system.core.AutoLoader.html" xlink:title="AutoLoader" target="_parent">
<polygon fill="none" stroke="black" points="586,-2426 502,-2426 502,-2390 586,-2390 586,-2426"/>
<text text-anchor="middle" x="544" y="-2405.2" font-family="Courier,monospace" font-size="11.00">AutoLoader</text>
</a>
</g>
<!-- \\Core\\Benchmark -->
<g id="node6" class="node"><title>\\Core\\Benchmark</title>
<a xlink:href="system.core.Benchmark.html" xlink:title="Benchmark" target="_parent">
<polygon fill="none" stroke="black" points="582.5,-2372 505.5,-2372 505.5,-2336 582.5,-2336 582.5,-2372"/>
<text text-anchor="middle" x="544" y="-2351.2" font-family="Courier,monospace" font-size="11.00">Benchmark</text>
</a>
</g>
<!-- \\Core\\Config -->
<g id="node7" class="node"><title>\\Core\\Config</title>
<a xlink:href="system.core.Config.html" xlink:title="Config" target="_parent">
<polygon fill="none" stroke="black" points="572.5,-2318 515.5,-2318 515.5,-2282 572.5,-2282 572.5,-2318"/>
<text text-anchor="middle" x="544" y="-2297.2" font-family="Courier,monospace" font-size="11.00">Config</text>
</a>
</g>
<!-- \\Core\\Controller -->
<g id="node8" class="node"><title>\\Core\\Controller</title>
<a xlink:href="system.core.Controller.html" xlink:title="Controller" target="_parent">
<polygon fill="none" stroke="black" points="586,-2264 502,-2264 502,-2228 586,-2228 586,-2264"/>
<text text-anchor="middle" x="544" y="-2243.2" font-family="Courier,monospace" font-size="11.00">Controller</text>
</a>
</g>
<!-- \\Core\\Database -->
<g id="node9" class="node"><title>\\Core\\Database</title>
<a xlink:href="system.core.Database.html" xlink:title="Database" target="_parent">
<polygon fill="none" stroke="black" points="579.5,-2210 508.5,-2210 508.5,-2174 579.5,-2174 579.5,-2210"/>
<text text-anchor="middle" x="544" y="-2189.2" font-family="Courier,monospace" font-size="11.00">Database</text>
</a>
</g>
<!-- \\Core\\DatabaseConnectError -->
<g id="node10" class="node"><title>\\Core\\DatabaseConnectError</title>
<a xlink:href="system.core.Database.html" xlink:title="DatabaseConnectError" target="_parent">
<polygon fill="none" stroke="black" points="620,-1994 468,-1994 468,-1958 620,-1958 620,-1994"/>
<text text-anchor="middle" x="544" y="-1973.2" font-family="Courier,monospace" font-size="11.00">DatabaseConnectError</text>
</a>
</g>
<!-- \\Exception -->
<g id="node60" class="node"><title>\\Exception</title>
<ellipse fill="none" stroke="black" cx="50" cy="-735" rx="50.0912" ry="18"/>
<text text-anchor="middle" x="50" y="-731.3" font-family="Times New Roman,serif" font-size="14.00" fill="gray">\Exception</text>
</g>
<!-- \\Core\\DatabaseConnectError&#45;&gt;\\Exception -->
<g id="edge10" class="edge"><title>\\Core\\DatabaseConnectError&#45;&gt;\\Exception</title>
<path fill="none" stroke="black" d="M467.995,-1959.03C459.715,-1956.14 451.555,-1952.81 444,-1949 357.55,-1905.38 350.032,-1872.67 273,-1814"/>
</g>
<!-- \\Core\\Dispatch -->
<g id="node11" class="node"><title>\\Core\\Dispatch</title>
<a xlink:href="system.core.Dispatch.html" xlink:title="Dispatch" target="_parent">
<polygon fill="none" stroke="black" points="579.5,-2102 508.5,-2102 508.5,-2066 579.5,-2066 579.5,-2102"/>
<text text-anchor="middle" x="544" y="-2081.2" font-family="Courier,monospace" font-size="11.00">Dispatch</text>
</a>
</g>
<!-- \\Core\\NotFoundException -->
<g id="node12" class="node"><title>\\Core\\NotFoundException</title>
<a xlink:href="system.core.Dispatch.html" xlink:title="NotFoundException" target="_parent">
<polygon fill="none" stroke="black" points="337.5,-2048 206.5,-2048 206.5,-2012 337.5,-2012 337.5,-2048"/>
<text text-anchor="middle" x="272" y="-2027.2" font-family="Courier,monospace" font-size="11.00">NotFoundException</text>
</a>
</g>
<!-- \\Core\\NotFoundException&#45;&gt;\\Exception -->
<g id="edge12" class="edge"><title>\\Core\\NotFoundException&#45;&gt;\\Exception</title>
<path fill="none" stroke="black" d="M206.474,-2029.88C190.493,-2026.65 174.856,-2020.17 164,-2008 78.2959,-1911.9 55.1066,-943.326 51.5284,-763.61"/>
<polygon fill="none" stroke="black" points="55.0232,-763.304 51.329,-753.374 48.0245,-763.441 55.0232,-763.304"/>
</g>
<!-- \\Core\\ControllerNotFoundException -->
<g id="node13" class="node"><title>\\Core\\ControllerNotFoundException</title>
<a xlink:href="system.core.Dispatch.html" xlink:title="ControllerNotFoundException" target="_parent">
<polygon fill="none" stroke="black" points="643.5,-2048 444.5,-2048 444.5,-2012 643.5,-2012 643.5,-2048"/>
<text text-anchor="middle" x="544" y="-2027.2" font-family="Courier,monospace" font-size="11.00">ControllerNotFoundException</text>
</a>
</g>
<!-- \\Core\\ControllerNotFoundException&#45;&gt;\\Core\\NotFoundException -->
<g id="edge14" class="edge"><title>\\Core\\ControllerNotFoundException&#45;&gt;\\Core\\NotFoundException</title>
<path fill="none" stroke="black" d="M444.378,-2030C412.576,-2030 377.863,-2030 348.047,-2030"/>
<polygon fill="none" stroke="black" points="347.717,-2026.5 337.717,-2030 347.717,-2033.5 347.717,-2026.5"/>
</g>
<!-- \\Core\\MethodNotFoundException -->
<g id="node14" class="node"><title>\\Core\\MethodNotFoundException</title>
<a xlink:href="system.core.Dispatch.html" xlink:title="MethodNotFoundException" target="_parent">
<polygon fill="none" stroke="black" points="630,-2156 458,-2156 458,-2120 630,-2120 630,-2156"/>
<text text-anchor="middle" x="544" y="-2135.2" font-family="Courier,monospace" font-size="11.00">MethodNotFoundException</text>
</a>
</g>
<!-- \\Core\\MethodNotFoundException&#45;&gt;\\Core\\NotFoundException -->
<g id="edge16" class="edge"><title>\\Core\\MethodNotFoundException&#45;&gt;\\Core\\NotFoundException</title>
<path fill="none" stroke="black" d="M463.296,-2119.94C456.603,-2117.33 450.079,-2114.36 444,-2111 410.152,-2092.27 414.426,-2069.65 380,-2052 369.95,-2046.85 358.785,-2042.9 347.567,-2039.88"/>
<polygon fill="none" stroke="black" points="348.27,-2036.45 337.723,-2037.45 346.596,-2043.24 348.27,-2036.45"/>
</g>
<!-- \\Core\\ErrorHandler -->
<g id="node15" class="node"><title>\\Core\\ErrorHandler</title>
<a xlink:href="system.core.ErrorHandler.html" xlink:title="ErrorHandler" target="_parent">
<polygon fill="none" stroke="black" points="593,-1940 495,-1940 495,-1904 593,-1904 593,-1940"/>
<text text-anchor="middle" x="544" y="-1919.2" font-family="Courier,monospace" font-size="11.00">ErrorHandler</text>
</a>
</g>
<!-- \\Core\\EventHandler -->
<g id="node16" class="node"><title>\\Core\\EventHandler</title>
<a xlink:href="system.core.EventHandler.html" xlink:title="EventHandler" target="_parent">
<polygon fill="none" stroke="black" points="593,-1886 495,-1886 495,-1850 593,-1850 593,-1886"/>
<text text-anchor="middle" x="544" y="-1865.2" font-family="Courier,monospace" font-size="11.00">EventHandler</text>
</a>
</g>
<!-- \\Core\\InvalidCallableException -->
<g id="node17" class="node"><title>\\Core\\InvalidCallableException</title>
<a xlink:href="system.core.EventHandler.html" xlink:title="InvalidCallableException" target="_parent">
<polygon fill="none" stroke="black" points="633.5,-1832 454.5,-1832 454.5,-1796 633.5,-1796 633.5,-1832"/>
<text text-anchor="middle" x="544" y="-1811.2" font-family="Courier,monospace" font-size="11.00">InvalidCallableException</text>
</a>
</g>
<!-- \\Core\\InvalidCallableException&#45;&gt;\\Exception -->
<g id="edge18" class="edge"><title>\\Core\\InvalidCallableException&#45;&gt;\\Exception</title>
<path fill="none" stroke="black" d="M454.46,-1825.19C386.816,-1831.72 300.642,-1835.05 273,-1814"/>
</g>
<!-- \\Core\\Filesystem -->
<g id="node18" class="node"><title>\\Core\\Filesystem</title>
<a xlink:href="system.core.Filesystem.html" xlink:title="Filesystem" target="_parent">
<polygon fill="none" stroke="black" points="586,-1778 502,-1778 502,-1742 586,-1742 586,-1778"/>
<text text-anchor="middle" x="544" y="-1757.2" font-family="Courier,monospace" font-size="11.00">Filesystem</text>
</a>
</g>
<!-- \\Core\\Request -->
<g id="node19" class="node"><title>\\Core\\Request</title>
<a xlink:href="system.core.Request.html" xlink:title="Request" target="_parent">
<polygon fill="none" stroke="black" points="576,-1724 512,-1724 512,-1688 576,-1688 576,-1724"/>
<text text-anchor="middle" x="544" y="-1703.2" font-family="Courier,monospace" font-size="11.00">Request</text>
</a>
</g>
<!-- \\Core\\Response -->
<g id="node20" class="node"><title>\\Core\\Response</title>
<a xlink:href="system.core.Response.html" xlink:title="Response" target="_parent">
<polygon fill="none" stroke="black" points="579.5,-1670 508.5,-1670 508.5,-1634 579.5,-1634 579.5,-1670"/>
<text text-anchor="middle" x="544" y="-1649.2" font-family="Courier,monospace" font-size="11.00">Response</text>
</a>
</g>
<!-- \\Core\\OutputSentException -->
<g id="node21" class="node"><title>\\Core\\OutputSentException</title>
<a xlink:href="system.core.Response.html" xlink:title="OutputSentException" target="_parent">
<polygon fill="none" stroke="black" points="616.5,-1616 471.5,-1616 471.5,-1580 616.5,-1580 616.5,-1616"/>
<text text-anchor="middle" x="544" y="-1595.2" font-family="Courier,monospace" font-size="11.00">OutputSentException</text>
</a>
</g>
<!-- \\Core\\OutputSentException&#45;&gt;\\Exception -->
<g id="edge30" class="edge"><title>\\Core\\OutputSentException&#45;&gt;\\Exception</title>
<path fill="none" stroke="black" d="M271,-1814C96.6667,-1681.22 58.1419,-920.977 51.994,-763.536"/>
<polygon fill="none" stroke="black" points="55.4808,-763.12 51.6058,-753.259 48.4858,-763.384 55.4808,-763.12"/>
<path fill="none" stroke="black" d="M471.446,-1612.22C461.85,-1615.63 452.425,-1619.83 444,-1625 347.475,-1684.29 363.117,-1882.64 273,-1814"/>
</g>
<!-- \\Core\\Router -->
<g id="node22" class="node"><title>\\Core\\Router</title>
<a xlink:href="system.core.Router.html" xlink:title="Router" target="_parent">
<polygon fill="none" stroke="black" points="572.5,-1562 515.5,-1562 515.5,-1526 572.5,-1526 572.5,-1562"/>
<text text-anchor="middle" x="544" y="-1541.2" font-family="Courier,monospace" font-size="11.00">Router</text>
</a>
</g>
<!-- \\Core\\XssFilter -->
<g id="node23" class="node"><title>\\Core\\XssFilter</title>
<a xlink:href="system.core.XssFilter.html" xlink:title="XssFilter" target="_parent">
<polygon fill="none" stroke="black" points="582.5,-1508 505.5,-1508 505.5,-1472 582.5,-1472 582.5,-1508"/>
<text text-anchor="middle" x="544" y="-1487.2" font-family="Courier,monospace" font-size="11.00">XssFilter</text>
</a>
</g>
<!-- \\Database\\Driver -->
<g id="node25" class="node"><title>\\Database\\Driver</title>
<a xlink:href="system.core.database.Driver.html" xlink:title="Driver" target="_parent">
<polygon fill="none" stroke="black" points="572.5,-2642 515.5,-2642 515.5,-2606 572.5,-2606 572.5,-2642"/>
<text text-anchor="middle" x="544" y="-2621.2" font-family="Courier,monospace" font-size="11.00">Driver</text>
</a>
</g>
<!-- \\PDO -->
<g id="node58" class="node"><title>\\PDO</title>
<ellipse fill="none" stroke="black" cx="272" cy="-2624" rx="31.6951" ry="18"/>
<text text-anchor="middle" x="272" y="-2620.3" font-family="Times New Roman,serif" font-size="14.00" fill="gray">\PDO</text>
</g>
<!-- \\Database\\Driver&#45;&gt;\\PDO -->
<g id="edge8" class="edge"><title>\\Database\\Driver&#45;&gt;\\PDO</title>
<path fill="none" stroke="black" d="M515.374,-2624C467.772,-2624 370.048,-2624 314.324,-2624"/>
<polygon fill="none" stroke="black" points="314.098,-2620.5 304.098,-2624 314.097,-2627.5 314.098,-2620.5"/>
</g>
<!-- \\Library\\Auth -->
<g id="node27" class="node"><title>\\Library\\Auth</title>
<a xlink:href="system.library.Auth.html" xlink:title="Auth" target="_parent">
<polygon fill="none" stroke="black" points="299,-1428 245,-1428 245,-1392 299,-1392 299,-1428"/>
<text text-anchor="middle" x="272" y="-1407.2" font-family="Courier,monospace" font-size="11.00">Auth</text>
</a>
</g>
<!-- \\Library\\InvalidUsernameException -->
<g id="node28" class="node"><title>\\Library\\InvalidUsernameException</title>
<a xlink:href="system.library.Auth.html" xlink:title="InvalidUsernameException" target="_parent">
<polygon fill="none" stroke="black" points="361.5,-1374 182.5,-1374 182.5,-1338 361.5,-1338 361.5,-1374"/>
<text text-anchor="middle" x="272" y="-1353.2" font-family="Courier,monospace" font-size="11.00">InvalidUsernameException</text>
</a>
</g>
<!-- \\Library\\InvalidUsernameException&#45;&gt;\\Exception -->
<g id="edge32" class="edge"><title>\\Library\\InvalidUsernameException&#45;&gt;\\Exception</title>
<path fill="none" stroke="black" d="M182.246,-1342.68C175.482,-1339.07 169.256,-1334.58 164,-1329 85.1609,-1245.35 58.5142,-870.116 52.4585,-763.396"/>
<polygon fill="none" stroke="black" points="55.9361,-762.892 51.8915,-753.1 48.9467,-763.277 55.9361,-762.892"/>
</g>
<!-- \\Library\\InvalidPasswordException -->
<g id="node29" class="node"><title>\\Library\\InvalidPasswordException</title>
<a xlink:href="system.library.Auth.html" xlink:title="InvalidPasswordException" target="_parent">
<polygon fill="none" stroke="black" points="361.5,-1320 182.5,-1320 182.5,-1284 361.5,-1284 361.5,-1320"/>
<text text-anchor="middle" x="272" y="-1299.2" font-family="Courier,monospace" font-size="11.00">InvalidPasswordException</text>
</a>
</g>
<!-- \\Library\\InvalidPasswordException&#45;&gt;\\Exception -->
<g id="edge34" class="edge"><title>\\Library\\InvalidPasswordException&#45;&gt;\\Exception</title>
<path fill="none" stroke="black" d="M182.355,-1288.58C175.568,-1284.99 169.307,-1280.53 164,-1275 91.997,-1199.99 60.848,-863.812 53.046,-763.405"/>
<polygon fill="none" stroke="black" points="56.5132,-762.84 52.266,-753.133 49.5333,-763.37 56.5132,-762.84"/>
</g>
<!-- \\Library\\InvalidEmailException -->
<g id="node30" class="node"><title>\\Library\\InvalidEmailException</title>
<a xlink:href="system.library.Auth.html" xlink:title="InvalidEmailException" target="_parent">
<polygon fill="none" stroke="black" points="351,-1266 193,-1266 193,-1230 351,-1230 351,-1266"/>
<text text-anchor="middle" x="272" y="-1245.2" font-family="Courier,monospace" font-size="11.00">InvalidEmailException</text>
</a>
</g>
<!-- \\Library\\InvalidEmailException&#45;&gt;\\Exception -->
<g id="edge36" class="edge"><title>\\Library\\InvalidEmailException&#45;&gt;\\Exception</title>
<path fill="none" stroke="black" d="M192.767,-1239.08C182.038,-1234.95 171.985,-1229.14 164,-1221 98.7755,-1154.54 63.4075,-856.951 53.7493,-763.307"/>
<polygon fill="none" stroke="black" points="57.2125,-762.766 52.7227,-753.169 50.2481,-763.471 57.2125,-762.766"/>
</g>
<!-- \\Library\\InvalidCredentialsException -->
<g id="node31" class="node"><title>\\Library\\InvalidCredentialsException</title>
<a xlink:href="system.library.Auth.html" xlink:title="InvalidCredentialsException" target="_parent">
<polygon fill="none" stroke="black" points="371.5,-1212 172.5,-1212 172.5,-1176 371.5,-1176 371.5,-1212"/>
<text text-anchor="middle" x="272" y="-1191.2" font-family="Courier,monospace" font-size="11.00">InvalidCredentialsException</text>
</a>
</g>
<!-- \\Library\\InvalidCredentialsException&#45;&gt;\\Exception -->
<g id="edge38" class="edge"><title>\\Library\\InvalidCredentialsException&#45;&gt;\\Exception</title>
<path fill="none" stroke="black" d="M175.171,-1175.96C171.159,-1173.34 167.401,-1170.37 164,-1167 105.528,-1109.03 66.2918,-849.839 54.6264,-763.262"/>
<polygon fill="none" stroke="black" points="58.067,-762.582 53.2816,-753.129 51.1278,-763.503 58.067,-762.582"/>
</g>
<!-- \\Library\\AccountExistsException -->
<g id="node32" class="node"><title>\\Library\\AccountExistsException</title>
<a xlink:href="system.library.Auth.html" xlink:title="AccountExistsException" target="_parent">
<polygon fill="none" stroke="black" points="354.5,-1158 189.5,-1158 189.5,-1122 354.5,-1122 354.5,-1158"/>
<text text-anchor="middle" x="272" y="-1137.2" font-family="Courier,monospace" font-size="11.00">AccountExistsException</text>
</a>
</g>
<!-- \\Library\\AccountExistsException&#45;&gt;\\Exception -->
<g id="edge40" class="edge"><title>\\Library\\AccountExistsException&#45;&gt;\\Exception</title>
<path fill="none" stroke="black" d="M189.426,-1129.13C180.05,-1125.2 171.265,-1119.96 164,-1113 63.0399,-1016.32 51.2358,-833.559 50.6005,-763.406"/>
<polygon fill="none" stroke="black" points="54.1001,-763.138 50.5824,-753.144 47.1001,-763.15 54.1001,-763.138"/>
</g>
<!-- \\Library\\AccountBannedException -->
<g id="node33" class="node"><title>\\Library\\AccountBannedException</title>
<a xlink:href="system.library.Auth.html" xlink:title="AccountBannedException" target="_parent">
<polygon fill="none" stroke="black" points="354.5,-1104 189.5,-1104 189.5,-1068 354.5,-1068 354.5,-1104"/>
<text text-anchor="middle" x="272" y="-1083.2" font-family="Courier,monospace" font-size="11.00">AccountBannedException</text>
</a>
</g>
<!-- \\Library\\AccountBannedException&#45;&gt;\\Exception -->
<g id="edge42" class="edge"><title>\\Library\\AccountBannedException&#45;&gt;\\Exception</title>
<path fill="none" stroke="black" d="M189.451,-1074.7C180.127,-1070.83 171.349,-1065.73 164,-1059 76.1402,-978.583 56.5918,-826.153 52.2435,-763.243"/>
<polygon fill="none" stroke="black" points="55.7366,-763.022 51.6311,-753.255 48.7497,-763.451 55.7366,-763.022"/>
</g>
<!-- \\Library\\IpBannedException -->
<g id="node34" class="node"><title>\\Library\\IpBannedException</title>
<a xlink:href="system.library.Auth.html" xlink:title="IpBannedException" target="_parent">
<polygon fill="none" stroke="black" points="337.5,-1050 206.5,-1050 206.5,-1014 337.5,-1014 337.5,-1050"/>
<text text-anchor="middle" x="272" y="-1029.2" font-family="Courier,monospace" font-size="11.00">IpBannedException</text>
</a>
</g>
<!-- \\Library\\IpBannedException&#45;&gt;\\Exception -->
<g id="edge44" class="edge"><title>\\Library\\IpBannedException&#45;&gt;\\Exception</title>
<path fill="none" stroke="black" d="M206.402,-1025.74C191.163,-1021.7 175.906,-1015.25 164,-1005 89.0873,-940.506 62.7756,-818.122 54.459,-763.069"/>
<polygon fill="none" stroke="black" points="57.8993,-762.401 53.0266,-752.993 50.969,-763.387 57.8993,-762.401"/>
</g>
<!-- \\Library\\Cache -->
<g id="node35" class="node"><title>\\Library\\Cache</title>
<a xlink:href="system.library.Cache.html" xlink:title="Cache" target="_parent">
<polygon fill="none" stroke="black" points="299,-996 245,-996 245,-960 299,-960 299,-996"/>
<text text-anchor="middle" x="272" y="-975.2" font-family="Courier,monospace" font-size="11.00">Cache</text>
</a>
</g>
<!-- \\Library\\Mime -->
<g id="node36" class="node"><title>\\Library\\Mime</title>
<a xlink:href="system.library.Mime.html" xlink:title="Mime" target="_parent">
<polygon fill="none" stroke="black" points="299,-942 245,-942 245,-906 299,-906 299,-942"/>
<text text-anchor="middle" x="272" y="-921.2" font-family="Courier,monospace" font-size="11.00">Mime</text>
</a>
</g>
<!-- \\Library\\Parser -->
<g id="node37" class="node"><title>\\Library\\Parser</title>
<a xlink:href="system.library.Parser.html" xlink:title="Parser" target="_parent">
<polygon fill="none" stroke="black" points="300.5,-888 243.5,-888 243.5,-852 300.5,-852 300.5,-888"/>
<text text-anchor="middle" x="272" y="-867.2" font-family="Courier,monospace" font-size="11.00">Parser</text>
</a>
</g>
<!-- \\Library\\Template -->
<g id="node38" class="node"><title>\\Library\\Template</title>
<a xlink:href="system.library.Template.html" xlink:title="Template" target="_parent">
<polygon fill="none" stroke="black" points="307.5,-834 236.5,-834 236.5,-798 307.5,-798 307.5,-834"/>
<text text-anchor="middle" x="272" y="-813.2" font-family="Courier,monospace" font-size="11.00">Template</text>
</a>
</g>
<!-- \\Library\\ThemeNotSetException -->
<g id="node39" class="node"><title>\\Library\\ThemeNotSetException</title>
<a xlink:href="system.library.Template.html" xlink:title="ThemeNotSetException" target="_parent">
<polygon fill="none" stroke="black" points="348,-780 196,-780 196,-744 348,-744 348,-780"/>
<text text-anchor="middle" x="272" y="-759.2" font-family="Courier,monospace" font-size="11.00">ThemeNotSetException</text>
</a>
</g>
<!-- \\Library\\ThemeNotSetException&#45;&gt;\\Exception -->
<g id="edge46" class="edge"><title>\\Library\\ThemeNotSetException&#45;&gt;\\Exception</title>
<path fill="none" stroke="black" d="M195.904,-752.784C166.985,-749.235 134.476,-745.245 107.589,-741.945"/>
<polygon fill="none" stroke="black" points="107.93,-738.461 97.5786,-740.716 107.078,-745.409 107.93,-738.461"/>
</g>
<!-- \\Library\\InvalidThemePathException -->
<g id="node40" class="node"><title>\\Library\\InvalidThemePathException</title>
<a xlink:href="system.library.Template.html" xlink:title="InvalidThemePathException" target="_parent">
<polygon fill="none" stroke="black" points="364.5,-726 179.5,-726 179.5,-690 364.5,-690 364.5,-726"/>
<text text-anchor="middle" x="272" y="-705.2" font-family="Courier,monospace" font-size="11.00">InvalidThemePathException</text>
</a>
</g>
<!-- \\Library\\InvalidThemePathException&#45;&gt;\\Exception -->
<g id="edge48" class="edge"><title>\\Library\\InvalidThemePathException&#45;&gt;\\Exception</title>
<path fill="none" stroke="black" d="M179.293,-719.255C154.967,-722.24 129.413,-725.377 107.571,-728.057"/>
<polygon fill="none" stroke="black" points="106.992,-724.602 97.493,-729.294 107.845,-731.55 106.992,-724.602"/>
</g>
<!-- \\Library\\InvalidPageContents -->
<g id="node41" class="node"><title>\\Library\\InvalidPageContents</title>
<a xlink:href="system.library.Template.html" xlink:title="InvalidPageContents" target="_parent">
<polygon fill="none" stroke="black" points="344.5,-672 199.5,-672 199.5,-636 344.5,-636 344.5,-672"/>
<text text-anchor="middle" x="272" y="-651.2" font-family="Courier,monospace" font-size="11.00">InvalidPageContents</text>
</a>
</g>
<!-- \\Library\\InvalidPageContents&#45;&gt;\\Exception -->
<g id="edge50" class="edge"><title>\\Library\\InvalidPageContents&#45;&gt;\\Exception</title>
<path fill="none" stroke="black" d="M199.323,-669.988C187.404,-673.243 175.263,-676.934 164,-681 137.516,-690.562 108.91,-704.268 87.1068,-715.479"/>
<polygon fill="none" stroke="black" points="85.4599,-712.39 78.2048,-720.111 88.6913,-718.6 85.4599,-712.39"/>
</g>
<!-- \\Library\\MissingThemeConfigException -->
<g id="node42" class="node"><title>\\Library\\MissingThemeConfigException</title>
<a xlink:href="system.library.Template.html" xlink:title="MissingThemeConfigException" target="_parent">
<polygon fill="none" stroke="black" points="371.5,-618 172.5,-618 172.5,-582 371.5,-582 371.5,-618"/>
<text text-anchor="middle" x="272" y="-597.2" font-family="Courier,monospace" font-size="11.00">MissingThemeConfigException</text>
</a>
</g>
<!-- \\Library\\MissingThemeConfigException&#45;&gt;\\Exception -->
<g id="edge52" class="edge"><title>\\Library\\MissingThemeConfigException&#45;&gt;\\Exception</title>
<path fill="none" stroke="black" d="M183.403,-618.048C176.67,-620.65 170.12,-623.617 164,-627 126.018,-647.996 91.393,-684.906 70.7528,-709.654"/>
<polygon fill="none" stroke="black" points="67.9252,-707.583 64.3046,-717.54 73.3442,-712.014 67.9252,-707.583"/>
</g>
<!-- \\Library\\View -->
<g id="node43" class="node"><title>\\Library\\View</title>
<a xlink:href="system.library.View.html" xlink:title="View" target="_parent">
<polygon fill="none" stroke="black" points="299,-564 245,-564 245,-528 299,-528 299,-564"/>
<text text-anchor="middle" x="272" y="-543.2" font-family="Courier,monospace" font-size="11.00">View</text>
</a>
</g>
<!-- \\Library\\ViewNotFoundException -->
<g id="node44" class="node"><title>\\Library\\ViewNotFoundException</title>
<a xlink:href="system.library.View.html" xlink:title="ViewNotFoundException" target="_parent">
<polygon fill="none" stroke="black" points="351,-510 193,-510 193,-474 351,-474 351,-510"/>
<text text-anchor="middle" x="272" y="-489.2" font-family="Courier,monospace" font-size="11.00">ViewNotFoundException</text>
</a>
</g>
<!-- \\Library\\ViewNotFoundException&#45;&gt;\\Exception -->
<g id="edge54" class="edge"><title>\\Library\\ViewNotFoundException&#45;&gt;\\Exception</title>
<path fill="none" stroke="black" d="M192.818,-503.419C182.457,-507.235 172.498,-512.295 164,-519 101.889,-568.005 70.233,-660.619 57.6735,-707.021"/>
<polygon fill="none" stroke="black" points="54.2129,-706.422 55.0808,-716.981 60.9872,-708.186 54.2129,-706.422"/>
</g>
<!-- \\Library\\InvalidViewContents -->
<g id="node45" class="node"><title>\\Library\\InvalidViewContents</title>
<a xlink:href="system.library.View.html" xlink:title="InvalidViewContents" target="_parent">
<polygon fill="none" stroke="black" points="344.5,-456 199.5,-456 199.5,-420 344.5,-420 344.5,-456"/>
<text text-anchor="middle" x="272" y="-435.2" font-family="Courier,monospace" font-size="11.00">InvalidViewContents</text>
</a>
</g>
<!-- \\Library\\InvalidViewContents&#45;&gt;\\Exception -->
<g id="edge56" class="edge"><title>\\Library\\InvalidViewContents&#45;&gt;\\Exception</title>
<path fill="none" stroke="black" d="M199.444,-446.278C186.589,-450.352 174.091,-456.313 164,-465 89.0873,-529.494 62.7756,-651.878 54.459,-706.931"/>
<polygon fill="none" stroke="black" points="50.969,-706.613 53.0266,-717.007 57.8993,-707.599 50.969,-706.613"/>
</g>
<!-- \\Wowlib\\Driver -->
<g id="node47" class="node"><title>\\Wowlib\\Driver</title>
<a xlink:href="system.wowlib.drivers.Driver.html" xlink:title="Driver" target="_parent">
<polygon fill="none" stroke="black" points="572.5,-2776 515.5,-2776 515.5,-2740 572.5,-2740 572.5,-2776"/>
<text text-anchor="middle" x="544" y="-2755.2" font-family="Courier,monospace" font-size="11.00">Driver</text>
</a>
</g>
<!-- \\Wowlib\\Wowlib -->
<g id="node48" class="node"><title>\\Wowlib\\Wowlib</title>
<a xlink:href="system.wowlib.Wowlib.html" xlink:title="Wowlib" target="_parent">
<polygon fill="none" stroke="black" points="572.5,-2722 515.5,-2722 515.5,-2686 572.5,-2686 572.5,-2722"/>
<text text-anchor="middle" x="544" y="-2701.2" font-family="Courier,monospace" font-size="11.00">Wowlib</text>
</a>
</g>
<!-- \\ArgumentException -->
<g id="node50" class="node"><title>\\ArgumentException</title>
<a xlink:href="system.core.exceptions.ArgumentException.html" xlink:title="ArgumentException" target="_parent">
<polygon fill="none" stroke="black" points="337.5,-376 206.5,-376 206.5,-340 337.5,-340 337.5,-376"/>
<text text-anchor="middle" x="272" y="-355.2" font-family="Courier,monospace" font-size="11.00">ArgumentException</text>
</a>
</g>
<!-- \\ArgumentException&#45;&gt;\\Exception -->
<g id="edge20" class="edge"><title>\\ArgumentException&#45;&gt;\\Exception</title>
<path fill="none" stroke="black" d="M211.068,-376.011C193.994,-383.583 176.625,-393.983 164,-408 83.9864,-496.837 60.0842,-645.218 53.4093,-706.84"/>
<polygon fill="none" stroke="black" points="49.9089,-706.668 52.3849,-716.97 56.8734,-707.373 49.9089,-706.668"/>
</g>
<!-- \\DirectoryNotFoundException -->
<g id="node51" class="node"><title>\\DirectoryNotFoundException</title>
<a xlink:href="system.core.exceptions.DirectoryNotFoundException.html" xlink:title="DirectoryNotFoundException" target="_parent">
<polygon fill="none" stroke="black" points="368,-322 176,-322 176,-286 368,-286 368,-322"/>
<text text-anchor="middle" x="272" y="-301.2" font-family="Courier,monospace" font-size="11.00">DirectoryNotFoundException</text>
</a>
</g>
<!-- \\DirectoryNotFoundException&#45;&gt;\\Exception -->
<g id="edge22" class="edge"><title>\\DirectoryNotFoundException&#45;&gt;\\Exception</title>
<path fill="none" stroke="black" d="M175.725,-321.801C171.513,-324.474 167.567,-327.523 164,-331 109.041,-384.572 67.9843,-623.766 55.1902,-706.63"/>
<polygon fill="none" stroke="black" points="51.7179,-706.184 53.6719,-716.597 58.6381,-707.238 51.7179,-706.184"/>
</g>
<!-- \\FileNotFoundException -->
<g id="node52" class="node"><title>\\FileNotFoundException</title>
<a xlink:href="system.core.exceptions.FileNotFoundException.html" xlink:title="FileNotFoundException" target="_parent">
<polygon fill="none" stroke="black" points="351,-268 193,-268 193,-232 351,-232 351,-268"/>
<text text-anchor="middle" x="272" y="-247.2" font-family="Courier,monospace" font-size="11.00">FileNotFoundException</text>
</a>
</g>
<!-- \\FileNotFoundException&#45;&gt;\\Exception -->
<g id="edge24" class="edge"><title>\\FileNotFoundException&#45;&gt;\\Exception</title>
<path fill="none" stroke="black" d="M192.863,-259.017C182.122,-263.135 172.039,-268.918 164,-277 102.255,-339.072 64.8252,-616.935 54.1649,-706.838"/>
<polygon fill="none" stroke="black" points="50.6801,-706.504 52.9977,-716.842 57.633,-707.315 50.6801,-706.504"/>
</g>
<!-- \\IOException -->
<g id="node53" class="node"><title>\\IOException</title>
<a xlink:href="system.core.exceptions.IOException.html" xlink:title="IOException" target="_parent">
<polygon fill="none" stroke="black" points="317.5,-214 226.5,-214 226.5,-178 317.5,-178 317.5,-214"/>
<text text-anchor="middle" x="272" y="-193.2" font-family="Courier,monospace" font-size="11.00">IOException</text>
</a>
</g>
<!-- \\IOException&#45;&gt;\\Exception -->
<g id="edge26" class="edge"><title>\\IOException&#45;&gt;\\Exception</title>
<path fill="none" stroke="black" d="M226.316,-196.761C204.727,-199.48 180.078,-206.433 164,-223 95.4795,-293.604 62.1056,-610.041 53.3791,-706.801"/>
<polygon fill="none" stroke="black" points="49.8733,-706.713 52.4793,-716.982 56.8461,-707.329 49.8733,-706.713"/>
</g>
<!-- \\SecurityException -->
<g id="node54" class="node"><title>\\SecurityException</title>
<a xlink:href="system.core.exceptions.SecurityException.html" xlink:title="SecurityException" target="_parent">
<polygon fill="none" stroke="black" points="337.5,-160 206.5,-160 206.5,-124 337.5,-124 337.5,-160"/>
<text text-anchor="middle" x="272" y="-139.2" font-family="Courier,monospace" font-size="11.00">SecurityException</text>
</a>
</g>
<!-- \\SecurityException&#45;&gt;\\Exception -->
<g id="edge28" class="edge"><title>\\SecurityException&#45;&gt;\\Exception</title>
<path fill="none" stroke="black" d="M206.299,-146.323C190.606,-150.341 175.157,-157.269 164,-169 88.7094,-248.162 59.6962,-603.113 52.7495,-706.598"/>
<polygon fill="none" stroke="black" points="49.237,-706.676 52.0768,-716.883 56.2221,-707.133 49.237,-706.676"/>
</g>
<!-- \\Plexis -->
<g id="node55" class="node"><title>\\Plexis</title>
<a xlink:href="system.Plexis.html" xlink:title="Plexis" target="_parent">
<polygon fill="none" stroke="black" points="300.5,-106 243.5,-106 243.5,-70 300.5,-70 300.5,-106"/>
<text text-anchor="middle" x="272" y="-85.2" font-family="Courier,monospace" font-size="11.00">Plexis</text>
</a>
</g>
<!-- \\System -->
<g id="node56" class="node"><title>\\System</title>
<a xlink:href="system.System.html" xlink:title="System" target="_parent">
<polygon fill="none" stroke="black" points="300.5,-52 243.5,-52 243.5,-16 300.5,-16 300.5,-52"/>
<text text-anchor="middle" x="272" y="-31.2" font-family="Courier,monospace" font-size="11.00">System</text>
</a>
</g>
</g>
</svg>
